<mxfile host="Electron" agent="Mozilla/5.0 (Windows NT 10.0; Win64; x64) AppleWebKit/537.36 (KHTML, like Gecko) draw.io/24.7.5 Chrome/126.0.6478.183 Electron/31.3.0 Safari/537.36" version="24.7.5" pages="4">
  <diagram name="Ej16" id="qkLZ7HSBlKAE4cgfnlFb">
    <mxGraphModel dx="1235" dy="787" grid="1" gridSize="10" guides="1" tooltips="1" connect="1" arrows="1" fold="1" page="1" pageScale="1" pageWidth="827" pageHeight="1169" math="0" shadow="0">
      <root>
        <mxCell id="0" />
        <mxCell id="1" parent="0" />
        <mxCell id="-4CsxbUR8en8pWKPjAMw-3" value="" style="endArrow=classic;html=1;rounded=0;" edge="1" parent="1">
          <mxGeometry width="50" height="50" relative="1" as="geometry">
            <mxPoint x="20" y="340" as="sourcePoint" />
            <mxPoint x="1130" y="340" as="targetPoint" />
          </mxGeometry>
        </mxCell>
        <mxCell id="-4CsxbUR8en8pWKPjAMw-4" value="A" style="shape=process;whiteSpace=wrap;html=1;backgroundOutline=1;fillColor=#fff2cc;strokeColor=#d6b656;" vertex="1" parent="1">
          <mxGeometry x="40" y="280" width="40" height="60" as="geometry" />
        </mxCell>
        <mxCell id="-4CsxbUR8en8pWKPjAMw-6" value="" style="shape=process;whiteSpace=wrap;html=1;backgroundOutline=1;fillColor=#d5e8d4;strokeColor=#82b366;" vertex="1" parent="1">
          <mxGeometry x="110" y="590" width="40" height="60" as="geometry" />
        </mxCell>
        <mxCell id="-4CsxbUR8en8pWKPjAMw-8" value="" style="shape=process;whiteSpace=wrap;html=1;backgroundOutline=1;fillColor=#f8cecc;strokeColor=#b85450;" vertex="1" parent="1">
          <mxGeometry x="170" y="590" width="40" height="60" as="geometry" />
        </mxCell>
        <mxCell id="-4CsxbUR8en8pWKPjAMw-9" value="" style="shape=process;whiteSpace=wrap;html=1;backgroundOutline=1;fillColor=#fff2cc;strokeColor=#d6b656;" vertex="1" parent="1">
          <mxGeometry x="230" y="590" width="40" height="60" as="geometry" />
        </mxCell>
        <mxCell id="-4CsxbUR8en8pWKPjAMw-10" value="&lt;u&gt;Ready&lt;/u&gt;" style="text;html=1;align=center;verticalAlign=middle;whiteSpace=wrap;rounded=0;" vertex="1" parent="1">
          <mxGeometry x="100" y="660" width="60" height="30" as="geometry" />
        </mxCell>
        <mxCell id="-4CsxbUR8en8pWKPjAMw-12" value="&lt;u&gt;Blocked&lt;/u&gt;" style="text;html=1;align=center;verticalAlign=middle;whiteSpace=wrap;rounded=0;" vertex="1" parent="1">
          <mxGeometry x="160" y="660" width="60" height="30" as="geometry" />
        </mxCell>
        <mxCell id="-4CsxbUR8en8pWKPjAMw-13" value="&lt;u&gt;Running&lt;/u&gt;" style="text;html=1;align=center;verticalAlign=middle;whiteSpace=wrap;rounded=0;" vertex="1" parent="1">
          <mxGeometry x="220" y="660" width="60" height="30" as="geometry" />
        </mxCell>
        <mxCell id="-4CsxbUR8en8pWKPjAMw-14" value="" style="endArrow=none;html=1;rounded=0;" edge="1" parent="1">
          <mxGeometry width="50" height="50" relative="1" as="geometry">
            <mxPoint x="80" y="350" as="sourcePoint" />
            <mxPoint x="80" y="340" as="targetPoint" />
          </mxGeometry>
        </mxCell>
        <mxCell id="-4CsxbUR8en8pWKPjAMw-15" value="" style="endArrow=none;html=1;rounded=0;" edge="1" parent="1" source="-4CsxbUR8en8pWKPjAMw-30">
          <mxGeometry width="50" height="50" relative="1" as="geometry">
            <mxPoint x="40" y="350" as="sourcePoint" />
            <mxPoint x="40" y="340" as="targetPoint" />
          </mxGeometry>
        </mxCell>
        <mxCell id="-4CsxbUR8en8pWKPjAMw-16" value="" style="endArrow=none;html=1;rounded=0;" edge="1" parent="1">
          <mxGeometry width="50" height="50" relative="1" as="geometry">
            <mxPoint x="160" y="350" as="sourcePoint" />
            <mxPoint x="160" y="340" as="targetPoint" />
          </mxGeometry>
        </mxCell>
        <mxCell id="-4CsxbUR8en8pWKPjAMw-17" value="" style="endArrow=none;html=1;rounded=0;" edge="1" parent="1">
          <mxGeometry width="50" height="50" relative="1" as="geometry">
            <mxPoint x="120" y="350" as="sourcePoint" />
            <mxPoint x="120" y="340" as="targetPoint" />
          </mxGeometry>
        </mxCell>
        <mxCell id="-4CsxbUR8en8pWKPjAMw-18" value="" style="endArrow=none;html=1;rounded=0;" edge="1" parent="1">
          <mxGeometry width="50" height="50" relative="1" as="geometry">
            <mxPoint x="239.5" y="350" as="sourcePoint" />
            <mxPoint x="239.5" y="340" as="targetPoint" />
          </mxGeometry>
        </mxCell>
        <mxCell id="-4CsxbUR8en8pWKPjAMw-19" value="" style="endArrow=none;html=1;rounded=0;" edge="1" parent="1">
          <mxGeometry width="50" height="50" relative="1" as="geometry">
            <mxPoint x="199.5" y="350" as="sourcePoint" />
            <mxPoint x="199.5" y="340" as="targetPoint" />
          </mxGeometry>
        </mxCell>
        <mxCell id="-4CsxbUR8en8pWKPjAMw-20" value="" style="endArrow=none;html=1;rounded=0;" edge="1" parent="1">
          <mxGeometry width="50" height="50" relative="1" as="geometry">
            <mxPoint x="319.5" y="350" as="sourcePoint" />
            <mxPoint x="319.5" y="340" as="targetPoint" />
          </mxGeometry>
        </mxCell>
        <mxCell id="-4CsxbUR8en8pWKPjAMw-21" value="" style="endArrow=none;html=1;rounded=0;" edge="1" parent="1">
          <mxGeometry width="50" height="50" relative="1" as="geometry">
            <mxPoint x="279.5" y="350" as="sourcePoint" />
            <mxPoint x="279.5" y="340" as="targetPoint" />
          </mxGeometry>
        </mxCell>
        <mxCell id="-4CsxbUR8en8pWKPjAMw-22" value="" style="endArrow=none;html=1;rounded=0;" edge="1" parent="1">
          <mxGeometry width="50" height="50" relative="1" as="geometry">
            <mxPoint x="400" y="350" as="sourcePoint" />
            <mxPoint x="400" y="340" as="targetPoint" />
          </mxGeometry>
        </mxCell>
        <mxCell id="-4CsxbUR8en8pWKPjAMw-23" value="" style="endArrow=none;html=1;rounded=0;" edge="1" parent="1">
          <mxGeometry width="50" height="50" relative="1" as="geometry">
            <mxPoint x="360" y="350" as="sourcePoint" />
            <mxPoint x="360" y="340" as="targetPoint" />
          </mxGeometry>
        </mxCell>
        <mxCell id="-4CsxbUR8en8pWKPjAMw-24" value="" style="endArrow=none;html=1;rounded=0;" edge="1" parent="1">
          <mxGeometry width="50" height="50" relative="1" as="geometry">
            <mxPoint x="480" y="350" as="sourcePoint" />
            <mxPoint x="480" y="340" as="targetPoint" />
          </mxGeometry>
        </mxCell>
        <mxCell id="-4CsxbUR8en8pWKPjAMw-25" value="" style="endArrow=none;html=1;rounded=0;" edge="1" parent="1">
          <mxGeometry width="50" height="50" relative="1" as="geometry">
            <mxPoint x="440" y="350" as="sourcePoint" />
            <mxPoint x="440" y="340" as="targetPoint" />
          </mxGeometry>
        </mxCell>
        <mxCell id="-4CsxbUR8en8pWKPjAMw-26" value="" style="endArrow=none;html=1;rounded=0;" edge="1" parent="1">
          <mxGeometry width="50" height="50" relative="1" as="geometry">
            <mxPoint x="559.5" y="350" as="sourcePoint" />
            <mxPoint x="559.5" y="340" as="targetPoint" />
          </mxGeometry>
        </mxCell>
        <mxCell id="-4CsxbUR8en8pWKPjAMw-27" value="" style="endArrow=none;html=1;rounded=0;" edge="1" parent="1">
          <mxGeometry width="50" height="50" relative="1" as="geometry">
            <mxPoint x="519.5" y="350" as="sourcePoint" />
            <mxPoint x="519.5" y="340" as="targetPoint" />
          </mxGeometry>
        </mxCell>
        <mxCell id="-4CsxbUR8en8pWKPjAMw-28" value="" style="endArrow=none;html=1;rounded=0;" edge="1" parent="1">
          <mxGeometry width="50" height="50" relative="1" as="geometry">
            <mxPoint x="639.5" y="350" as="sourcePoint" />
            <mxPoint x="639.5" y="340" as="targetPoint" />
          </mxGeometry>
        </mxCell>
        <mxCell id="-4CsxbUR8en8pWKPjAMw-29" value="" style="endArrow=none;html=1;rounded=0;" edge="1" parent="1">
          <mxGeometry width="50" height="50" relative="1" as="geometry">
            <mxPoint x="599.5" y="350" as="sourcePoint" />
            <mxPoint x="599.5" y="340" as="targetPoint" />
          </mxGeometry>
        </mxCell>
        <mxCell id="-4CsxbUR8en8pWKPjAMw-31" value="" style="endArrow=none;html=1;rounded=0;" edge="1" parent="1" target="-4CsxbUR8en8pWKPjAMw-30">
          <mxGeometry width="50" height="50" relative="1" as="geometry">
            <mxPoint x="40" y="350" as="sourcePoint" />
            <mxPoint x="40" y="340" as="targetPoint" />
          </mxGeometry>
        </mxCell>
        <mxCell id="-4CsxbUR8en8pWKPjAMw-30" value="0" style="text;html=1;align=center;verticalAlign=middle;whiteSpace=wrap;rounded=0;" vertex="1" parent="1">
          <mxGeometry x="10" y="350" width="60" height="30" as="geometry" />
        </mxCell>
        <mxCell id="-4CsxbUR8en8pWKPjAMw-40" value="1" style="text;html=1;align=center;verticalAlign=middle;whiteSpace=wrap;rounded=0;" vertex="1" parent="1">
          <mxGeometry x="50" y="350" width="60" height="30" as="geometry" />
        </mxCell>
        <mxCell id="-4CsxbUR8en8pWKPjAMw-41" value="A" style="shape=process;whiteSpace=wrap;html=1;backgroundOutline=1;fillColor=#fff2cc;strokeColor=#d6b656;" vertex="1" parent="1">
          <mxGeometry x="80" y="280" width="40" height="60" as="geometry" />
        </mxCell>
        <mxCell id="-4CsxbUR8en8pWKPjAMw-42" value="C" style="shape=process;whiteSpace=wrap;html=1;backgroundOutline=1;fillColor=#fff2cc;strokeColor=#d6b656;" vertex="1" parent="1">
          <mxGeometry x="120" y="280" width="40" height="60" as="geometry" />
        </mxCell>
        <mxCell id="-4CsxbUR8en8pWKPjAMw-43" value="A" style="shape=process;whiteSpace=wrap;html=1;backgroundOutline=1;fillColor=#fff2cc;strokeColor=#d6b656;" vertex="1" parent="1">
          <mxGeometry x="160" y="280" width="40" height="60" as="geometry" />
        </mxCell>
        <mxCell id="-4CsxbUR8en8pWKPjAMw-44" value="B" style="shape=process;whiteSpace=wrap;html=1;backgroundOutline=1;fillColor=#fff2cc;strokeColor=#d6b656;" vertex="1" parent="1">
          <mxGeometry x="200" y="280" width="40" height="60" as="geometry" />
        </mxCell>
        <mxCell id="-4CsxbUR8en8pWKPjAMw-45" value="B" style="shape=process;whiteSpace=wrap;html=1;backgroundOutline=1;fillColor=#fff2cc;strokeColor=#d6b656;" vertex="1" parent="1">
          <mxGeometry x="240" y="280" width="40" height="60" as="geometry" />
        </mxCell>
        <mxCell id="-4CsxbUR8en8pWKPjAMw-46" value="B" style="shape=process;whiteSpace=wrap;html=1;backgroundOutline=1;fillColor=#fff2cc;strokeColor=#d6b656;" vertex="1" parent="1">
          <mxGeometry x="280" y="280" width="40" height="60" as="geometry" />
        </mxCell>
        <mxCell id="-4CsxbUR8en8pWKPjAMw-47" value="B" style="shape=process;whiteSpace=wrap;html=1;backgroundOutline=1;fillColor=#fff2cc;strokeColor=#d6b656;" vertex="1" parent="1">
          <mxGeometry x="320" y="280" width="40" height="60" as="geometry" />
        </mxCell>
        <mxCell id="-4CsxbUR8en8pWKPjAMw-48" value="C" style="shape=process;whiteSpace=wrap;html=1;backgroundOutline=1;fillColor=#fff2cc;strokeColor=#d6b656;" vertex="1" parent="1">
          <mxGeometry x="360" y="280" width="40" height="60" as="geometry" />
        </mxCell>
        <mxCell id="-4CsxbUR8en8pWKPjAMw-49" value="C" style="shape=process;whiteSpace=wrap;html=1;backgroundOutline=1;fillColor=#fff2cc;strokeColor=#d6b656;" vertex="1" parent="1">
          <mxGeometry x="400" y="280" width="40" height="60" as="geometry" />
        </mxCell>
        <mxCell id="-4CsxbUR8en8pWKPjAMw-50" value="B" style="shape=process;whiteSpace=wrap;html=1;backgroundOutline=1;fillColor=#fff2cc;strokeColor=#d6b656;" vertex="1" parent="1">
          <mxGeometry x="440" y="280" width="40" height="60" as="geometry" />
        </mxCell>
        <mxCell id="-4CsxbUR8en8pWKPjAMw-51" value="B" style="shape=process;whiteSpace=wrap;html=1;backgroundOutline=1;fillColor=#fff2cc;strokeColor=#d6b656;" vertex="1" parent="1">
          <mxGeometry x="480" y="280" width="40" height="60" as="geometry" />
        </mxCell>
        <mxCell id="-4CsxbUR8en8pWKPjAMw-52" value="A" style="shape=process;whiteSpace=wrap;html=1;backgroundOutline=1;fillColor=#fff2cc;strokeColor=#d6b656;" vertex="1" parent="1">
          <mxGeometry x="520" y="280" width="40" height="60" as="geometry" />
        </mxCell>
        <mxCell id="-4CsxbUR8en8pWKPjAMw-53" value="A" style="shape=process;whiteSpace=wrap;html=1;backgroundOutline=1;fillColor=#fff2cc;strokeColor=#d6b656;" vertex="1" parent="1">
          <mxGeometry x="560" y="280" width="40" height="60" as="geometry" />
        </mxCell>
        <mxCell id="-4CsxbUR8en8pWKPjAMw-54" value="B" style="shape=process;whiteSpace=wrap;html=1;backgroundOutline=1;fillColor=#fff2cc;strokeColor=#d6b656;" vertex="1" parent="1">
          <mxGeometry x="600" y="280" width="40" height="60" as="geometry" />
        </mxCell>
        <mxCell id="-4CsxbUR8en8pWKPjAMw-55" value="B" style="shape=process;whiteSpace=wrap;html=1;backgroundOutline=1;fillColor=#fff2cc;strokeColor=#d6b656;" vertex="1" parent="1">
          <mxGeometry x="640" y="280" width="40" height="60" as="geometry" />
        </mxCell>
        <mxCell id="-4CsxbUR8en8pWKPjAMw-56" value="2" style="text;html=1;align=center;verticalAlign=middle;whiteSpace=wrap;rounded=0;" vertex="1" parent="1">
          <mxGeometry x="90" y="350" width="60" height="30" as="geometry" />
        </mxCell>
        <mxCell id="-4CsxbUR8en8pWKPjAMw-57" value="3" style="text;html=1;align=center;verticalAlign=middle;whiteSpace=wrap;rounded=0;" vertex="1" parent="1">
          <mxGeometry x="130" y="350" width="60" height="30" as="geometry" />
        </mxCell>
        <mxCell id="-4CsxbUR8en8pWKPjAMw-58" value="4" style="text;html=1;align=center;verticalAlign=middle;whiteSpace=wrap;rounded=0;" vertex="1" parent="1">
          <mxGeometry x="170" y="350" width="60" height="30" as="geometry" />
        </mxCell>
        <mxCell id="-4CsxbUR8en8pWKPjAMw-59" value="5" style="text;html=1;align=center;verticalAlign=middle;whiteSpace=wrap;rounded=0;" vertex="1" parent="1">
          <mxGeometry x="210" y="350" width="60" height="30" as="geometry" />
        </mxCell>
        <mxCell id="-4CsxbUR8en8pWKPjAMw-60" value="6" style="text;html=1;align=center;verticalAlign=middle;whiteSpace=wrap;rounded=0;" vertex="1" parent="1">
          <mxGeometry x="250" y="350" width="60" height="30" as="geometry" />
        </mxCell>
        <mxCell id="-4CsxbUR8en8pWKPjAMw-61" value="7" style="text;html=1;align=center;verticalAlign=middle;whiteSpace=wrap;rounded=0;" vertex="1" parent="1">
          <mxGeometry x="290" y="350" width="60" height="30" as="geometry" />
        </mxCell>
        <mxCell id="-4CsxbUR8en8pWKPjAMw-62" value="8" style="text;html=1;align=center;verticalAlign=middle;whiteSpace=wrap;rounded=0;" vertex="1" parent="1">
          <mxGeometry x="330" y="350" width="60" height="30" as="geometry" />
        </mxCell>
        <mxCell id="-4CsxbUR8en8pWKPjAMw-63" value="9" style="text;html=1;align=center;verticalAlign=middle;whiteSpace=wrap;rounded=0;" vertex="1" parent="1">
          <mxGeometry x="370" y="350" width="60" height="30" as="geometry" />
        </mxCell>
        <mxCell id="-4CsxbUR8en8pWKPjAMw-64" value="10" style="text;html=1;align=center;verticalAlign=middle;whiteSpace=wrap;rounded=0;" vertex="1" parent="1">
          <mxGeometry x="410" y="350" width="60" height="30" as="geometry" />
        </mxCell>
        <mxCell id="-4CsxbUR8en8pWKPjAMw-65" value="11" style="text;html=1;align=center;verticalAlign=middle;whiteSpace=wrap;rounded=0;" vertex="1" parent="1">
          <mxGeometry x="450" y="350" width="60" height="30" as="geometry" />
        </mxCell>
        <mxCell id="-4CsxbUR8en8pWKPjAMw-66" value="12" style="text;html=1;align=center;verticalAlign=middle;whiteSpace=wrap;rounded=0;" vertex="1" parent="1">
          <mxGeometry x="490" y="350" width="60" height="30" as="geometry" />
        </mxCell>
        <mxCell id="-4CsxbUR8en8pWKPjAMw-67" value="13" style="text;html=1;align=center;verticalAlign=middle;whiteSpace=wrap;rounded=0;" vertex="1" parent="1">
          <mxGeometry x="530" y="350" width="60" height="30" as="geometry" />
        </mxCell>
        <mxCell id="-4CsxbUR8en8pWKPjAMw-68" value="14" style="text;html=1;align=center;verticalAlign=middle;whiteSpace=wrap;rounded=0;" vertex="1" parent="1">
          <mxGeometry x="570" y="350" width="60" height="30" as="geometry" />
        </mxCell>
        <mxCell id="-4CsxbUR8en8pWKPjAMw-69" value="15" style="text;html=1;align=center;verticalAlign=middle;whiteSpace=wrap;rounded=0;" vertex="1" parent="1">
          <mxGeometry x="610" y="350" width="60" height="30" as="geometry" />
        </mxCell>
        <mxCell id="-4CsxbUR8en8pWKPjAMw-72" value="C" style="shape=process;whiteSpace=wrap;html=1;backgroundOutline=1;fillColor=#d5e8d4;strokeColor=#82b366;" vertex="1" parent="1">
          <mxGeometry x="80" y="180" width="40" height="60" as="geometry" />
        </mxCell>
        <mxCell id="-4CsxbUR8en8pWKPjAMw-74" value="A" style="shape=process;whiteSpace=wrap;html=1;backgroundOutline=1;fillColor=#d5e8d4;strokeColor=#82b366;" vertex="1" parent="1">
          <mxGeometry x="120" y="180" width="40" height="60" as="geometry" />
        </mxCell>
        <mxCell id="-4CsxbUR8en8pWKPjAMw-75" value="B" style="shape=process;whiteSpace=wrap;html=1;backgroundOutline=1;fillColor=#d5e8d4;strokeColor=#82b366;" vertex="1" parent="1">
          <mxGeometry x="120" y="120" width="40" height="60" as="geometry" />
        </mxCell>
        <mxCell id="-4CsxbUR8en8pWKPjAMw-76" value="B" style="shape=process;whiteSpace=wrap;html=1;backgroundOutline=1;fillColor=#d5e8d4;strokeColor=#82b366;" vertex="1" parent="1">
          <mxGeometry x="160" y="180" width="40" height="60" as="geometry" />
        </mxCell>
        <mxCell id="-4CsxbUR8en8pWKPjAMw-77" value="C" style="shape=process;whiteSpace=wrap;html=1;backgroundOutline=1;fillColor=#f8cecc;strokeColor=#b85450;" vertex="1" parent="1">
          <mxGeometry x="160" y="400" width="40" height="60" as="geometry" />
        </mxCell>
        <mxCell id="-4CsxbUR8en8pWKPjAMw-78" value="C" style="shape=process;whiteSpace=wrap;html=1;backgroundOutline=1;fillColor=#f8cecc;strokeColor=#b85450;" vertex="1" parent="1">
          <mxGeometry x="200" y="400" width="40" height="60" as="geometry" />
        </mxCell>
        <mxCell id="-4CsxbUR8en8pWKPjAMw-79" value="C" style="shape=process;whiteSpace=wrap;html=1;backgroundOutline=1;fillColor=#f8cecc;strokeColor=#b85450;" vertex="1" parent="1">
          <mxGeometry x="240" y="400" width="40" height="60" as="geometry" />
        </mxCell>
        <mxCell id="-4CsxbUR8en8pWKPjAMw-82" value="A" style="shape=process;whiteSpace=wrap;html=1;backgroundOutline=1;fillColor=#f8cecc;strokeColor=#b85450;" vertex="1" parent="1">
          <mxGeometry x="200" y="460" width="40" height="60" as="geometry" />
        </mxCell>
        <mxCell id="-4CsxbUR8en8pWKPjAMw-83" value="A" style="shape=process;whiteSpace=wrap;html=1;backgroundOutline=1;fillColor=#f8cecc;strokeColor=#b85450;" vertex="1" parent="1">
          <mxGeometry x="240" y="460" width="40" height="60" as="geometry" />
        </mxCell>
        <mxCell id="-4CsxbUR8en8pWKPjAMw-85" value="A" style="shape=process;whiteSpace=wrap;html=1;backgroundOutline=1;fillColor=#f8cecc;strokeColor=#b85450;" vertex="1" parent="1">
          <mxGeometry x="280" y="460" width="40" height="60" as="geometry" />
        </mxCell>
        <mxCell id="-4CsxbUR8en8pWKPjAMw-86" value="A" style="shape=process;whiteSpace=wrap;html=1;backgroundOutline=1;fillColor=#f8cecc;strokeColor=#b85450;" vertex="1" parent="1">
          <mxGeometry x="320" y="460" width="40" height="60" as="geometry" />
        </mxCell>
        <mxCell id="-4CsxbUR8en8pWKPjAMw-87" value="A" style="shape=process;whiteSpace=wrap;html=1;backgroundOutline=1;fillColor=#f8cecc;strokeColor=#b85450;" vertex="1" parent="1">
          <mxGeometry x="360" y="460" width="40" height="60" as="geometry" />
        </mxCell>
        <mxCell id="-4CsxbUR8en8pWKPjAMw-88" value="C" style="shape=process;whiteSpace=wrap;html=1;backgroundOutline=1;fillColor=#d5e8d4;strokeColor=#82b366;" vertex="1" parent="1">
          <mxGeometry x="280" y="180" width="40" height="60" as="geometry" />
        </mxCell>
        <mxCell id="-4CsxbUR8en8pWKPjAMw-89" value="C" style="shape=process;whiteSpace=wrap;html=1;backgroundOutline=1;fillColor=#d5e8d4;strokeColor=#82b366;" vertex="1" parent="1">
          <mxGeometry x="320" y="180" width="40" height="60" as="geometry" />
        </mxCell>
        <mxCell id="-4CsxbUR8en8pWKPjAMw-90" value="B" style="shape=process;whiteSpace=wrap;html=1;backgroundOutline=1;fillColor=#d5e8d4;strokeColor=#82b366;" vertex="1" parent="1">
          <mxGeometry x="360" y="180" width="40" height="60" as="geometry" />
        </mxCell>
        <mxCell id="-4CsxbUR8en8pWKPjAMw-91" value="B" style="shape=process;whiteSpace=wrap;html=1;backgroundOutline=1;fillColor=#d5e8d4;strokeColor=#82b366;" vertex="1" parent="1">
          <mxGeometry x="400" y="180" width="40" height="60" as="geometry" />
        </mxCell>
        <mxCell id="-4CsxbUR8en8pWKPjAMw-92" value="A" style="shape=process;whiteSpace=wrap;html=1;backgroundOutline=1;fillColor=#d5e8d4;strokeColor=#82b366;" vertex="1" parent="1">
          <mxGeometry x="400" y="120" width="40" height="60" as="geometry" />
        </mxCell>
        <mxCell id="-4CsxbUR8en8pWKPjAMw-93" value="C" style="shape=process;whiteSpace=wrap;html=1;backgroundOutline=1;fillColor=#f8cecc;strokeColor=#b85450;" vertex="1" parent="1">
          <mxGeometry x="440" y="400" width="40" height="60" as="geometry" />
        </mxCell>
        <mxCell id="-4CsxbUR8en8pWKPjAMw-94" value="C" style="shape=process;whiteSpace=wrap;html=1;backgroundOutline=1;fillColor=#f8cecc;strokeColor=#b85450;" vertex="1" parent="1">
          <mxGeometry x="480" y="400" width="40" height="60" as="geometry" />
        </mxCell>
        <mxCell id="-4CsxbUR8en8pWKPjAMw-95" value="C" style="shape=process;whiteSpace=wrap;html=1;backgroundOutline=1;fillColor=#f8cecc;strokeColor=#b85450;" vertex="1" parent="1">
          <mxGeometry x="520" y="400" width="40" height="60" as="geometry" />
        </mxCell>
        <mxCell id="-4CsxbUR8en8pWKPjAMw-96" value="C" style="shape=process;whiteSpace=wrap;html=1;backgroundOutline=1;fillColor=#f8cecc;strokeColor=#b85450;" vertex="1" parent="1">
          <mxGeometry x="560" y="400" width="40" height="60" as="geometry" />
        </mxCell>
        <mxCell id="-4CsxbUR8en8pWKPjAMw-97" value="C" style="shape=process;whiteSpace=wrap;html=1;backgroundOutline=1;fillColor=#f8cecc;strokeColor=#b85450;" vertex="1" parent="1">
          <mxGeometry x="600" y="400" width="40" height="60" as="geometry" />
        </mxCell>
        <mxCell id="-4CsxbUR8en8pWKPjAMw-98" value="A" style="shape=process;whiteSpace=wrap;html=1;backgroundOutline=1;fillColor=#d5e8d4;strokeColor=#82b366;" vertex="1" parent="1">
          <mxGeometry x="440" y="180" width="40" height="60" as="geometry" />
        </mxCell>
        <mxCell id="-4CsxbUR8en8pWKPjAMw-99" value="A" style="shape=process;whiteSpace=wrap;html=1;backgroundOutline=1;fillColor=#d5e8d4;strokeColor=#82b366;" vertex="1" parent="1">
          <mxGeometry x="480" y="180" width="40" height="60" as="geometry" />
        </mxCell>
        <mxCell id="-4CsxbUR8en8pWKPjAMw-100" value="B" style="shape=process;whiteSpace=wrap;html=1;backgroundOutline=1;fillColor=#d5e8d4;strokeColor=#82b366;" vertex="1" parent="1">
          <mxGeometry x="520" y="180" width="40" height="60" as="geometry" />
        </mxCell>
        <mxCell id="-4CsxbUR8en8pWKPjAMw-101" value="B" style="shape=process;whiteSpace=wrap;html=1;backgroundOutline=1;fillColor=#d5e8d4;strokeColor=#82b366;" vertex="1" parent="1">
          <mxGeometry x="560" y="180" width="40" height="60" as="geometry" />
        </mxCell>
        <mxCell id="-4CsxbUR8en8pWKPjAMw-103" value="A" style="shape=process;whiteSpace=wrap;html=1;backgroundOutline=1;fillColor=#f8cecc;strokeColor=#b85450;" vertex="1" parent="1">
          <mxGeometry x="600" y="460" width="40" height="60" as="geometry" />
        </mxCell>
        <mxCell id="-4CsxbUR8en8pWKPjAMw-104" value="A" style="shape=process;whiteSpace=wrap;html=1;backgroundOutline=1;fillColor=#f8cecc;strokeColor=#b85450;" vertex="1" parent="1">
          <mxGeometry x="640" y="460" width="40" height="60" as="geometry" />
        </mxCell>
        <mxCell id="-4CsxbUR8en8pWKPjAMw-106" value="A" style="shape=process;whiteSpace=wrap;html=1;backgroundOutline=1;fillColor=#f8cecc;strokeColor=#b85450;" vertex="1" parent="1">
          <mxGeometry x="680" y="460" width="40" height="60" as="geometry" />
        </mxCell>
        <mxCell id="-4CsxbUR8en8pWKPjAMw-107" value="A" style="shape=process;whiteSpace=wrap;html=1;backgroundOutline=1;fillColor=#f8cecc;strokeColor=#b85450;" vertex="1" parent="1">
          <mxGeometry x="720" y="460" width="40" height="60" as="geometry" />
        </mxCell>
        <mxCell id="-4CsxbUR8en8pWKPjAMw-109" value="C" style="shape=process;whiteSpace=wrap;html=1;backgroundOutline=1;fillColor=#d5e8d4;strokeColor=#82b366;" vertex="1" parent="1">
          <mxGeometry x="640" y="180" width="40" height="60" as="geometry" />
        </mxCell>
        <mxCell id="-4CsxbUR8en8pWKPjAMw-110" value="" style="endArrow=none;html=1;rounded=0;" edge="1" parent="1">
          <mxGeometry width="50" height="50" relative="1" as="geometry">
            <mxPoint x="680" y="350" as="sourcePoint" />
            <mxPoint x="680" y="340" as="targetPoint" />
          </mxGeometry>
        </mxCell>
        <mxCell id="-4CsxbUR8en8pWKPjAMw-111" value="" style="endArrow=none;html=1;rounded=0;" edge="1" parent="1">
          <mxGeometry width="50" height="50" relative="1" as="geometry">
            <mxPoint x="760" y="350" as="sourcePoint" />
            <mxPoint x="760" y="340" as="targetPoint" />
          </mxGeometry>
        </mxCell>
        <mxCell id="-4CsxbUR8en8pWKPjAMw-112" value="" style="endArrow=none;html=1;rounded=0;" edge="1" parent="1">
          <mxGeometry width="50" height="50" relative="1" as="geometry">
            <mxPoint x="720" y="350" as="sourcePoint" />
            <mxPoint x="720" y="340" as="targetPoint" />
          </mxGeometry>
        </mxCell>
        <mxCell id="-4CsxbUR8en8pWKPjAMw-113" value="17" style="text;html=1;align=center;verticalAlign=middle;whiteSpace=wrap;rounded=0;" vertex="1" parent="1">
          <mxGeometry x="690.5" y="350" width="60" height="30" as="geometry" />
        </mxCell>
        <mxCell id="-4CsxbUR8en8pWKPjAMw-114" value="18" style="text;html=1;align=center;verticalAlign=middle;whiteSpace=wrap;rounded=0;" vertex="1" parent="1">
          <mxGeometry x="730.5" y="350" width="60" height="30" as="geometry" />
        </mxCell>
        <mxCell id="-4CsxbUR8en8pWKPjAMw-115" value="" style="endArrow=none;html=1;rounded=0;" edge="1" parent="1">
          <mxGeometry width="50" height="50" relative="1" as="geometry">
            <mxPoint x="800" y="350" as="sourcePoint" />
            <mxPoint x="800" y="340" as="targetPoint" />
          </mxGeometry>
        </mxCell>
        <mxCell id="-4CsxbUR8en8pWKPjAMw-116" value="" style="endArrow=none;html=1;rounded=0;" edge="1" parent="1">
          <mxGeometry width="50" height="50" relative="1" as="geometry">
            <mxPoint x="880" y="350" as="sourcePoint" />
            <mxPoint x="880" y="340" as="targetPoint" />
          </mxGeometry>
        </mxCell>
        <mxCell id="-4CsxbUR8en8pWKPjAMw-117" value="" style="endArrow=none;html=1;rounded=0;" edge="1" parent="1">
          <mxGeometry width="50" height="50" relative="1" as="geometry">
            <mxPoint x="840" y="350" as="sourcePoint" />
            <mxPoint x="840" y="340" as="targetPoint" />
          </mxGeometry>
        </mxCell>
        <mxCell id="-4CsxbUR8en8pWKPjAMw-118" value="20" style="text;html=1;align=center;verticalAlign=middle;whiteSpace=wrap;rounded=0;" vertex="1" parent="1">
          <mxGeometry x="810.5" y="350" width="60" height="30" as="geometry" />
        </mxCell>
        <mxCell id="-4CsxbUR8en8pWKPjAMw-119" value="21" style="text;html=1;align=center;verticalAlign=middle;whiteSpace=wrap;rounded=0;" vertex="1" parent="1">
          <mxGeometry x="850" y="350" width="60.5" height="30" as="geometry" />
        </mxCell>
        <mxCell id="-4CsxbUR8en8pWKPjAMw-125" value="16" style="text;html=1;align=center;verticalAlign=middle;whiteSpace=wrap;rounded=0;" vertex="1" parent="1">
          <mxGeometry x="650" y="350" width="60" height="30" as="geometry" />
        </mxCell>
        <mxCell id="-4CsxbUR8en8pWKPjAMw-126" value="19" style="text;html=1;align=center;verticalAlign=middle;whiteSpace=wrap;rounded=0;" vertex="1" parent="1">
          <mxGeometry x="770" y="350" width="60" height="30" as="geometry" />
        </mxCell>
        <mxCell id="-4CsxbUR8en8pWKPjAMw-127" value="B" style="shape=process;whiteSpace=wrap;html=1;backgroundOutline=1;fillColor=#f8cecc;strokeColor=#b85450;" vertex="1" parent="1">
          <mxGeometry x="680" y="520" width="40" height="60" as="geometry" />
        </mxCell>
        <mxCell id="-4CsxbUR8en8pWKPjAMw-128" value="C" style="shape=process;whiteSpace=wrap;html=1;backgroundOutline=1;fillColor=#fff2cc;strokeColor=#d6b656;" vertex="1" parent="1">
          <mxGeometry x="680" y="280" width="40" height="60" as="geometry" />
        </mxCell>
        <mxCell id="-4CsxbUR8en8pWKPjAMw-129" value="C" style="shape=process;whiteSpace=wrap;html=1;backgroundOutline=1;fillColor=#f8cecc;strokeColor=#b85450;" vertex="1" parent="1">
          <mxGeometry x="720" y="400" width="40" height="60" as="geometry" />
        </mxCell>
        <mxCell id="-4CsxbUR8en8pWKPjAMw-130" value="C" style="shape=process;whiteSpace=wrap;html=1;backgroundOutline=1;fillColor=#f8cecc;strokeColor=#b85450;" vertex="1" parent="1">
          <mxGeometry x="760" y="400" width="40" height="60" as="geometry" />
        </mxCell>
        <mxCell id="-4CsxbUR8en8pWKPjAMw-131" value="C" style="shape=process;whiteSpace=wrap;html=1;backgroundOutline=1;fillColor=#f8cecc;strokeColor=#b85450;" vertex="1" parent="1">
          <mxGeometry x="800" y="400" width="40" height="60" as="geometry" />
        </mxCell>
        <mxCell id="-4CsxbUR8en8pWKPjAMw-132" value="C" style="shape=process;whiteSpace=wrap;html=1;backgroundOutline=1;fillColor=#f8cecc;strokeColor=#b85450;" vertex="1" parent="1">
          <mxGeometry x="840" y="400" width="40" height="60" as="geometry" />
        </mxCell>
        <mxCell id="-4CsxbUR8en8pWKPjAMw-133" value="B" style="shape=process;whiteSpace=wrap;html=1;backgroundOutline=1;fillColor=#fff2cc;strokeColor=#d6b656;" vertex="1" parent="1">
          <mxGeometry x="720" y="280" width="40" height="60" as="geometry" />
        </mxCell>
        <mxCell id="-4CsxbUR8en8pWKPjAMw-137" value="B" style="shape=process;whiteSpace=wrap;html=1;backgroundOutline=1;fillColor=#fff2cc;strokeColor=#d6b656;" vertex="1" parent="1">
          <mxGeometry x="800" y="280" width="40" height="60" as="geometry" />
        </mxCell>
        <mxCell id="-4CsxbUR8en8pWKPjAMw-138" value="B" style="shape=process;whiteSpace=wrap;html=1;backgroundOutline=1;fillColor=#fff2cc;strokeColor=#d6b656;" vertex="1" parent="1">
          <mxGeometry x="760" y="280" width="40" height="60" as="geometry" />
        </mxCell>
        <mxCell id="-4CsxbUR8en8pWKPjAMw-139" value="A" style="shape=process;whiteSpace=wrap;html=1;backgroundOutline=1;fillColor=#d5e8d4;strokeColor=#82b366;" vertex="1" parent="1">
          <mxGeometry x="760" y="180" width="40" height="60" as="geometry" />
        </mxCell>
        <mxCell id="-4CsxbUR8en8pWKPjAMw-140" value="A" style="shape=process;whiteSpace=wrap;html=1;backgroundOutline=1;fillColor=#d5e8d4;strokeColor=#82b366;" vertex="1" parent="1">
          <mxGeometry x="800" y="180" width="40" height="60" as="geometry" />
        </mxCell>
        <mxCell id="-4CsxbUR8en8pWKPjAMw-141" value="B" style="shape=process;whiteSpace=wrap;html=1;backgroundOutline=1;fillColor=#d5e8d4;strokeColor=#82b366;" vertex="1" parent="1">
          <mxGeometry x="840" y="180" width="40" height="60" as="geometry" />
        </mxCell>
        <mxCell id="-4CsxbUR8en8pWKPjAMw-142" value="A" style="shape=process;whiteSpace=wrap;html=1;backgroundOutline=1;fillColor=#fff2cc;strokeColor=#d6b656;" vertex="1" parent="1">
          <mxGeometry x="840" y="280" width="40" height="60" as="geometry" />
        </mxCell>
        <mxCell id="-4CsxbUR8en8pWKPjAMw-143" value="B" style="shape=process;whiteSpace=wrap;html=1;backgroundOutline=1;fillColor=#fff2cc;strokeColor=#d6b656;" vertex="1" parent="1">
          <mxGeometry x="880" y="280" width="40" height="60" as="geometry" />
        </mxCell>
        <mxCell id="-4CsxbUR8en8pWKPjAMw-144" value="A" style="shape=process;whiteSpace=wrap;html=1;backgroundOutline=1;fillColor=#f8cecc;strokeColor=#b85450;" vertex="1" parent="1">
          <mxGeometry x="880" y="460" width="40" height="60" as="geometry" />
        </mxCell>
        <mxCell id="-4CsxbUR8en8pWKPjAMw-145" value="C" style="shape=process;whiteSpace=wrap;html=1;backgroundOutline=1;fillColor=#d5e8d4;strokeColor=#82b366;" vertex="1" parent="1">
          <mxGeometry x="880" y="180" width="40" height="60" as="geometry" />
        </mxCell>
        <mxCell id="-4CsxbUR8en8pWKPjAMw-146" value="C" style="shape=process;whiteSpace=wrap;html=1;backgroundOutline=1;fillColor=#fff2cc;strokeColor=#d6b656;" vertex="1" parent="1">
          <mxGeometry x="920" y="280" width="40" height="60" as="geometry" />
        </mxCell>
        <mxCell id="-4CsxbUR8en8pWKPjAMw-147" value="C" style="shape=process;whiteSpace=wrap;html=1;backgroundOutline=1;fillColor=#fff2cc;strokeColor=#d6b656;" vertex="1" parent="1">
          <mxGeometry x="960" y="280" width="40" height="60" as="geometry" />
        </mxCell>
        <mxCell id="-4CsxbUR8en8pWKPjAMw-148" value="A" style="shape=process;whiteSpace=wrap;html=1;backgroundOutline=1;fillColor=#f8cecc;strokeColor=#b85450;" vertex="1" parent="1">
          <mxGeometry x="920" y="460" width="40" height="60" as="geometry" />
        </mxCell>
        <mxCell id="-4CsxbUR8en8pWKPjAMw-149" value="A" style="shape=process;whiteSpace=wrap;html=1;backgroundOutline=1;fillColor=#f8cecc;strokeColor=#b85450;" vertex="1" parent="1">
          <mxGeometry x="960" y="460" width="40" height="60" as="geometry" />
        </mxCell>
        <mxCell id="-4CsxbUR8en8pWKPjAMw-150" value="B" style="shape=process;whiteSpace=wrap;html=1;backgroundOutline=1;fillColor=#d5e8d4;strokeColor=#82b366;" vertex="1" parent="1">
          <mxGeometry x="920" y="180" width="40" height="60" as="geometry" />
        </mxCell>
        <mxCell id="-4CsxbUR8en8pWKPjAMw-151" value="B" style="shape=process;whiteSpace=wrap;html=1;backgroundOutline=1;fillColor=#d5e8d4;strokeColor=#82b366;" vertex="1" parent="1">
          <mxGeometry x="960" y="180" width="40" height="60" as="geometry" />
        </mxCell>
        <mxCell id="-4CsxbUR8en8pWKPjAMw-152" value="C" style="shape=process;whiteSpace=wrap;html=1;backgroundOutline=1;fillColor=#f8cecc;strokeColor=#b85450;" vertex="1" parent="1">
          <mxGeometry x="1000" y="400" width="40" height="60" as="geometry" />
        </mxCell>
        <mxCell id="-4CsxbUR8en8pWKPjAMw-153" value="B" style="shape=process;whiteSpace=wrap;html=1;backgroundOutline=1;fillColor=#fff2cc;strokeColor=#d6b656;" vertex="1" parent="1">
          <mxGeometry x="1000" y="280" width="40" height="60" as="geometry" />
        </mxCell>
        <mxCell id="-4CsxbUR8en8pWKPjAMw-154" value="B" style="shape=process;whiteSpace=wrap;html=1;backgroundOutline=1;fillColor=#fff2cc;strokeColor=#d6b656;" vertex="1" parent="1">
          <mxGeometry x="1040" y="280" width="40" height="60" as="geometry" />
        </mxCell>
        <mxCell id="-4CsxbUR8en8pWKPjAMw-155" value="C" style="shape=process;whiteSpace=wrap;html=1;backgroundOutline=1;fillColor=#f8cecc;strokeColor=#b85450;" vertex="1" parent="1">
          <mxGeometry x="1040" y="400" width="40" height="60" as="geometry" />
        </mxCell>
        <mxCell id="-4CsxbUR8en8pWKPjAMw-156" value="C" style="shape=process;whiteSpace=wrap;html=1;backgroundOutline=1;fillColor=#f8cecc;strokeColor=#b85450;" vertex="1" parent="1">
          <mxGeometry x="1080" y="400" width="40" height="60" as="geometry" />
        </mxCell>
        <mxCell id="-4CsxbUR8en8pWKPjAMw-157" value="A" style="shape=process;whiteSpace=wrap;html=1;backgroundOutline=1;fillColor=#f8cecc;strokeColor=#b85450;" vertex="1" parent="1">
          <mxGeometry x="1000" y="460" width="40" height="60" as="geometry" />
        </mxCell>
        <mxCell id="-4CsxbUR8en8pWKPjAMw-158" value="A" style="shape=process;whiteSpace=wrap;html=1;backgroundOutline=1;fillColor=#f8cecc;strokeColor=#b85450;" vertex="1" parent="1">
          <mxGeometry x="1040" y="460" width="40" height="60" as="geometry" />
        </mxCell>
        <mxCell id="-4CsxbUR8en8pWKPjAMw-159" value="A" style="shape=process;whiteSpace=wrap;html=1;backgroundOutline=1;fillColor=#f8cecc;strokeColor=#b85450;" vertex="1" parent="1">
          <mxGeometry x="1080" y="460" width="40" height="60" as="geometry" />
        </mxCell>
        <mxCell id="-4CsxbUR8en8pWKPjAMw-160" value="B" style="shape=process;whiteSpace=wrap;html=1;backgroundOutline=1;fillColor=#f8cecc;strokeColor=#b85450;" vertex="1" parent="1">
          <mxGeometry x="1080" y="520" width="40" height="60" as="geometry" />
        </mxCell>
        <mxCell id="-4CsxbUR8en8pWKPjAMw-161" value="" style="endArrow=none;html=1;rounded=0;" edge="1" parent="1">
          <mxGeometry width="50" height="50" relative="1" as="geometry">
            <mxPoint x="920" y="350" as="sourcePoint" />
            <mxPoint x="920" y="340" as="targetPoint" />
          </mxGeometry>
        </mxCell>
        <mxCell id="-4CsxbUR8en8pWKPjAMw-162" value="" style="endArrow=none;html=1;rounded=0;" edge="1" parent="1">
          <mxGeometry width="50" height="50" relative="1" as="geometry">
            <mxPoint x="960" y="350" as="sourcePoint" />
            <mxPoint x="960" y="340" as="targetPoint" />
          </mxGeometry>
        </mxCell>
        <mxCell id="-4CsxbUR8en8pWKPjAMw-163" value="" style="endArrow=none;html=1;rounded=0;" edge="1" parent="1">
          <mxGeometry width="50" height="50" relative="1" as="geometry">
            <mxPoint x="1040" y="350" as="sourcePoint" />
            <mxPoint x="1040" y="340" as="targetPoint" />
          </mxGeometry>
        </mxCell>
        <mxCell id="-4CsxbUR8en8pWKPjAMw-164" value="" style="endArrow=none;html=1;rounded=0;" edge="1" parent="1">
          <mxGeometry width="50" height="50" relative="1" as="geometry">
            <mxPoint x="1000" y="350" as="sourcePoint" />
            <mxPoint x="1000" y="340" as="targetPoint" />
          </mxGeometry>
        </mxCell>
        <mxCell id="-4CsxbUR8en8pWKPjAMw-165" value="24" style="text;html=1;align=center;verticalAlign=middle;whiteSpace=wrap;rounded=0;" vertex="1" parent="1">
          <mxGeometry x="970.5" y="350" width="60" height="30" as="geometry" />
        </mxCell>
        <mxCell id="-4CsxbUR8en8pWKPjAMw-166" value="25" style="text;html=1;align=center;verticalAlign=middle;whiteSpace=wrap;rounded=0;" vertex="1" parent="1">
          <mxGeometry x="1010" y="350" width="60.5" height="30" as="geometry" />
        </mxCell>
        <mxCell id="-4CsxbUR8en8pWKPjAMw-167" value="23" style="text;html=1;align=center;verticalAlign=middle;whiteSpace=wrap;rounded=0;" vertex="1" parent="1">
          <mxGeometry x="930" y="350" width="60" height="30" as="geometry" />
        </mxCell>
        <mxCell id="-4CsxbUR8en8pWKPjAMw-170" value="22" style="text;html=1;align=center;verticalAlign=middle;whiteSpace=wrap;rounded=0;" vertex="1" parent="1">
          <mxGeometry x="890" y="350" width="60" height="30" as="geometry" />
        </mxCell>
        <mxCell id="-4CsxbUR8en8pWKPjAMw-172" value="" style="endArrow=none;html=1;rounded=0;" edge="1" parent="1">
          <mxGeometry width="50" height="50" relative="1" as="geometry">
            <mxPoint x="1080" y="350" as="sourcePoint" />
            <mxPoint x="1080" y="340" as="targetPoint" />
          </mxGeometry>
        </mxCell>
        <mxCell id="-4CsxbUR8en8pWKPjAMw-173" value="26" style="text;html=1;align=center;verticalAlign=middle;whiteSpace=wrap;rounded=0;" vertex="1" parent="1">
          <mxGeometry x="1050" y="350" width="60.5" height="30" as="geometry" />
        </mxCell>
      </root>
    </mxGraphModel>
  </diagram>
  <diagram id="MhfkcqLCmnKIdvlv2jZg" name="Ej17">
    <mxGraphModel dx="1326" dy="704" grid="1" gridSize="10" guides="1" tooltips="1" connect="1" arrows="1" fold="1" page="1" pageScale="1" pageWidth="827" pageHeight="1169" math="0" shadow="0">
      <root>
        <mxCell id="0" />
        <mxCell id="1" parent="0" />
        <mxCell id="HEv1AWmL4g5QuHiiUZ8u-1" value="" style="shape=process;whiteSpace=wrap;html=1;backgroundOutline=1;fillColor=#d5e8d4;strokeColor=#82b366;" vertex="1" parent="1">
          <mxGeometry x="80" y="1040" width="40" height="60" as="geometry" />
        </mxCell>
        <mxCell id="HEv1AWmL4g5QuHiiUZ8u-2" value="" style="shape=process;whiteSpace=wrap;html=1;backgroundOutline=1;fillColor=#f8cecc;strokeColor=#b85450;" vertex="1" parent="1">
          <mxGeometry x="140" y="1040" width="40" height="60" as="geometry" />
        </mxCell>
        <mxCell id="HEv1AWmL4g5QuHiiUZ8u-3" value="" style="shape=process;whiteSpace=wrap;html=1;backgroundOutline=1;fillColor=#fff2cc;strokeColor=#d6b656;" vertex="1" parent="1">
          <mxGeometry x="200" y="1040" width="40" height="60" as="geometry" />
        </mxCell>
        <mxCell id="HEv1AWmL4g5QuHiiUZ8u-4" value="&lt;u&gt;Ready&lt;/u&gt;" style="text;html=1;align=center;verticalAlign=middle;whiteSpace=wrap;rounded=0;" vertex="1" parent="1">
          <mxGeometry x="70" y="1110" width="60" height="30" as="geometry" />
        </mxCell>
        <mxCell id="HEv1AWmL4g5QuHiiUZ8u-5" value="&lt;u&gt;Blocked&lt;/u&gt;" style="text;html=1;align=center;verticalAlign=middle;whiteSpace=wrap;rounded=0;" vertex="1" parent="1">
          <mxGeometry x="130" y="1110" width="60" height="30" as="geometry" />
        </mxCell>
        <mxCell id="HEv1AWmL4g5QuHiiUZ8u-6" value="&lt;u&gt;Running&lt;/u&gt;" style="text;html=1;align=center;verticalAlign=middle;whiteSpace=wrap;rounded=0;" vertex="1" parent="1">
          <mxGeometry x="190" y="1110" width="60" height="30" as="geometry" />
        </mxCell>
        <mxCell id="hLTHhRPW-I134p4f4QWL-1" value="" style="endArrow=classic;html=1;rounded=0;" edge="1" parent="1">
          <mxGeometry width="50" height="50" relative="1" as="geometry">
            <mxPoint x="60" y="849" as="sourcePoint" />
            <mxPoint x="1170" y="849" as="targetPoint" />
          </mxGeometry>
        </mxCell>
        <mxCell id="hLTHhRPW-I134p4f4QWL-2" value="" style="endArrow=none;html=1;rounded=0;" edge="1" parent="1">
          <mxGeometry width="50" height="50" relative="1" as="geometry">
            <mxPoint x="120" y="859" as="sourcePoint" />
            <mxPoint x="120" y="849" as="targetPoint" />
          </mxGeometry>
        </mxCell>
        <mxCell id="hLTHhRPW-I134p4f4QWL-3" value="" style="endArrow=none;html=1;rounded=0;" edge="1" parent="1" source="hLTHhRPW-I134p4f4QWL-19">
          <mxGeometry width="50" height="50" relative="1" as="geometry">
            <mxPoint x="80" y="859" as="sourcePoint" />
            <mxPoint x="80" y="849" as="targetPoint" />
          </mxGeometry>
        </mxCell>
        <mxCell id="hLTHhRPW-I134p4f4QWL-4" value="" style="endArrow=none;html=1;rounded=0;" edge="1" parent="1">
          <mxGeometry width="50" height="50" relative="1" as="geometry">
            <mxPoint x="200" y="859" as="sourcePoint" />
            <mxPoint x="200" y="849" as="targetPoint" />
          </mxGeometry>
        </mxCell>
        <mxCell id="hLTHhRPW-I134p4f4QWL-5" value="" style="endArrow=none;html=1;rounded=0;" edge="1" parent="1">
          <mxGeometry width="50" height="50" relative="1" as="geometry">
            <mxPoint x="160" y="859" as="sourcePoint" />
            <mxPoint x="160" y="849" as="targetPoint" />
          </mxGeometry>
        </mxCell>
        <mxCell id="hLTHhRPW-I134p4f4QWL-6" value="" style="endArrow=none;html=1;rounded=0;" edge="1" parent="1">
          <mxGeometry width="50" height="50" relative="1" as="geometry">
            <mxPoint x="279.5" y="859" as="sourcePoint" />
            <mxPoint x="279.5" y="849" as="targetPoint" />
          </mxGeometry>
        </mxCell>
        <mxCell id="hLTHhRPW-I134p4f4QWL-7" value="" style="endArrow=none;html=1;rounded=0;" edge="1" parent="1">
          <mxGeometry width="50" height="50" relative="1" as="geometry">
            <mxPoint x="239.5" y="859" as="sourcePoint" />
            <mxPoint x="239.5" y="849" as="targetPoint" />
          </mxGeometry>
        </mxCell>
        <mxCell id="hLTHhRPW-I134p4f4QWL-8" value="" style="endArrow=none;html=1;rounded=0;" edge="1" parent="1">
          <mxGeometry width="50" height="50" relative="1" as="geometry">
            <mxPoint x="359.5" y="859" as="sourcePoint" />
            <mxPoint x="359.5" y="849" as="targetPoint" />
          </mxGeometry>
        </mxCell>
        <mxCell id="hLTHhRPW-I134p4f4QWL-9" value="" style="endArrow=none;html=1;rounded=0;" edge="1" parent="1">
          <mxGeometry width="50" height="50" relative="1" as="geometry">
            <mxPoint x="319.5" y="859" as="sourcePoint" />
            <mxPoint x="319.5" y="849" as="targetPoint" />
          </mxGeometry>
        </mxCell>
        <mxCell id="hLTHhRPW-I134p4f4QWL-10" value="" style="endArrow=none;html=1;rounded=0;" edge="1" parent="1">
          <mxGeometry width="50" height="50" relative="1" as="geometry">
            <mxPoint x="440" y="859" as="sourcePoint" />
            <mxPoint x="440" y="849" as="targetPoint" />
          </mxGeometry>
        </mxCell>
        <mxCell id="hLTHhRPW-I134p4f4QWL-11" value="" style="endArrow=none;html=1;rounded=0;" edge="1" parent="1">
          <mxGeometry width="50" height="50" relative="1" as="geometry">
            <mxPoint x="400" y="859" as="sourcePoint" />
            <mxPoint x="400" y="849" as="targetPoint" />
          </mxGeometry>
        </mxCell>
        <mxCell id="hLTHhRPW-I134p4f4QWL-12" value="" style="endArrow=none;html=1;rounded=0;" edge="1" parent="1">
          <mxGeometry width="50" height="50" relative="1" as="geometry">
            <mxPoint x="520" y="859" as="sourcePoint" />
            <mxPoint x="520" y="849" as="targetPoint" />
          </mxGeometry>
        </mxCell>
        <mxCell id="hLTHhRPW-I134p4f4QWL-13" value="" style="endArrow=none;html=1;rounded=0;" edge="1" parent="1">
          <mxGeometry width="50" height="50" relative="1" as="geometry">
            <mxPoint x="480" y="859" as="sourcePoint" />
            <mxPoint x="480" y="849" as="targetPoint" />
          </mxGeometry>
        </mxCell>
        <mxCell id="hLTHhRPW-I134p4f4QWL-14" value="" style="endArrow=none;html=1;rounded=0;" edge="1" parent="1">
          <mxGeometry width="50" height="50" relative="1" as="geometry">
            <mxPoint x="599.5" y="859" as="sourcePoint" />
            <mxPoint x="599.5" y="849" as="targetPoint" />
          </mxGeometry>
        </mxCell>
        <mxCell id="hLTHhRPW-I134p4f4QWL-15" value="" style="endArrow=none;html=1;rounded=0;" edge="1" parent="1">
          <mxGeometry width="50" height="50" relative="1" as="geometry">
            <mxPoint x="559.5" y="859" as="sourcePoint" />
            <mxPoint x="559.5" y="849" as="targetPoint" />
          </mxGeometry>
        </mxCell>
        <mxCell id="hLTHhRPW-I134p4f4QWL-16" value="" style="endArrow=none;html=1;rounded=0;" edge="1" parent="1">
          <mxGeometry width="50" height="50" relative="1" as="geometry">
            <mxPoint x="679.5" y="859" as="sourcePoint" />
            <mxPoint x="679.5" y="849" as="targetPoint" />
          </mxGeometry>
        </mxCell>
        <mxCell id="hLTHhRPW-I134p4f4QWL-17" value="" style="endArrow=none;html=1;rounded=0;" edge="1" parent="1">
          <mxGeometry width="50" height="50" relative="1" as="geometry">
            <mxPoint x="639.5" y="859" as="sourcePoint" />
            <mxPoint x="639.5" y="849" as="targetPoint" />
          </mxGeometry>
        </mxCell>
        <mxCell id="hLTHhRPW-I134p4f4QWL-18" value="" style="endArrow=none;html=1;rounded=0;" edge="1" parent="1" target="hLTHhRPW-I134p4f4QWL-19">
          <mxGeometry width="50" height="50" relative="1" as="geometry">
            <mxPoint x="80" y="859" as="sourcePoint" />
            <mxPoint x="80" y="849" as="targetPoint" />
          </mxGeometry>
        </mxCell>
        <mxCell id="hLTHhRPW-I134p4f4QWL-19" value="0" style="text;html=1;align=center;verticalAlign=middle;whiteSpace=wrap;rounded=0;" vertex="1" parent="1">
          <mxGeometry x="50" y="859" width="60" height="30" as="geometry" />
        </mxCell>
        <mxCell id="hLTHhRPW-I134p4f4QWL-20" value="1" style="text;html=1;align=center;verticalAlign=middle;whiteSpace=wrap;rounded=0;" vertex="1" parent="1">
          <mxGeometry x="90" y="859" width="60" height="30" as="geometry" />
        </mxCell>
        <mxCell id="hLTHhRPW-I134p4f4QWL-21" value="2" style="text;html=1;align=center;verticalAlign=middle;whiteSpace=wrap;rounded=0;" vertex="1" parent="1">
          <mxGeometry x="130" y="859" width="60" height="30" as="geometry" />
        </mxCell>
        <mxCell id="hLTHhRPW-I134p4f4QWL-22" value="3" style="text;html=1;align=center;verticalAlign=middle;whiteSpace=wrap;rounded=0;" vertex="1" parent="1">
          <mxGeometry x="170" y="859" width="60" height="30" as="geometry" />
        </mxCell>
        <mxCell id="hLTHhRPW-I134p4f4QWL-23" value="4" style="text;html=1;align=center;verticalAlign=middle;whiteSpace=wrap;rounded=0;" vertex="1" parent="1">
          <mxGeometry x="210" y="859" width="60" height="30" as="geometry" />
        </mxCell>
        <mxCell id="hLTHhRPW-I134p4f4QWL-24" value="5" style="text;html=1;align=center;verticalAlign=middle;whiteSpace=wrap;rounded=0;" vertex="1" parent="1">
          <mxGeometry x="250" y="859" width="60" height="30" as="geometry" />
        </mxCell>
        <mxCell id="hLTHhRPW-I134p4f4QWL-25" value="6" style="text;html=1;align=center;verticalAlign=middle;whiteSpace=wrap;rounded=0;" vertex="1" parent="1">
          <mxGeometry x="290" y="859" width="60" height="30" as="geometry" />
        </mxCell>
        <mxCell id="hLTHhRPW-I134p4f4QWL-26" value="7" style="text;html=1;align=center;verticalAlign=middle;whiteSpace=wrap;rounded=0;" vertex="1" parent="1">
          <mxGeometry x="330" y="859" width="60" height="30" as="geometry" />
        </mxCell>
        <mxCell id="hLTHhRPW-I134p4f4QWL-27" value="8" style="text;html=1;align=center;verticalAlign=middle;whiteSpace=wrap;rounded=0;" vertex="1" parent="1">
          <mxGeometry x="370" y="859" width="60" height="30" as="geometry" />
        </mxCell>
        <mxCell id="hLTHhRPW-I134p4f4QWL-28" value="9" style="text;html=1;align=center;verticalAlign=middle;whiteSpace=wrap;rounded=0;" vertex="1" parent="1">
          <mxGeometry x="410" y="859" width="60" height="30" as="geometry" />
        </mxCell>
        <mxCell id="hLTHhRPW-I134p4f4QWL-29" value="10" style="text;html=1;align=center;verticalAlign=middle;whiteSpace=wrap;rounded=0;" vertex="1" parent="1">
          <mxGeometry x="450" y="859" width="60" height="30" as="geometry" />
        </mxCell>
        <mxCell id="hLTHhRPW-I134p4f4QWL-30" value="11" style="text;html=1;align=center;verticalAlign=middle;whiteSpace=wrap;rounded=0;" vertex="1" parent="1">
          <mxGeometry x="490" y="859" width="60" height="30" as="geometry" />
        </mxCell>
        <mxCell id="hLTHhRPW-I134p4f4QWL-31" value="12" style="text;html=1;align=center;verticalAlign=middle;whiteSpace=wrap;rounded=0;" vertex="1" parent="1">
          <mxGeometry x="530" y="859" width="60" height="30" as="geometry" />
        </mxCell>
        <mxCell id="hLTHhRPW-I134p4f4QWL-32" value="13" style="text;html=1;align=center;verticalAlign=middle;whiteSpace=wrap;rounded=0;" vertex="1" parent="1">
          <mxGeometry x="570" y="859" width="60" height="30" as="geometry" />
        </mxCell>
        <mxCell id="hLTHhRPW-I134p4f4QWL-33" value="14" style="text;html=1;align=center;verticalAlign=middle;whiteSpace=wrap;rounded=0;" vertex="1" parent="1">
          <mxGeometry x="610" y="859" width="60" height="30" as="geometry" />
        </mxCell>
        <mxCell id="hLTHhRPW-I134p4f4QWL-34" value="15" style="text;html=1;align=center;verticalAlign=middle;whiteSpace=wrap;rounded=0;" vertex="1" parent="1">
          <mxGeometry x="650" y="859" width="60" height="30" as="geometry" />
        </mxCell>
        <mxCell id="hLTHhRPW-I134p4f4QWL-35" value="" style="endArrow=none;html=1;rounded=0;" edge="1" parent="1">
          <mxGeometry width="50" height="50" relative="1" as="geometry">
            <mxPoint x="720" y="859" as="sourcePoint" />
            <mxPoint x="720" y="849" as="targetPoint" />
          </mxGeometry>
        </mxCell>
        <mxCell id="hLTHhRPW-I134p4f4QWL-36" value="" style="endArrow=none;html=1;rounded=0;" edge="1" parent="1">
          <mxGeometry width="50" height="50" relative="1" as="geometry">
            <mxPoint x="800" y="859" as="sourcePoint" />
            <mxPoint x="800" y="849" as="targetPoint" />
          </mxGeometry>
        </mxCell>
        <mxCell id="hLTHhRPW-I134p4f4QWL-37" value="" style="endArrow=none;html=1;rounded=0;" edge="1" parent="1">
          <mxGeometry width="50" height="50" relative="1" as="geometry">
            <mxPoint x="760" y="859" as="sourcePoint" />
            <mxPoint x="760" y="849" as="targetPoint" />
          </mxGeometry>
        </mxCell>
        <mxCell id="hLTHhRPW-I134p4f4QWL-38" value="17" style="text;html=1;align=center;verticalAlign=middle;whiteSpace=wrap;rounded=0;" vertex="1" parent="1">
          <mxGeometry x="730.5" y="859" width="60" height="30" as="geometry" />
        </mxCell>
        <mxCell id="hLTHhRPW-I134p4f4QWL-39" value="18" style="text;html=1;align=center;verticalAlign=middle;whiteSpace=wrap;rounded=0;" vertex="1" parent="1">
          <mxGeometry x="770.5" y="859" width="60" height="30" as="geometry" />
        </mxCell>
        <mxCell id="hLTHhRPW-I134p4f4QWL-40" value="" style="endArrow=none;html=1;rounded=0;" edge="1" parent="1">
          <mxGeometry width="50" height="50" relative="1" as="geometry">
            <mxPoint x="840" y="859" as="sourcePoint" />
            <mxPoint x="840" y="849" as="targetPoint" />
          </mxGeometry>
        </mxCell>
        <mxCell id="hLTHhRPW-I134p4f4QWL-41" value="" style="endArrow=none;html=1;rounded=0;" edge="1" parent="1">
          <mxGeometry width="50" height="50" relative="1" as="geometry">
            <mxPoint x="920" y="859" as="sourcePoint" />
            <mxPoint x="920" y="849" as="targetPoint" />
          </mxGeometry>
        </mxCell>
        <mxCell id="hLTHhRPW-I134p4f4QWL-42" value="" style="endArrow=none;html=1;rounded=0;" edge="1" parent="1">
          <mxGeometry width="50" height="50" relative="1" as="geometry">
            <mxPoint x="880" y="859" as="sourcePoint" />
            <mxPoint x="880" y="849" as="targetPoint" />
          </mxGeometry>
        </mxCell>
        <mxCell id="hLTHhRPW-I134p4f4QWL-43" value="20" style="text;html=1;align=center;verticalAlign=middle;whiteSpace=wrap;rounded=0;" vertex="1" parent="1">
          <mxGeometry x="850.5" y="859" width="60" height="30" as="geometry" />
        </mxCell>
        <mxCell id="hLTHhRPW-I134p4f4QWL-44" value="21" style="text;html=1;align=center;verticalAlign=middle;whiteSpace=wrap;rounded=0;" vertex="1" parent="1">
          <mxGeometry x="890" y="859" width="60.5" height="30" as="geometry" />
        </mxCell>
        <mxCell id="hLTHhRPW-I134p4f4QWL-45" value="16" style="text;html=1;align=center;verticalAlign=middle;whiteSpace=wrap;rounded=0;" vertex="1" parent="1">
          <mxGeometry x="690" y="859" width="60" height="30" as="geometry" />
        </mxCell>
        <mxCell id="hLTHhRPW-I134p4f4QWL-46" value="19" style="text;html=1;align=center;verticalAlign=middle;whiteSpace=wrap;rounded=0;" vertex="1" parent="1">
          <mxGeometry x="810" y="859" width="60" height="30" as="geometry" />
        </mxCell>
        <mxCell id="hLTHhRPW-I134p4f4QWL-47" value="" style="endArrow=none;html=1;rounded=0;" edge="1" parent="1">
          <mxGeometry width="50" height="50" relative="1" as="geometry">
            <mxPoint x="960" y="859" as="sourcePoint" />
            <mxPoint x="960" y="849" as="targetPoint" />
          </mxGeometry>
        </mxCell>
        <mxCell id="hLTHhRPW-I134p4f4QWL-48" value="" style="endArrow=none;html=1;rounded=0;" edge="1" parent="1">
          <mxGeometry width="50" height="50" relative="1" as="geometry">
            <mxPoint x="1000" y="859" as="sourcePoint" />
            <mxPoint x="1000" y="849" as="targetPoint" />
          </mxGeometry>
        </mxCell>
        <mxCell id="hLTHhRPW-I134p4f4QWL-49" value="" style="endArrow=none;html=1;rounded=0;" edge="1" parent="1">
          <mxGeometry width="50" height="50" relative="1" as="geometry">
            <mxPoint x="1080" y="859" as="sourcePoint" />
            <mxPoint x="1080" y="849" as="targetPoint" />
          </mxGeometry>
        </mxCell>
        <mxCell id="hLTHhRPW-I134p4f4QWL-50" value="" style="endArrow=none;html=1;rounded=0;" edge="1" parent="1">
          <mxGeometry width="50" height="50" relative="1" as="geometry">
            <mxPoint x="1040" y="859" as="sourcePoint" />
            <mxPoint x="1040" y="849" as="targetPoint" />
          </mxGeometry>
        </mxCell>
        <mxCell id="hLTHhRPW-I134p4f4QWL-51" value="24" style="text;html=1;align=center;verticalAlign=middle;whiteSpace=wrap;rounded=0;" vertex="1" parent="1">
          <mxGeometry x="1010.5" y="859" width="60" height="30" as="geometry" />
        </mxCell>
        <mxCell id="hLTHhRPW-I134p4f4QWL-52" value="25" style="text;html=1;align=center;verticalAlign=middle;whiteSpace=wrap;rounded=0;" vertex="1" parent="1">
          <mxGeometry x="1050" y="859" width="60.5" height="30" as="geometry" />
        </mxCell>
        <mxCell id="hLTHhRPW-I134p4f4QWL-53" value="23" style="text;html=1;align=center;verticalAlign=middle;whiteSpace=wrap;rounded=0;" vertex="1" parent="1">
          <mxGeometry x="970" y="859" width="60" height="30" as="geometry" />
        </mxCell>
        <mxCell id="hLTHhRPW-I134p4f4QWL-54" value="22" style="text;html=1;align=center;verticalAlign=middle;whiteSpace=wrap;rounded=0;" vertex="1" parent="1">
          <mxGeometry x="930" y="859" width="60" height="30" as="geometry" />
        </mxCell>
        <mxCell id="hLTHhRPW-I134p4f4QWL-55" value="" style="endArrow=none;html=1;rounded=0;" edge="1" parent="1">
          <mxGeometry width="50" height="50" relative="1" as="geometry">
            <mxPoint x="1120" y="859" as="sourcePoint" />
            <mxPoint x="1120" y="849" as="targetPoint" />
          </mxGeometry>
        </mxCell>
        <mxCell id="hLTHhRPW-I134p4f4QWL-56" value="26" style="text;html=1;align=center;verticalAlign=middle;whiteSpace=wrap;rounded=0;" vertex="1" parent="1">
          <mxGeometry x="1090" y="859" width="60.5" height="30" as="geometry" />
        </mxCell>
        <mxCell id="hLTHhRPW-I134p4f4QWL-57" value="" style="endArrow=none;dashed=1;html=1;dashPattern=1 3;strokeWidth=2;rounded=0;" edge="1" parent="1">
          <mxGeometry width="50" height="50" relative="1" as="geometry">
            <mxPoint x="60" y="790" as="sourcePoint" />
            <mxPoint x="1160" y="790" as="targetPoint" />
          </mxGeometry>
        </mxCell>
        <mxCell id="hLTHhRPW-I134p4f4QWL-123" value="Q8" style="text;html=1;align=center;verticalAlign=middle;resizable=0;points=[];autosize=1;strokeColor=none;fillColor=none;" vertex="1" parent="1">
          <mxGeometry x="10" y="800" width="40" height="30" as="geometry" />
        </mxCell>
        <mxCell id="hLTHhRPW-I134p4f4QWL-133" value="" style="endArrow=classic;html=1;rounded=0;" edge="1" parent="1">
          <mxGeometry width="50" height="50" relative="1" as="geometry">
            <mxPoint x="60" y="699" as="sourcePoint" />
            <mxPoint x="1170" y="699" as="targetPoint" />
          </mxGeometry>
        </mxCell>
        <mxCell id="hLTHhRPW-I134p4f4QWL-134" value="" style="endArrow=none;html=1;rounded=0;" edge="1" parent="1">
          <mxGeometry width="50" height="50" relative="1" as="geometry">
            <mxPoint x="120" y="709" as="sourcePoint" />
            <mxPoint x="120" y="699" as="targetPoint" />
          </mxGeometry>
        </mxCell>
        <mxCell id="hLTHhRPW-I134p4f4QWL-135" value="" style="endArrow=none;html=1;rounded=0;" edge="1" parent="1" source="hLTHhRPW-I134p4f4QWL-151">
          <mxGeometry width="50" height="50" relative="1" as="geometry">
            <mxPoint x="80" y="709" as="sourcePoint" />
            <mxPoint x="80" y="699" as="targetPoint" />
          </mxGeometry>
        </mxCell>
        <mxCell id="hLTHhRPW-I134p4f4QWL-136" value="" style="endArrow=none;html=1;rounded=0;" edge="1" parent="1">
          <mxGeometry width="50" height="50" relative="1" as="geometry">
            <mxPoint x="200" y="709" as="sourcePoint" />
            <mxPoint x="200" y="699" as="targetPoint" />
          </mxGeometry>
        </mxCell>
        <mxCell id="hLTHhRPW-I134p4f4QWL-137" value="" style="endArrow=none;html=1;rounded=0;" edge="1" parent="1">
          <mxGeometry width="50" height="50" relative="1" as="geometry">
            <mxPoint x="160" y="709" as="sourcePoint" />
            <mxPoint x="160" y="699" as="targetPoint" />
          </mxGeometry>
        </mxCell>
        <mxCell id="hLTHhRPW-I134p4f4QWL-138" value="" style="endArrow=none;html=1;rounded=0;" edge="1" parent="1">
          <mxGeometry width="50" height="50" relative="1" as="geometry">
            <mxPoint x="279.5" y="709" as="sourcePoint" />
            <mxPoint x="279.5" y="699" as="targetPoint" />
          </mxGeometry>
        </mxCell>
        <mxCell id="hLTHhRPW-I134p4f4QWL-139" value="" style="endArrow=none;html=1;rounded=0;" edge="1" parent="1">
          <mxGeometry width="50" height="50" relative="1" as="geometry">
            <mxPoint x="239.5" y="709" as="sourcePoint" />
            <mxPoint x="239.5" y="699" as="targetPoint" />
          </mxGeometry>
        </mxCell>
        <mxCell id="hLTHhRPW-I134p4f4QWL-140" value="" style="endArrow=none;html=1;rounded=0;" edge="1" parent="1">
          <mxGeometry width="50" height="50" relative="1" as="geometry">
            <mxPoint x="359.5" y="709" as="sourcePoint" />
            <mxPoint x="359.5" y="699" as="targetPoint" />
          </mxGeometry>
        </mxCell>
        <mxCell id="hLTHhRPW-I134p4f4QWL-141" value="" style="endArrow=none;html=1;rounded=0;" edge="1" parent="1">
          <mxGeometry width="50" height="50" relative="1" as="geometry">
            <mxPoint x="319.5" y="709" as="sourcePoint" />
            <mxPoint x="319.5" y="699" as="targetPoint" />
          </mxGeometry>
        </mxCell>
        <mxCell id="hLTHhRPW-I134p4f4QWL-142" value="" style="endArrow=none;html=1;rounded=0;" edge="1" parent="1">
          <mxGeometry width="50" height="50" relative="1" as="geometry">
            <mxPoint x="440" y="709" as="sourcePoint" />
            <mxPoint x="440" y="699" as="targetPoint" />
          </mxGeometry>
        </mxCell>
        <mxCell id="hLTHhRPW-I134p4f4QWL-143" value="" style="endArrow=none;html=1;rounded=0;" edge="1" parent="1">
          <mxGeometry width="50" height="50" relative="1" as="geometry">
            <mxPoint x="400" y="709" as="sourcePoint" />
            <mxPoint x="400" y="699" as="targetPoint" />
          </mxGeometry>
        </mxCell>
        <mxCell id="hLTHhRPW-I134p4f4QWL-144" value="" style="endArrow=none;html=1;rounded=0;" edge="1" parent="1">
          <mxGeometry width="50" height="50" relative="1" as="geometry">
            <mxPoint x="520" y="709" as="sourcePoint" />
            <mxPoint x="520" y="699" as="targetPoint" />
          </mxGeometry>
        </mxCell>
        <mxCell id="hLTHhRPW-I134p4f4QWL-145" value="" style="endArrow=none;html=1;rounded=0;" edge="1" parent="1">
          <mxGeometry width="50" height="50" relative="1" as="geometry">
            <mxPoint x="480" y="709" as="sourcePoint" />
            <mxPoint x="480" y="699" as="targetPoint" />
          </mxGeometry>
        </mxCell>
        <mxCell id="hLTHhRPW-I134p4f4QWL-146" value="" style="endArrow=none;html=1;rounded=0;" edge="1" parent="1">
          <mxGeometry width="50" height="50" relative="1" as="geometry">
            <mxPoint x="599.5" y="709" as="sourcePoint" />
            <mxPoint x="599.5" y="699" as="targetPoint" />
          </mxGeometry>
        </mxCell>
        <mxCell id="hLTHhRPW-I134p4f4QWL-147" value="" style="endArrow=none;html=1;rounded=0;" edge="1" parent="1">
          <mxGeometry width="50" height="50" relative="1" as="geometry">
            <mxPoint x="559.5" y="709" as="sourcePoint" />
            <mxPoint x="559.5" y="699" as="targetPoint" />
          </mxGeometry>
        </mxCell>
        <mxCell id="hLTHhRPW-I134p4f4QWL-148" value="" style="endArrow=none;html=1;rounded=0;" edge="1" parent="1">
          <mxGeometry width="50" height="50" relative="1" as="geometry">
            <mxPoint x="679.5" y="709" as="sourcePoint" />
            <mxPoint x="679.5" y="699" as="targetPoint" />
          </mxGeometry>
        </mxCell>
        <mxCell id="hLTHhRPW-I134p4f4QWL-149" value="" style="endArrow=none;html=1;rounded=0;" edge="1" parent="1">
          <mxGeometry width="50" height="50" relative="1" as="geometry">
            <mxPoint x="639.5" y="709" as="sourcePoint" />
            <mxPoint x="639.5" y="699" as="targetPoint" />
          </mxGeometry>
        </mxCell>
        <mxCell id="hLTHhRPW-I134p4f4QWL-150" value="" style="endArrow=none;html=1;rounded=0;" edge="1" parent="1" target="hLTHhRPW-I134p4f4QWL-151">
          <mxGeometry width="50" height="50" relative="1" as="geometry">
            <mxPoint x="80" y="709" as="sourcePoint" />
            <mxPoint x="80" y="699" as="targetPoint" />
          </mxGeometry>
        </mxCell>
        <mxCell id="hLTHhRPW-I134p4f4QWL-151" value="0" style="text;html=1;align=center;verticalAlign=middle;whiteSpace=wrap;rounded=0;" vertex="1" parent="1">
          <mxGeometry x="50" y="709" width="60" height="30" as="geometry" />
        </mxCell>
        <mxCell id="hLTHhRPW-I134p4f4QWL-152" value="1" style="text;html=1;align=center;verticalAlign=middle;whiteSpace=wrap;rounded=0;" vertex="1" parent="1">
          <mxGeometry x="90" y="709" width="60" height="30" as="geometry" />
        </mxCell>
        <mxCell id="hLTHhRPW-I134p4f4QWL-153" value="2" style="text;html=1;align=center;verticalAlign=middle;whiteSpace=wrap;rounded=0;" vertex="1" parent="1">
          <mxGeometry x="130" y="709" width="60" height="30" as="geometry" />
        </mxCell>
        <mxCell id="hLTHhRPW-I134p4f4QWL-154" value="3" style="text;html=1;align=center;verticalAlign=middle;whiteSpace=wrap;rounded=0;" vertex="1" parent="1">
          <mxGeometry x="170" y="709" width="60" height="30" as="geometry" />
        </mxCell>
        <mxCell id="hLTHhRPW-I134p4f4QWL-155" value="4" style="text;html=1;align=center;verticalAlign=middle;whiteSpace=wrap;rounded=0;" vertex="1" parent="1">
          <mxGeometry x="210" y="709" width="60" height="30" as="geometry" />
        </mxCell>
        <mxCell id="hLTHhRPW-I134p4f4QWL-156" value="5" style="text;html=1;align=center;verticalAlign=middle;whiteSpace=wrap;rounded=0;" vertex="1" parent="1">
          <mxGeometry x="250" y="709" width="60" height="30" as="geometry" />
        </mxCell>
        <mxCell id="hLTHhRPW-I134p4f4QWL-157" value="6" style="text;html=1;align=center;verticalAlign=middle;whiteSpace=wrap;rounded=0;" vertex="1" parent="1">
          <mxGeometry x="290" y="709" width="60" height="30" as="geometry" />
        </mxCell>
        <mxCell id="hLTHhRPW-I134p4f4QWL-158" value="7" style="text;html=1;align=center;verticalAlign=middle;whiteSpace=wrap;rounded=0;" vertex="1" parent="1">
          <mxGeometry x="330" y="709" width="60" height="30" as="geometry" />
        </mxCell>
        <mxCell id="hLTHhRPW-I134p4f4QWL-159" value="8" style="text;html=1;align=center;verticalAlign=middle;whiteSpace=wrap;rounded=0;" vertex="1" parent="1">
          <mxGeometry x="370" y="709" width="60" height="30" as="geometry" />
        </mxCell>
        <mxCell id="hLTHhRPW-I134p4f4QWL-160" value="9" style="text;html=1;align=center;verticalAlign=middle;whiteSpace=wrap;rounded=0;" vertex="1" parent="1">
          <mxGeometry x="410" y="709" width="60" height="30" as="geometry" />
        </mxCell>
        <mxCell id="hLTHhRPW-I134p4f4QWL-161" value="10" style="text;html=1;align=center;verticalAlign=middle;whiteSpace=wrap;rounded=0;" vertex="1" parent="1">
          <mxGeometry x="450" y="709" width="60" height="30" as="geometry" />
        </mxCell>
        <mxCell id="hLTHhRPW-I134p4f4QWL-162" value="11" style="text;html=1;align=center;verticalAlign=middle;whiteSpace=wrap;rounded=0;" vertex="1" parent="1">
          <mxGeometry x="490" y="709" width="60" height="30" as="geometry" />
        </mxCell>
        <mxCell id="hLTHhRPW-I134p4f4QWL-163" value="12" style="text;html=1;align=center;verticalAlign=middle;whiteSpace=wrap;rounded=0;" vertex="1" parent="1">
          <mxGeometry x="530" y="709" width="60" height="30" as="geometry" />
        </mxCell>
        <mxCell id="hLTHhRPW-I134p4f4QWL-164" value="13" style="text;html=1;align=center;verticalAlign=middle;whiteSpace=wrap;rounded=0;" vertex="1" parent="1">
          <mxGeometry x="570" y="709" width="60" height="30" as="geometry" />
        </mxCell>
        <mxCell id="hLTHhRPW-I134p4f4QWL-165" value="14" style="text;html=1;align=center;verticalAlign=middle;whiteSpace=wrap;rounded=0;" vertex="1" parent="1">
          <mxGeometry x="610" y="709" width="60" height="30" as="geometry" />
        </mxCell>
        <mxCell id="hLTHhRPW-I134p4f4QWL-166" value="15" style="text;html=1;align=center;verticalAlign=middle;whiteSpace=wrap;rounded=0;" vertex="1" parent="1">
          <mxGeometry x="650" y="709" width="60" height="30" as="geometry" />
        </mxCell>
        <mxCell id="hLTHhRPW-I134p4f4QWL-167" value="" style="endArrow=none;html=1;rounded=0;" edge="1" parent="1">
          <mxGeometry width="50" height="50" relative="1" as="geometry">
            <mxPoint x="720" y="709" as="sourcePoint" />
            <mxPoint x="720" y="699" as="targetPoint" />
          </mxGeometry>
        </mxCell>
        <mxCell id="hLTHhRPW-I134p4f4QWL-168" value="" style="endArrow=none;html=1;rounded=0;" edge="1" parent="1">
          <mxGeometry width="50" height="50" relative="1" as="geometry">
            <mxPoint x="800" y="709" as="sourcePoint" />
            <mxPoint x="800" y="699" as="targetPoint" />
          </mxGeometry>
        </mxCell>
        <mxCell id="hLTHhRPW-I134p4f4QWL-169" value="" style="endArrow=none;html=1;rounded=0;" edge="1" parent="1">
          <mxGeometry width="50" height="50" relative="1" as="geometry">
            <mxPoint x="760" y="709" as="sourcePoint" />
            <mxPoint x="760" y="699" as="targetPoint" />
          </mxGeometry>
        </mxCell>
        <mxCell id="hLTHhRPW-I134p4f4QWL-170" value="17" style="text;html=1;align=center;verticalAlign=middle;whiteSpace=wrap;rounded=0;" vertex="1" parent="1">
          <mxGeometry x="730.5" y="709" width="60" height="30" as="geometry" />
        </mxCell>
        <mxCell id="hLTHhRPW-I134p4f4QWL-171" value="18" style="text;html=1;align=center;verticalAlign=middle;whiteSpace=wrap;rounded=0;" vertex="1" parent="1">
          <mxGeometry x="770.5" y="709" width="60" height="30" as="geometry" />
        </mxCell>
        <mxCell id="hLTHhRPW-I134p4f4QWL-172" value="" style="endArrow=none;html=1;rounded=0;" edge="1" parent="1">
          <mxGeometry width="50" height="50" relative="1" as="geometry">
            <mxPoint x="840" y="709" as="sourcePoint" />
            <mxPoint x="840" y="699" as="targetPoint" />
          </mxGeometry>
        </mxCell>
        <mxCell id="hLTHhRPW-I134p4f4QWL-173" value="" style="endArrow=none;html=1;rounded=0;" edge="1" parent="1">
          <mxGeometry width="50" height="50" relative="1" as="geometry">
            <mxPoint x="920" y="709" as="sourcePoint" />
            <mxPoint x="920" y="699" as="targetPoint" />
          </mxGeometry>
        </mxCell>
        <mxCell id="hLTHhRPW-I134p4f4QWL-174" value="" style="endArrow=none;html=1;rounded=0;" edge="1" parent="1">
          <mxGeometry width="50" height="50" relative="1" as="geometry">
            <mxPoint x="880" y="709" as="sourcePoint" />
            <mxPoint x="880" y="699" as="targetPoint" />
          </mxGeometry>
        </mxCell>
        <mxCell id="hLTHhRPW-I134p4f4QWL-175" value="20" style="text;html=1;align=center;verticalAlign=middle;whiteSpace=wrap;rounded=0;" vertex="1" parent="1">
          <mxGeometry x="850.5" y="709" width="60" height="30" as="geometry" />
        </mxCell>
        <mxCell id="hLTHhRPW-I134p4f4QWL-176" value="21" style="text;html=1;align=center;verticalAlign=middle;whiteSpace=wrap;rounded=0;" vertex="1" parent="1">
          <mxGeometry x="890" y="709" width="60.5" height="30" as="geometry" />
        </mxCell>
        <mxCell id="hLTHhRPW-I134p4f4QWL-177" value="16" style="text;html=1;align=center;verticalAlign=middle;whiteSpace=wrap;rounded=0;" vertex="1" parent="1">
          <mxGeometry x="690" y="709" width="60" height="30" as="geometry" />
        </mxCell>
        <mxCell id="hLTHhRPW-I134p4f4QWL-178" value="19" style="text;html=1;align=center;verticalAlign=middle;whiteSpace=wrap;rounded=0;" vertex="1" parent="1">
          <mxGeometry x="810" y="709" width="60" height="30" as="geometry" />
        </mxCell>
        <mxCell id="hLTHhRPW-I134p4f4QWL-179" value="" style="endArrow=none;html=1;rounded=0;" edge="1" parent="1">
          <mxGeometry width="50" height="50" relative="1" as="geometry">
            <mxPoint x="960" y="709" as="sourcePoint" />
            <mxPoint x="960" y="699" as="targetPoint" />
          </mxGeometry>
        </mxCell>
        <mxCell id="hLTHhRPW-I134p4f4QWL-180" value="" style="endArrow=none;html=1;rounded=0;" edge="1" parent="1">
          <mxGeometry width="50" height="50" relative="1" as="geometry">
            <mxPoint x="1000" y="709" as="sourcePoint" />
            <mxPoint x="1000" y="699" as="targetPoint" />
          </mxGeometry>
        </mxCell>
        <mxCell id="hLTHhRPW-I134p4f4QWL-181" value="" style="endArrow=none;html=1;rounded=0;" edge="1" parent="1">
          <mxGeometry width="50" height="50" relative="1" as="geometry">
            <mxPoint x="1080" y="709" as="sourcePoint" />
            <mxPoint x="1080" y="699" as="targetPoint" />
          </mxGeometry>
        </mxCell>
        <mxCell id="hLTHhRPW-I134p4f4QWL-182" value="" style="endArrow=none;html=1;rounded=0;" edge="1" parent="1">
          <mxGeometry width="50" height="50" relative="1" as="geometry">
            <mxPoint x="1040" y="709" as="sourcePoint" />
            <mxPoint x="1040" y="699" as="targetPoint" />
          </mxGeometry>
        </mxCell>
        <mxCell id="hLTHhRPW-I134p4f4QWL-183" value="24" style="text;html=1;align=center;verticalAlign=middle;whiteSpace=wrap;rounded=0;" vertex="1" parent="1">
          <mxGeometry x="1010.5" y="709" width="60" height="30" as="geometry" />
        </mxCell>
        <mxCell id="hLTHhRPW-I134p4f4QWL-184" value="25" style="text;html=1;align=center;verticalAlign=middle;whiteSpace=wrap;rounded=0;" vertex="1" parent="1">
          <mxGeometry x="1050" y="709" width="60.5" height="30" as="geometry" />
        </mxCell>
        <mxCell id="hLTHhRPW-I134p4f4QWL-185" value="23" style="text;html=1;align=center;verticalAlign=middle;whiteSpace=wrap;rounded=0;" vertex="1" parent="1">
          <mxGeometry x="970" y="709" width="60" height="30" as="geometry" />
        </mxCell>
        <mxCell id="hLTHhRPW-I134p4f4QWL-186" value="22" style="text;html=1;align=center;verticalAlign=middle;whiteSpace=wrap;rounded=0;" vertex="1" parent="1">
          <mxGeometry x="930" y="709" width="60" height="30" as="geometry" />
        </mxCell>
        <mxCell id="hLTHhRPW-I134p4f4QWL-187" value="" style="endArrow=none;html=1;rounded=0;" edge="1" parent="1">
          <mxGeometry width="50" height="50" relative="1" as="geometry">
            <mxPoint x="1120" y="709" as="sourcePoint" />
            <mxPoint x="1120" y="699" as="targetPoint" />
          </mxGeometry>
        </mxCell>
        <mxCell id="hLTHhRPW-I134p4f4QWL-188" value="26" style="text;html=1;align=center;verticalAlign=middle;whiteSpace=wrap;rounded=0;" vertex="1" parent="1">
          <mxGeometry x="1090" y="709" width="60.5" height="30" as="geometry" />
        </mxCell>
        <mxCell id="hLTHhRPW-I134p4f4QWL-189" value="" style="endArrow=none;dashed=1;html=1;dashPattern=1 3;strokeWidth=2;rounded=0;" edge="1" parent="1">
          <mxGeometry width="50" height="50" relative="1" as="geometry">
            <mxPoint x="60" y="639" as="sourcePoint" />
            <mxPoint x="1160" y="639" as="targetPoint" />
          </mxGeometry>
        </mxCell>
        <mxCell id="hLTHhRPW-I134p4f4QWL-190" value="Q4" style="text;html=1;align=center;verticalAlign=middle;resizable=0;points=[];autosize=1;strokeColor=none;fillColor=none;" vertex="1" parent="1">
          <mxGeometry x="10" y="650" width="40" height="30" as="geometry" />
        </mxCell>
        <mxCell id="hLTHhRPW-I134p4f4QWL-191" value="" style="endArrow=classic;html=1;rounded=0;" edge="1" parent="1">
          <mxGeometry width="50" height="50" relative="1" as="geometry">
            <mxPoint x="61" y="560" as="sourcePoint" />
            <mxPoint x="1171" y="560" as="targetPoint" />
          </mxGeometry>
        </mxCell>
        <mxCell id="hLTHhRPW-I134p4f4QWL-192" value="" style="endArrow=none;html=1;rounded=0;" edge="1" parent="1">
          <mxGeometry width="50" height="50" relative="1" as="geometry">
            <mxPoint x="121" y="570" as="sourcePoint" />
            <mxPoint x="121" y="560" as="targetPoint" />
          </mxGeometry>
        </mxCell>
        <mxCell id="hLTHhRPW-I134p4f4QWL-193" value="" style="endArrow=none;html=1;rounded=0;" edge="1" parent="1" source="hLTHhRPW-I134p4f4QWL-209">
          <mxGeometry width="50" height="50" relative="1" as="geometry">
            <mxPoint x="81" y="570" as="sourcePoint" />
            <mxPoint x="81" y="560" as="targetPoint" />
          </mxGeometry>
        </mxCell>
        <mxCell id="hLTHhRPW-I134p4f4QWL-194" value="" style="endArrow=none;html=1;rounded=0;" edge="1" parent="1">
          <mxGeometry width="50" height="50" relative="1" as="geometry">
            <mxPoint x="201" y="570" as="sourcePoint" />
            <mxPoint x="201" y="560" as="targetPoint" />
          </mxGeometry>
        </mxCell>
        <mxCell id="hLTHhRPW-I134p4f4QWL-195" value="" style="endArrow=none;html=1;rounded=0;" edge="1" parent="1">
          <mxGeometry width="50" height="50" relative="1" as="geometry">
            <mxPoint x="161" y="570" as="sourcePoint" />
            <mxPoint x="161" y="560" as="targetPoint" />
          </mxGeometry>
        </mxCell>
        <mxCell id="hLTHhRPW-I134p4f4QWL-196" value="" style="endArrow=none;html=1;rounded=0;" edge="1" parent="1">
          <mxGeometry width="50" height="50" relative="1" as="geometry">
            <mxPoint x="280.5" y="570" as="sourcePoint" />
            <mxPoint x="280.5" y="560" as="targetPoint" />
          </mxGeometry>
        </mxCell>
        <mxCell id="hLTHhRPW-I134p4f4QWL-197" value="" style="endArrow=none;html=1;rounded=0;" edge="1" parent="1">
          <mxGeometry width="50" height="50" relative="1" as="geometry">
            <mxPoint x="240.5" y="570" as="sourcePoint" />
            <mxPoint x="240.5" y="560" as="targetPoint" />
          </mxGeometry>
        </mxCell>
        <mxCell id="hLTHhRPW-I134p4f4QWL-198" value="" style="endArrow=none;html=1;rounded=0;" edge="1" parent="1">
          <mxGeometry width="50" height="50" relative="1" as="geometry">
            <mxPoint x="360.5" y="570" as="sourcePoint" />
            <mxPoint x="360.5" y="560" as="targetPoint" />
          </mxGeometry>
        </mxCell>
        <mxCell id="hLTHhRPW-I134p4f4QWL-199" value="" style="endArrow=none;html=1;rounded=0;" edge="1" parent="1">
          <mxGeometry width="50" height="50" relative="1" as="geometry">
            <mxPoint x="320.5" y="570" as="sourcePoint" />
            <mxPoint x="320.5" y="560" as="targetPoint" />
          </mxGeometry>
        </mxCell>
        <mxCell id="hLTHhRPW-I134p4f4QWL-200" value="" style="endArrow=none;html=1;rounded=0;" edge="1" parent="1">
          <mxGeometry width="50" height="50" relative="1" as="geometry">
            <mxPoint x="441" y="570" as="sourcePoint" />
            <mxPoint x="441" y="560" as="targetPoint" />
          </mxGeometry>
        </mxCell>
        <mxCell id="hLTHhRPW-I134p4f4QWL-201" value="" style="endArrow=none;html=1;rounded=0;" edge="1" parent="1">
          <mxGeometry width="50" height="50" relative="1" as="geometry">
            <mxPoint x="401" y="570" as="sourcePoint" />
            <mxPoint x="401" y="560" as="targetPoint" />
          </mxGeometry>
        </mxCell>
        <mxCell id="hLTHhRPW-I134p4f4QWL-202" value="" style="endArrow=none;html=1;rounded=0;" edge="1" parent="1">
          <mxGeometry width="50" height="50" relative="1" as="geometry">
            <mxPoint x="521" y="570" as="sourcePoint" />
            <mxPoint x="521" y="560" as="targetPoint" />
          </mxGeometry>
        </mxCell>
        <mxCell id="hLTHhRPW-I134p4f4QWL-203" value="" style="endArrow=none;html=1;rounded=0;" edge="1" parent="1">
          <mxGeometry width="50" height="50" relative="1" as="geometry">
            <mxPoint x="481" y="570" as="sourcePoint" />
            <mxPoint x="481" y="560" as="targetPoint" />
          </mxGeometry>
        </mxCell>
        <mxCell id="hLTHhRPW-I134p4f4QWL-204" value="" style="endArrow=none;html=1;rounded=0;" edge="1" parent="1">
          <mxGeometry width="50" height="50" relative="1" as="geometry">
            <mxPoint x="600.5" y="570" as="sourcePoint" />
            <mxPoint x="600.5" y="560" as="targetPoint" />
          </mxGeometry>
        </mxCell>
        <mxCell id="hLTHhRPW-I134p4f4QWL-205" value="" style="endArrow=none;html=1;rounded=0;" edge="1" parent="1">
          <mxGeometry width="50" height="50" relative="1" as="geometry">
            <mxPoint x="560.5" y="570" as="sourcePoint" />
            <mxPoint x="560.5" y="560" as="targetPoint" />
          </mxGeometry>
        </mxCell>
        <mxCell id="hLTHhRPW-I134p4f4QWL-206" value="" style="endArrow=none;html=1;rounded=0;" edge="1" parent="1">
          <mxGeometry width="50" height="50" relative="1" as="geometry">
            <mxPoint x="680.5" y="570" as="sourcePoint" />
            <mxPoint x="680.5" y="560" as="targetPoint" />
          </mxGeometry>
        </mxCell>
        <mxCell id="hLTHhRPW-I134p4f4QWL-207" value="" style="endArrow=none;html=1;rounded=0;" edge="1" parent="1">
          <mxGeometry width="50" height="50" relative="1" as="geometry">
            <mxPoint x="640.5" y="570" as="sourcePoint" />
            <mxPoint x="640.5" y="560" as="targetPoint" />
          </mxGeometry>
        </mxCell>
        <mxCell id="hLTHhRPW-I134p4f4QWL-208" value="" style="endArrow=none;html=1;rounded=0;" edge="1" parent="1" target="hLTHhRPW-I134p4f4QWL-209">
          <mxGeometry width="50" height="50" relative="1" as="geometry">
            <mxPoint x="81" y="570" as="sourcePoint" />
            <mxPoint x="81" y="560" as="targetPoint" />
          </mxGeometry>
        </mxCell>
        <mxCell id="hLTHhRPW-I134p4f4QWL-209" value="0" style="text;html=1;align=center;verticalAlign=middle;whiteSpace=wrap;rounded=0;" vertex="1" parent="1">
          <mxGeometry x="51" y="570" width="60" height="30" as="geometry" />
        </mxCell>
        <mxCell id="hLTHhRPW-I134p4f4QWL-210" value="1" style="text;html=1;align=center;verticalAlign=middle;whiteSpace=wrap;rounded=0;" vertex="1" parent="1">
          <mxGeometry x="91" y="570" width="60" height="30" as="geometry" />
        </mxCell>
        <mxCell id="hLTHhRPW-I134p4f4QWL-211" value="2" style="text;html=1;align=center;verticalAlign=middle;whiteSpace=wrap;rounded=0;" vertex="1" parent="1">
          <mxGeometry x="131" y="570" width="60" height="30" as="geometry" />
        </mxCell>
        <mxCell id="hLTHhRPW-I134p4f4QWL-212" value="3" style="text;html=1;align=center;verticalAlign=middle;whiteSpace=wrap;rounded=0;" vertex="1" parent="1">
          <mxGeometry x="171" y="570" width="60" height="30" as="geometry" />
        </mxCell>
        <mxCell id="hLTHhRPW-I134p4f4QWL-213" value="4" style="text;html=1;align=center;verticalAlign=middle;whiteSpace=wrap;rounded=0;" vertex="1" parent="1">
          <mxGeometry x="211" y="570" width="60" height="30" as="geometry" />
        </mxCell>
        <mxCell id="hLTHhRPW-I134p4f4QWL-214" value="5" style="text;html=1;align=center;verticalAlign=middle;whiteSpace=wrap;rounded=0;" vertex="1" parent="1">
          <mxGeometry x="251" y="570" width="60" height="30" as="geometry" />
        </mxCell>
        <mxCell id="hLTHhRPW-I134p4f4QWL-215" value="6" style="text;html=1;align=center;verticalAlign=middle;whiteSpace=wrap;rounded=0;" vertex="1" parent="1">
          <mxGeometry x="291" y="570" width="60" height="30" as="geometry" />
        </mxCell>
        <mxCell id="hLTHhRPW-I134p4f4QWL-216" value="7" style="text;html=1;align=center;verticalAlign=middle;whiteSpace=wrap;rounded=0;" vertex="1" parent="1">
          <mxGeometry x="331" y="570" width="60" height="30" as="geometry" />
        </mxCell>
        <mxCell id="hLTHhRPW-I134p4f4QWL-217" value="8" style="text;html=1;align=center;verticalAlign=middle;whiteSpace=wrap;rounded=0;" vertex="1" parent="1">
          <mxGeometry x="371" y="570" width="60" height="30" as="geometry" />
        </mxCell>
        <mxCell id="hLTHhRPW-I134p4f4QWL-218" value="9" style="text;html=1;align=center;verticalAlign=middle;whiteSpace=wrap;rounded=0;" vertex="1" parent="1">
          <mxGeometry x="411" y="570" width="60" height="30" as="geometry" />
        </mxCell>
        <mxCell id="hLTHhRPW-I134p4f4QWL-219" value="10" style="text;html=1;align=center;verticalAlign=middle;whiteSpace=wrap;rounded=0;" vertex="1" parent="1">
          <mxGeometry x="451" y="570" width="60" height="30" as="geometry" />
        </mxCell>
        <mxCell id="hLTHhRPW-I134p4f4QWL-220" value="11" style="text;html=1;align=center;verticalAlign=middle;whiteSpace=wrap;rounded=0;" vertex="1" parent="1">
          <mxGeometry x="491" y="570" width="60" height="30" as="geometry" />
        </mxCell>
        <mxCell id="hLTHhRPW-I134p4f4QWL-221" value="12" style="text;html=1;align=center;verticalAlign=middle;whiteSpace=wrap;rounded=0;" vertex="1" parent="1">
          <mxGeometry x="531" y="570" width="60" height="30" as="geometry" />
        </mxCell>
        <mxCell id="hLTHhRPW-I134p4f4QWL-222" value="13" style="text;html=1;align=center;verticalAlign=middle;whiteSpace=wrap;rounded=0;" vertex="1" parent="1">
          <mxGeometry x="571" y="570" width="60" height="30" as="geometry" />
        </mxCell>
        <mxCell id="hLTHhRPW-I134p4f4QWL-223" value="14" style="text;html=1;align=center;verticalAlign=middle;whiteSpace=wrap;rounded=0;" vertex="1" parent="1">
          <mxGeometry x="611" y="570" width="60" height="30" as="geometry" />
        </mxCell>
        <mxCell id="hLTHhRPW-I134p4f4QWL-224" value="15" style="text;html=1;align=center;verticalAlign=middle;whiteSpace=wrap;rounded=0;" vertex="1" parent="1">
          <mxGeometry x="651" y="570" width="60" height="30" as="geometry" />
        </mxCell>
        <mxCell id="hLTHhRPW-I134p4f4QWL-225" value="" style="endArrow=none;html=1;rounded=0;" edge="1" parent="1">
          <mxGeometry width="50" height="50" relative="1" as="geometry">
            <mxPoint x="721" y="570" as="sourcePoint" />
            <mxPoint x="721" y="560" as="targetPoint" />
          </mxGeometry>
        </mxCell>
        <mxCell id="hLTHhRPW-I134p4f4QWL-226" value="" style="endArrow=none;html=1;rounded=0;" edge="1" parent="1">
          <mxGeometry width="50" height="50" relative="1" as="geometry">
            <mxPoint x="801" y="570" as="sourcePoint" />
            <mxPoint x="801" y="560" as="targetPoint" />
          </mxGeometry>
        </mxCell>
        <mxCell id="hLTHhRPW-I134p4f4QWL-227" value="" style="endArrow=none;html=1;rounded=0;" edge="1" parent="1">
          <mxGeometry width="50" height="50" relative="1" as="geometry">
            <mxPoint x="761" y="570" as="sourcePoint" />
            <mxPoint x="761" y="560" as="targetPoint" />
          </mxGeometry>
        </mxCell>
        <mxCell id="hLTHhRPW-I134p4f4QWL-228" value="17" style="text;html=1;align=center;verticalAlign=middle;whiteSpace=wrap;rounded=0;" vertex="1" parent="1">
          <mxGeometry x="731.5" y="570" width="60" height="30" as="geometry" />
        </mxCell>
        <mxCell id="hLTHhRPW-I134p4f4QWL-229" value="18" style="text;html=1;align=center;verticalAlign=middle;whiteSpace=wrap;rounded=0;" vertex="1" parent="1">
          <mxGeometry x="771.5" y="570" width="60" height="30" as="geometry" />
        </mxCell>
        <mxCell id="hLTHhRPW-I134p4f4QWL-230" value="" style="endArrow=none;html=1;rounded=0;" edge="1" parent="1">
          <mxGeometry width="50" height="50" relative="1" as="geometry">
            <mxPoint x="841" y="570" as="sourcePoint" />
            <mxPoint x="841" y="560" as="targetPoint" />
          </mxGeometry>
        </mxCell>
        <mxCell id="hLTHhRPW-I134p4f4QWL-231" value="" style="endArrow=none;html=1;rounded=0;" edge="1" parent="1">
          <mxGeometry width="50" height="50" relative="1" as="geometry">
            <mxPoint x="921" y="570" as="sourcePoint" />
            <mxPoint x="921" y="560" as="targetPoint" />
          </mxGeometry>
        </mxCell>
        <mxCell id="hLTHhRPW-I134p4f4QWL-232" value="" style="endArrow=none;html=1;rounded=0;" edge="1" parent="1">
          <mxGeometry width="50" height="50" relative="1" as="geometry">
            <mxPoint x="881" y="570" as="sourcePoint" />
            <mxPoint x="881" y="560" as="targetPoint" />
          </mxGeometry>
        </mxCell>
        <mxCell id="hLTHhRPW-I134p4f4QWL-233" value="20" style="text;html=1;align=center;verticalAlign=middle;whiteSpace=wrap;rounded=0;" vertex="1" parent="1">
          <mxGeometry x="851.5" y="570" width="60" height="30" as="geometry" />
        </mxCell>
        <mxCell id="hLTHhRPW-I134p4f4QWL-234" value="21" style="text;html=1;align=center;verticalAlign=middle;whiteSpace=wrap;rounded=0;" vertex="1" parent="1">
          <mxGeometry x="891" y="570" width="60.5" height="30" as="geometry" />
        </mxCell>
        <mxCell id="hLTHhRPW-I134p4f4QWL-235" value="16" style="text;html=1;align=center;verticalAlign=middle;whiteSpace=wrap;rounded=0;" vertex="1" parent="1">
          <mxGeometry x="691" y="570" width="60" height="30" as="geometry" />
        </mxCell>
        <mxCell id="hLTHhRPW-I134p4f4QWL-236" value="19" style="text;html=1;align=center;verticalAlign=middle;whiteSpace=wrap;rounded=0;" vertex="1" parent="1">
          <mxGeometry x="811" y="570" width="60" height="30" as="geometry" />
        </mxCell>
        <mxCell id="hLTHhRPW-I134p4f4QWL-237" value="" style="endArrow=none;html=1;rounded=0;" edge="1" parent="1">
          <mxGeometry width="50" height="50" relative="1" as="geometry">
            <mxPoint x="961" y="570" as="sourcePoint" />
            <mxPoint x="961" y="560" as="targetPoint" />
          </mxGeometry>
        </mxCell>
        <mxCell id="hLTHhRPW-I134p4f4QWL-238" value="" style="endArrow=none;html=1;rounded=0;" edge="1" parent="1">
          <mxGeometry width="50" height="50" relative="1" as="geometry">
            <mxPoint x="1001" y="570" as="sourcePoint" />
            <mxPoint x="1001" y="560" as="targetPoint" />
          </mxGeometry>
        </mxCell>
        <mxCell id="hLTHhRPW-I134p4f4QWL-239" value="" style="endArrow=none;html=1;rounded=0;" edge="1" parent="1">
          <mxGeometry width="50" height="50" relative="1" as="geometry">
            <mxPoint x="1081" y="570" as="sourcePoint" />
            <mxPoint x="1081" y="560" as="targetPoint" />
          </mxGeometry>
        </mxCell>
        <mxCell id="hLTHhRPW-I134p4f4QWL-240" value="" style="endArrow=none;html=1;rounded=0;" edge="1" parent="1">
          <mxGeometry width="50" height="50" relative="1" as="geometry">
            <mxPoint x="1041" y="570" as="sourcePoint" />
            <mxPoint x="1041" y="560" as="targetPoint" />
          </mxGeometry>
        </mxCell>
        <mxCell id="hLTHhRPW-I134p4f4QWL-241" value="24" style="text;html=1;align=center;verticalAlign=middle;whiteSpace=wrap;rounded=0;" vertex="1" parent="1">
          <mxGeometry x="1011.5" y="570" width="60" height="30" as="geometry" />
        </mxCell>
        <mxCell id="hLTHhRPW-I134p4f4QWL-242" value="25" style="text;html=1;align=center;verticalAlign=middle;whiteSpace=wrap;rounded=0;" vertex="1" parent="1">
          <mxGeometry x="1051" y="570" width="60.5" height="30" as="geometry" />
        </mxCell>
        <mxCell id="hLTHhRPW-I134p4f4QWL-243" value="23" style="text;html=1;align=center;verticalAlign=middle;whiteSpace=wrap;rounded=0;" vertex="1" parent="1">
          <mxGeometry x="971" y="570" width="60" height="30" as="geometry" />
        </mxCell>
        <mxCell id="hLTHhRPW-I134p4f4QWL-244" value="22" style="text;html=1;align=center;verticalAlign=middle;whiteSpace=wrap;rounded=0;" vertex="1" parent="1">
          <mxGeometry x="931" y="570" width="60" height="30" as="geometry" />
        </mxCell>
        <mxCell id="hLTHhRPW-I134p4f4QWL-245" value="" style="endArrow=none;html=1;rounded=0;" edge="1" parent="1">
          <mxGeometry width="50" height="50" relative="1" as="geometry">
            <mxPoint x="1121" y="570" as="sourcePoint" />
            <mxPoint x="1121" y="560" as="targetPoint" />
          </mxGeometry>
        </mxCell>
        <mxCell id="hLTHhRPW-I134p4f4QWL-246" value="26" style="text;html=1;align=center;verticalAlign=middle;whiteSpace=wrap;rounded=0;" vertex="1" parent="1">
          <mxGeometry x="1091" y="570" width="60.5" height="30" as="geometry" />
        </mxCell>
        <mxCell id="hLTHhRPW-I134p4f4QWL-247" value="" style="endArrow=none;dashed=1;html=1;dashPattern=1 3;strokeWidth=2;rounded=0;" edge="1" parent="1">
          <mxGeometry width="50" height="50" relative="1" as="geometry">
            <mxPoint x="61" y="500" as="sourcePoint" />
            <mxPoint x="1161" y="500" as="targetPoint" />
          </mxGeometry>
        </mxCell>
        <mxCell id="hLTHhRPW-I134p4f4QWL-248" value="Q2" style="text;html=1;align=center;verticalAlign=middle;resizable=0;points=[];autosize=1;strokeColor=none;fillColor=none;" vertex="1" parent="1">
          <mxGeometry x="11" y="511" width="40" height="30" as="geometry" />
        </mxCell>
        <mxCell id="hLTHhRPW-I134p4f4QWL-249" value="" style="endArrow=classic;html=1;rounded=0;" edge="1" parent="1">
          <mxGeometry width="50" height="50" relative="1" as="geometry">
            <mxPoint x="60" y="381" as="sourcePoint" />
            <mxPoint x="1170" y="381" as="targetPoint" />
          </mxGeometry>
        </mxCell>
        <mxCell id="hLTHhRPW-I134p4f4QWL-250" value="" style="endArrow=none;html=1;rounded=0;" edge="1" parent="1">
          <mxGeometry width="50" height="50" relative="1" as="geometry">
            <mxPoint x="120" y="391" as="sourcePoint" />
            <mxPoint x="120" y="381" as="targetPoint" />
          </mxGeometry>
        </mxCell>
        <mxCell id="hLTHhRPW-I134p4f4QWL-251" value="" style="endArrow=none;html=1;rounded=0;" edge="1" parent="1" source="hLTHhRPW-I134p4f4QWL-267">
          <mxGeometry width="50" height="50" relative="1" as="geometry">
            <mxPoint x="80" y="391" as="sourcePoint" />
            <mxPoint x="80" y="381" as="targetPoint" />
          </mxGeometry>
        </mxCell>
        <mxCell id="hLTHhRPW-I134p4f4QWL-252" value="" style="endArrow=none;html=1;rounded=0;" edge="1" parent="1">
          <mxGeometry width="50" height="50" relative="1" as="geometry">
            <mxPoint x="200" y="391" as="sourcePoint" />
            <mxPoint x="200" y="381" as="targetPoint" />
          </mxGeometry>
        </mxCell>
        <mxCell id="hLTHhRPW-I134p4f4QWL-253" value="" style="endArrow=none;html=1;rounded=0;" edge="1" parent="1">
          <mxGeometry width="50" height="50" relative="1" as="geometry">
            <mxPoint x="160" y="391" as="sourcePoint" />
            <mxPoint x="160" y="381" as="targetPoint" />
          </mxGeometry>
        </mxCell>
        <mxCell id="hLTHhRPW-I134p4f4QWL-254" value="" style="endArrow=none;html=1;rounded=0;" edge="1" parent="1">
          <mxGeometry width="50" height="50" relative="1" as="geometry">
            <mxPoint x="279.5" y="391" as="sourcePoint" />
            <mxPoint x="279.5" y="381" as="targetPoint" />
          </mxGeometry>
        </mxCell>
        <mxCell id="hLTHhRPW-I134p4f4QWL-255" value="" style="endArrow=none;html=1;rounded=0;" edge="1" parent="1">
          <mxGeometry width="50" height="50" relative="1" as="geometry">
            <mxPoint x="239.5" y="391" as="sourcePoint" />
            <mxPoint x="239.5" y="381" as="targetPoint" />
          </mxGeometry>
        </mxCell>
        <mxCell id="hLTHhRPW-I134p4f4QWL-256" value="" style="endArrow=none;html=1;rounded=0;" edge="1" parent="1">
          <mxGeometry width="50" height="50" relative="1" as="geometry">
            <mxPoint x="359.5" y="391" as="sourcePoint" />
            <mxPoint x="359.5" y="381" as="targetPoint" />
          </mxGeometry>
        </mxCell>
        <mxCell id="hLTHhRPW-I134p4f4QWL-257" value="" style="endArrow=none;html=1;rounded=0;" edge="1" parent="1">
          <mxGeometry width="50" height="50" relative="1" as="geometry">
            <mxPoint x="319.5" y="391" as="sourcePoint" />
            <mxPoint x="319.5" y="381" as="targetPoint" />
          </mxGeometry>
        </mxCell>
        <mxCell id="hLTHhRPW-I134p4f4QWL-258" value="" style="endArrow=none;html=1;rounded=0;" edge="1" parent="1">
          <mxGeometry width="50" height="50" relative="1" as="geometry">
            <mxPoint x="440" y="391" as="sourcePoint" />
            <mxPoint x="440" y="381" as="targetPoint" />
          </mxGeometry>
        </mxCell>
        <mxCell id="hLTHhRPW-I134p4f4QWL-259" value="" style="endArrow=none;html=1;rounded=0;" edge="1" parent="1">
          <mxGeometry width="50" height="50" relative="1" as="geometry">
            <mxPoint x="400" y="391" as="sourcePoint" />
            <mxPoint x="400" y="381" as="targetPoint" />
          </mxGeometry>
        </mxCell>
        <mxCell id="hLTHhRPW-I134p4f4QWL-260" value="" style="endArrow=none;html=1;rounded=0;" edge="1" parent="1">
          <mxGeometry width="50" height="50" relative="1" as="geometry">
            <mxPoint x="520" y="391" as="sourcePoint" />
            <mxPoint x="520" y="381" as="targetPoint" />
          </mxGeometry>
        </mxCell>
        <mxCell id="hLTHhRPW-I134p4f4QWL-261" value="" style="endArrow=none;html=1;rounded=0;" edge="1" parent="1">
          <mxGeometry width="50" height="50" relative="1" as="geometry">
            <mxPoint x="480" y="391" as="sourcePoint" />
            <mxPoint x="480" y="381" as="targetPoint" />
          </mxGeometry>
        </mxCell>
        <mxCell id="hLTHhRPW-I134p4f4QWL-262" value="" style="endArrow=none;html=1;rounded=0;" edge="1" parent="1">
          <mxGeometry width="50" height="50" relative="1" as="geometry">
            <mxPoint x="599.5" y="391" as="sourcePoint" />
            <mxPoint x="599.5" y="381" as="targetPoint" />
          </mxGeometry>
        </mxCell>
        <mxCell id="hLTHhRPW-I134p4f4QWL-263" value="" style="endArrow=none;html=1;rounded=0;" edge="1" parent="1">
          <mxGeometry width="50" height="50" relative="1" as="geometry">
            <mxPoint x="559.5" y="391" as="sourcePoint" />
            <mxPoint x="559.5" y="381" as="targetPoint" />
          </mxGeometry>
        </mxCell>
        <mxCell id="hLTHhRPW-I134p4f4QWL-264" value="" style="endArrow=none;html=1;rounded=0;" edge="1" parent="1">
          <mxGeometry width="50" height="50" relative="1" as="geometry">
            <mxPoint x="679.5" y="391" as="sourcePoint" />
            <mxPoint x="679.5" y="381" as="targetPoint" />
          </mxGeometry>
        </mxCell>
        <mxCell id="hLTHhRPW-I134p4f4QWL-265" value="" style="endArrow=none;html=1;rounded=0;" edge="1" parent="1">
          <mxGeometry width="50" height="50" relative="1" as="geometry">
            <mxPoint x="639.5" y="391" as="sourcePoint" />
            <mxPoint x="639.5" y="381" as="targetPoint" />
          </mxGeometry>
        </mxCell>
        <mxCell id="hLTHhRPW-I134p4f4QWL-266" value="" style="endArrow=none;html=1;rounded=0;" edge="1" parent="1" target="hLTHhRPW-I134p4f4QWL-267">
          <mxGeometry width="50" height="50" relative="1" as="geometry">
            <mxPoint x="80" y="391" as="sourcePoint" />
            <mxPoint x="80" y="381" as="targetPoint" />
          </mxGeometry>
        </mxCell>
        <mxCell id="hLTHhRPW-I134p4f4QWL-267" value="0" style="text;html=1;align=center;verticalAlign=middle;whiteSpace=wrap;rounded=0;" vertex="1" parent="1">
          <mxGeometry x="50" y="391" width="60" height="30" as="geometry" />
        </mxCell>
        <mxCell id="hLTHhRPW-I134p4f4QWL-268" value="1" style="text;html=1;align=center;verticalAlign=middle;whiteSpace=wrap;rounded=0;" vertex="1" parent="1">
          <mxGeometry x="90" y="391" width="60" height="30" as="geometry" />
        </mxCell>
        <mxCell id="hLTHhRPW-I134p4f4QWL-269" value="2" style="text;html=1;align=center;verticalAlign=middle;whiteSpace=wrap;rounded=0;" vertex="1" parent="1">
          <mxGeometry x="130" y="391" width="60" height="30" as="geometry" />
        </mxCell>
        <mxCell id="hLTHhRPW-I134p4f4QWL-270" value="3" style="text;html=1;align=center;verticalAlign=middle;whiteSpace=wrap;rounded=0;" vertex="1" parent="1">
          <mxGeometry x="170" y="391" width="60" height="30" as="geometry" />
        </mxCell>
        <mxCell id="hLTHhRPW-I134p4f4QWL-271" value="4" style="text;html=1;align=center;verticalAlign=middle;whiteSpace=wrap;rounded=0;" vertex="1" parent="1">
          <mxGeometry x="210" y="391" width="60" height="30" as="geometry" />
        </mxCell>
        <mxCell id="hLTHhRPW-I134p4f4QWL-272" value="5" style="text;html=1;align=center;verticalAlign=middle;whiteSpace=wrap;rounded=0;" vertex="1" parent="1">
          <mxGeometry x="250" y="391" width="60" height="30" as="geometry" />
        </mxCell>
        <mxCell id="hLTHhRPW-I134p4f4QWL-273" value="6" style="text;html=1;align=center;verticalAlign=middle;whiteSpace=wrap;rounded=0;" vertex="1" parent="1">
          <mxGeometry x="290" y="391" width="60" height="30" as="geometry" />
        </mxCell>
        <mxCell id="hLTHhRPW-I134p4f4QWL-274" value="7" style="text;html=1;align=center;verticalAlign=middle;whiteSpace=wrap;rounded=0;" vertex="1" parent="1">
          <mxGeometry x="330" y="391" width="60" height="30" as="geometry" />
        </mxCell>
        <mxCell id="hLTHhRPW-I134p4f4QWL-275" value="8" style="text;html=1;align=center;verticalAlign=middle;whiteSpace=wrap;rounded=0;" vertex="1" parent="1">
          <mxGeometry x="370" y="391" width="60" height="30" as="geometry" />
        </mxCell>
        <mxCell id="hLTHhRPW-I134p4f4QWL-276" value="9" style="text;html=1;align=center;verticalAlign=middle;whiteSpace=wrap;rounded=0;" vertex="1" parent="1">
          <mxGeometry x="410" y="391" width="60" height="30" as="geometry" />
        </mxCell>
        <mxCell id="hLTHhRPW-I134p4f4QWL-277" value="10" style="text;html=1;align=center;verticalAlign=middle;whiteSpace=wrap;rounded=0;" vertex="1" parent="1">
          <mxGeometry x="450" y="391" width="60" height="30" as="geometry" />
        </mxCell>
        <mxCell id="hLTHhRPW-I134p4f4QWL-278" value="11" style="text;html=1;align=center;verticalAlign=middle;whiteSpace=wrap;rounded=0;" vertex="1" parent="1">
          <mxGeometry x="490" y="391" width="60" height="30" as="geometry" />
        </mxCell>
        <mxCell id="hLTHhRPW-I134p4f4QWL-279" value="12" style="text;html=1;align=center;verticalAlign=middle;whiteSpace=wrap;rounded=0;" vertex="1" parent="1">
          <mxGeometry x="530" y="391" width="60" height="30" as="geometry" />
        </mxCell>
        <mxCell id="hLTHhRPW-I134p4f4QWL-280" value="13" style="text;html=1;align=center;verticalAlign=middle;whiteSpace=wrap;rounded=0;" vertex="1" parent="1">
          <mxGeometry x="570" y="391" width="60" height="30" as="geometry" />
        </mxCell>
        <mxCell id="hLTHhRPW-I134p4f4QWL-281" value="14" style="text;html=1;align=center;verticalAlign=middle;whiteSpace=wrap;rounded=0;" vertex="1" parent="1">
          <mxGeometry x="610" y="391" width="60" height="30" as="geometry" />
        </mxCell>
        <mxCell id="hLTHhRPW-I134p4f4QWL-282" value="15" style="text;html=1;align=center;verticalAlign=middle;whiteSpace=wrap;rounded=0;" vertex="1" parent="1">
          <mxGeometry x="650" y="391" width="60" height="30" as="geometry" />
        </mxCell>
        <mxCell id="hLTHhRPW-I134p4f4QWL-283" value="" style="endArrow=none;html=1;rounded=0;" edge="1" parent="1">
          <mxGeometry width="50" height="50" relative="1" as="geometry">
            <mxPoint x="720" y="391" as="sourcePoint" />
            <mxPoint x="720" y="381" as="targetPoint" />
          </mxGeometry>
        </mxCell>
        <mxCell id="hLTHhRPW-I134p4f4QWL-284" value="" style="endArrow=none;html=1;rounded=0;" edge="1" parent="1">
          <mxGeometry width="50" height="50" relative="1" as="geometry">
            <mxPoint x="800" y="391" as="sourcePoint" />
            <mxPoint x="800" y="381" as="targetPoint" />
          </mxGeometry>
        </mxCell>
        <mxCell id="hLTHhRPW-I134p4f4QWL-285" value="" style="endArrow=none;html=1;rounded=0;" edge="1" parent="1">
          <mxGeometry width="50" height="50" relative="1" as="geometry">
            <mxPoint x="760" y="391" as="sourcePoint" />
            <mxPoint x="760" y="381" as="targetPoint" />
          </mxGeometry>
        </mxCell>
        <mxCell id="hLTHhRPW-I134p4f4QWL-286" value="17" style="text;html=1;align=center;verticalAlign=middle;whiteSpace=wrap;rounded=0;" vertex="1" parent="1">
          <mxGeometry x="730.5" y="391" width="60" height="30" as="geometry" />
        </mxCell>
        <mxCell id="hLTHhRPW-I134p4f4QWL-287" value="18" style="text;html=1;align=center;verticalAlign=middle;whiteSpace=wrap;rounded=0;" vertex="1" parent="1">
          <mxGeometry x="770.5" y="391" width="60" height="30" as="geometry" />
        </mxCell>
        <mxCell id="hLTHhRPW-I134p4f4QWL-288" value="" style="endArrow=none;html=1;rounded=0;" edge="1" parent="1">
          <mxGeometry width="50" height="50" relative="1" as="geometry">
            <mxPoint x="840" y="391" as="sourcePoint" />
            <mxPoint x="840" y="381" as="targetPoint" />
          </mxGeometry>
        </mxCell>
        <mxCell id="hLTHhRPW-I134p4f4QWL-289" value="" style="endArrow=none;html=1;rounded=0;" edge="1" parent="1">
          <mxGeometry width="50" height="50" relative="1" as="geometry">
            <mxPoint x="920" y="391" as="sourcePoint" />
            <mxPoint x="920" y="381" as="targetPoint" />
          </mxGeometry>
        </mxCell>
        <mxCell id="hLTHhRPW-I134p4f4QWL-290" value="" style="endArrow=none;html=1;rounded=0;" edge="1" parent="1">
          <mxGeometry width="50" height="50" relative="1" as="geometry">
            <mxPoint x="880" y="391" as="sourcePoint" />
            <mxPoint x="880" y="381" as="targetPoint" />
          </mxGeometry>
        </mxCell>
        <mxCell id="hLTHhRPW-I134p4f4QWL-291" value="20" style="text;html=1;align=center;verticalAlign=middle;whiteSpace=wrap;rounded=0;" vertex="1" parent="1">
          <mxGeometry x="850.5" y="391" width="60" height="30" as="geometry" />
        </mxCell>
        <mxCell id="hLTHhRPW-I134p4f4QWL-292" value="21" style="text;html=1;align=center;verticalAlign=middle;whiteSpace=wrap;rounded=0;" vertex="1" parent="1">
          <mxGeometry x="890" y="391" width="60.5" height="30" as="geometry" />
        </mxCell>
        <mxCell id="hLTHhRPW-I134p4f4QWL-293" value="16" style="text;html=1;align=center;verticalAlign=middle;whiteSpace=wrap;rounded=0;" vertex="1" parent="1">
          <mxGeometry x="690" y="391" width="60" height="30" as="geometry" />
        </mxCell>
        <mxCell id="hLTHhRPW-I134p4f4QWL-294" value="19" style="text;html=1;align=center;verticalAlign=middle;whiteSpace=wrap;rounded=0;" vertex="1" parent="1">
          <mxGeometry x="810" y="391" width="60" height="30" as="geometry" />
        </mxCell>
        <mxCell id="hLTHhRPW-I134p4f4QWL-295" value="" style="endArrow=none;html=1;rounded=0;" edge="1" parent="1">
          <mxGeometry width="50" height="50" relative="1" as="geometry">
            <mxPoint x="960" y="391" as="sourcePoint" />
            <mxPoint x="960" y="381" as="targetPoint" />
          </mxGeometry>
        </mxCell>
        <mxCell id="hLTHhRPW-I134p4f4QWL-296" value="" style="endArrow=none;html=1;rounded=0;" edge="1" parent="1">
          <mxGeometry width="50" height="50" relative="1" as="geometry">
            <mxPoint x="1000" y="391" as="sourcePoint" />
            <mxPoint x="1000" y="381" as="targetPoint" />
          </mxGeometry>
        </mxCell>
        <mxCell id="hLTHhRPW-I134p4f4QWL-297" value="" style="endArrow=none;html=1;rounded=0;" edge="1" parent="1">
          <mxGeometry width="50" height="50" relative="1" as="geometry">
            <mxPoint x="1080" y="391" as="sourcePoint" />
            <mxPoint x="1080" y="381" as="targetPoint" />
          </mxGeometry>
        </mxCell>
        <mxCell id="hLTHhRPW-I134p4f4QWL-298" value="" style="endArrow=none;html=1;rounded=0;" edge="1" parent="1">
          <mxGeometry width="50" height="50" relative="1" as="geometry">
            <mxPoint x="1040" y="391" as="sourcePoint" />
            <mxPoint x="1040" y="381" as="targetPoint" />
          </mxGeometry>
        </mxCell>
        <mxCell id="hLTHhRPW-I134p4f4QWL-299" value="24" style="text;html=1;align=center;verticalAlign=middle;whiteSpace=wrap;rounded=0;" vertex="1" parent="1">
          <mxGeometry x="1010.5" y="391" width="60" height="30" as="geometry" />
        </mxCell>
        <mxCell id="hLTHhRPW-I134p4f4QWL-300" value="25" style="text;html=1;align=center;verticalAlign=middle;whiteSpace=wrap;rounded=0;" vertex="1" parent="1">
          <mxGeometry x="1050" y="391" width="60.5" height="30" as="geometry" />
        </mxCell>
        <mxCell id="hLTHhRPW-I134p4f4QWL-301" value="23" style="text;html=1;align=center;verticalAlign=middle;whiteSpace=wrap;rounded=0;" vertex="1" parent="1">
          <mxGeometry x="970" y="391" width="60" height="30" as="geometry" />
        </mxCell>
        <mxCell id="hLTHhRPW-I134p4f4QWL-302" value="22" style="text;html=1;align=center;verticalAlign=middle;whiteSpace=wrap;rounded=0;" vertex="1" parent="1">
          <mxGeometry x="930" y="391" width="60" height="30" as="geometry" />
        </mxCell>
        <mxCell id="hLTHhRPW-I134p4f4QWL-303" value="" style="endArrow=none;html=1;rounded=0;" edge="1" parent="1">
          <mxGeometry width="50" height="50" relative="1" as="geometry">
            <mxPoint x="1120" y="391" as="sourcePoint" />
            <mxPoint x="1120" y="381" as="targetPoint" />
          </mxGeometry>
        </mxCell>
        <mxCell id="hLTHhRPW-I134p4f4QWL-304" value="26" style="text;html=1;align=center;verticalAlign=middle;whiteSpace=wrap;rounded=0;" vertex="1" parent="1">
          <mxGeometry x="1090" y="391" width="60.5" height="30" as="geometry" />
        </mxCell>
        <mxCell id="hLTHhRPW-I134p4f4QWL-305" value="" style="endArrow=none;dashed=1;html=1;dashPattern=1 3;strokeWidth=2;rounded=0;" edge="1" parent="1">
          <mxGeometry width="50" height="50" relative="1" as="geometry">
            <mxPoint x="60" y="321" as="sourcePoint" />
            <mxPoint x="1160" y="321" as="targetPoint" />
          </mxGeometry>
        </mxCell>
        <mxCell id="hLTHhRPW-I134p4f4QWL-306" value="Q1" style="text;html=1;align=center;verticalAlign=middle;resizable=0;points=[];autosize=1;strokeColor=none;fillColor=none;" vertex="1" parent="1">
          <mxGeometry x="10" y="332" width="40" height="30" as="geometry" />
        </mxCell>
        <mxCell id="hLTHhRPW-I134p4f4QWL-310" value="A" style="shape=process;whiteSpace=wrap;html=1;backgroundOutline=1;fillColor=#fff2cc;strokeColor=#d6b656;" vertex="1" parent="1">
          <mxGeometry x="80" y="320" width="40" height="60" as="geometry" />
        </mxCell>
        <mxCell id="hLTHhRPW-I134p4f4QWL-311" value="B" style="shape=process;whiteSpace=wrap;html=1;backgroundOutline=1;fillColor=#fff2cc;strokeColor=#d6b656;" vertex="1" parent="1">
          <mxGeometry x="120" y="320" width="40" height="60" as="geometry" />
        </mxCell>
        <mxCell id="hLTHhRPW-I134p4f4QWL-312" value="C" style="shape=process;whiteSpace=wrap;html=1;backgroundOutline=1;fillColor=#fff2cc;strokeColor=#d6b656;" vertex="1" parent="1">
          <mxGeometry x="160" y="320" width="40" height="60" as="geometry" />
        </mxCell>
        <mxCell id="hLTHhRPW-I134p4f4QWL-313" value="A" style="shape=process;whiteSpace=wrap;html=1;backgroundOutline=1;fillColor=#d5e8d4;strokeColor=#82b366;" vertex="1" parent="1">
          <mxGeometry x="121" y="500" width="40" height="60" as="geometry" />
        </mxCell>
        <mxCell id="hLTHhRPW-I134p4f4QWL-314" value="A" style="shape=process;whiteSpace=wrap;html=1;backgroundOutline=1;fillColor=#d5e8d4;strokeColor=#82b366;" vertex="1" parent="1">
          <mxGeometry x="161" y="530" width="40" height="30" as="geometry" />
        </mxCell>
        <mxCell id="hLTHhRPW-I134p4f4QWL-316" value="B" style="shape=process;whiteSpace=wrap;html=1;backgroundOutline=1;fillColor=#d5e8d4;strokeColor=#82b366;" vertex="1" parent="1">
          <mxGeometry x="161" y="500" width="40" height="30" as="geometry" />
        </mxCell>
        <mxCell id="hLTHhRPW-I134p4f4QWL-320" value="C" style="shape=process;whiteSpace=wrap;html=1;backgroundOutline=1;fillColor=#d5e8d4;strokeColor=#82b366;" vertex="1" parent="1">
          <mxGeometry x="200" y="470" width="40" height="30" as="geometry" />
        </mxCell>
        <mxCell id="hLTHhRPW-I134p4f4QWL-321" value="B" style="shape=process;whiteSpace=wrap;html=1;backgroundOutline=1;fillColor=#d5e8d4;strokeColor=#82b366;" vertex="1" parent="1">
          <mxGeometry x="200" y="500" width="40" height="30" as="geometry" />
        </mxCell>
        <mxCell id="hLTHhRPW-I134p4f4QWL-322" value="A" style="shape=process;whiteSpace=wrap;html=1;backgroundOutline=1;fillColor=#fff2cc;strokeColor=#d6b656;" vertex="1" parent="1">
          <mxGeometry x="200" y="530" width="40" height="30" as="geometry" />
        </mxCell>
        <mxCell id="hLTHhRPW-I134p4f4QWL-324" value="D" style="shape=process;whiteSpace=wrap;html=1;backgroundOutline=1;fillColor=#fff2cc;strokeColor=#d6b656;" vertex="1" parent="1">
          <mxGeometry x="240" y="320" width="40" height="60" as="geometry" />
        </mxCell>
        <mxCell id="hLTHhRPW-I134p4f4QWL-328" value="B" style="shape=process;whiteSpace=wrap;html=1;backgroundOutline=1;fillColor=#d5e8d4;strokeColor=#82b366;" vertex="1" parent="1">
          <mxGeometry x="240" y="500" width="40" height="30" as="geometry" />
        </mxCell>
        <mxCell id="hLTHhRPW-I134p4f4QWL-329" value="A" style="shape=process;whiteSpace=wrap;html=1;backgroundOutline=1;fillColor=#d5e8d4;strokeColor=#82b366;" vertex="1" parent="1">
          <mxGeometry x="240" y="530" width="40" height="30" as="geometry" />
        </mxCell>
        <mxCell id="hLTHhRPW-I134p4f4QWL-330" value="" style="endArrow=none;html=1;rounded=0;" edge="1" parent="1">
          <mxGeometry width="50" height="50" relative="1" as="geometry">
            <mxPoint x="281" y="570" as="sourcePoint" />
            <mxPoint x="281" y="560" as="targetPoint" />
          </mxGeometry>
        </mxCell>
        <mxCell id="hLTHhRPW-I134p4f4QWL-331" value="" style="endArrow=none;html=1;rounded=0;" edge="1" parent="1">
          <mxGeometry width="50" height="50" relative="1" as="geometry">
            <mxPoint x="320.5" y="570" as="sourcePoint" />
            <mxPoint x="320.5" y="560" as="targetPoint" />
          </mxGeometry>
        </mxCell>
        <mxCell id="hLTHhRPW-I134p4f4QWL-332" value="C" style="shape=process;whiteSpace=wrap;html=1;backgroundOutline=1;fillColor=#d5e8d4;strokeColor=#82b366;" vertex="1" parent="1">
          <mxGeometry x="280" y="470" width="40" height="30" as="geometry" />
        </mxCell>
        <mxCell id="hLTHhRPW-I134p4f4QWL-333" value="B" style="shape=process;whiteSpace=wrap;html=1;backgroundOutline=1;fillColor=#d5e8d4;strokeColor=#82b366;" vertex="1" parent="1">
          <mxGeometry x="280" y="500" width="40" height="30" as="geometry" />
        </mxCell>
        <mxCell id="hLTHhRPW-I134p4f4QWL-334" value="A" style="shape=process;whiteSpace=wrap;html=1;backgroundOutline=1;fillColor=#fff2cc;strokeColor=#d6b656;" vertex="1" parent="1">
          <mxGeometry x="280" y="530" width="40" height="30" as="geometry" />
        </mxCell>
        <mxCell id="hLTHhRPW-I134p4f4QWL-341" value="C" style="shape=process;whiteSpace=wrap;html=1;backgroundOutline=1;fillColor=#d5e8d4;strokeColor=#82b366;" vertex="1" parent="1">
          <mxGeometry x="240" y="470" width="40" height="30" as="geometry" />
        </mxCell>
        <mxCell id="hLTHhRPW-I134p4f4QWL-342" value="D" style="shape=process;whiteSpace=wrap;html=1;backgroundOutline=1;fillColor=#d5e8d4;strokeColor=#82b366;" vertex="1" parent="1">
          <mxGeometry x="280" y="440" width="40" height="30" as="geometry" />
        </mxCell>
        <mxCell id="hLTHhRPW-I134p4f4QWL-344" value="A" style="shape=process;whiteSpace=wrap;html=1;backgroundOutline=1;fillColor=#d5e8d4;strokeColor=#82b366;" vertex="1" parent="1">
          <mxGeometry x="320" y="640" width="40" height="60" as="geometry" />
        </mxCell>
        <mxCell id="hLTHhRPW-I134p4f4QWL-346" value="D" style="shape=process;whiteSpace=wrap;html=1;backgroundOutline=1;fillColor=#d5e8d4;strokeColor=#82b366;" vertex="1" parent="1">
          <mxGeometry x="320" y="470" width="40" height="30" as="geometry" />
        </mxCell>
        <mxCell id="hLTHhRPW-I134p4f4QWL-347" value="C" style="shape=process;whiteSpace=wrap;html=1;backgroundOutline=1;fillColor=#d5e8d4;strokeColor=#82b366;" vertex="1" parent="1">
          <mxGeometry x="320" y="500" width="40" height="30" as="geometry" />
        </mxCell>
        <mxCell id="hLTHhRPW-I134p4f4QWL-348" value="B" style="shape=process;whiteSpace=wrap;html=1;backgroundOutline=1;fillColor=#fff2cc;strokeColor=#d6b656;" vertex="1" parent="1">
          <mxGeometry x="320" y="530" width="40" height="30" as="geometry" />
        </mxCell>
        <mxCell id="hLTHhRPW-I134p4f4QWL-352" value="E" style="shape=process;whiteSpace=wrap;html=1;backgroundOutline=1;fillColor=#fff2cc;strokeColor=#d6b656;" vertex="1" parent="1">
          <mxGeometry x="360" y="320" width="40" height="60" as="geometry" />
        </mxCell>
        <mxCell id="hLTHhRPW-I134p4f4QWL-353" value="" style="endArrow=none;html=1;rounded=0;" edge="1" parent="1">
          <mxGeometry width="50" height="50" relative="1" as="geometry">
            <mxPoint x="400.5" y="570" as="sourcePoint" />
            <mxPoint x="400.5" y="560" as="targetPoint" />
          </mxGeometry>
        </mxCell>
        <mxCell id="hLTHhRPW-I134p4f4QWL-354" value="" style="endArrow=none;html=1;rounded=0;" edge="1" parent="1">
          <mxGeometry width="50" height="50" relative="1" as="geometry">
            <mxPoint x="360.5" y="570" as="sourcePoint" />
            <mxPoint x="360.5" y="560" as="targetPoint" />
          </mxGeometry>
        </mxCell>
        <mxCell id="hLTHhRPW-I134p4f4QWL-355" value="" style="endArrow=none;html=1;rounded=0;" edge="1" parent="1">
          <mxGeometry width="50" height="50" relative="1" as="geometry">
            <mxPoint x="360.5" y="570" as="sourcePoint" />
            <mxPoint x="360.5" y="560" as="targetPoint" />
          </mxGeometry>
        </mxCell>
        <mxCell id="hLTHhRPW-I134p4f4QWL-356" value="D" style="shape=process;whiteSpace=wrap;html=1;backgroundOutline=1;fillColor=#d5e8d4;strokeColor=#82b366;" vertex="1" parent="1">
          <mxGeometry x="360" y="470" width="40" height="30" as="geometry" />
        </mxCell>
        <mxCell id="hLTHhRPW-I134p4f4QWL-357" value="C" style="shape=process;whiteSpace=wrap;html=1;backgroundOutline=1;fillColor=#d5e8d4;strokeColor=#82b366;" vertex="1" parent="1">
          <mxGeometry x="360" y="500" width="40" height="30" as="geometry" />
        </mxCell>
        <mxCell id="hLTHhRPW-I134p4f4QWL-358" value="B" style="shape=process;whiteSpace=wrap;html=1;backgroundOutline=1;fillColor=#d5e8d4;strokeColor=#82b366;" vertex="1" parent="1">
          <mxGeometry x="360" y="530" width="40" height="30" as="geometry" />
        </mxCell>
        <mxCell id="hLTHhRPW-I134p4f4QWL-359" value="A" style="shape=process;whiteSpace=wrap;html=1;backgroundOutline=1;fillColor=#d5e8d4;strokeColor=#82b366;" vertex="1" parent="1">
          <mxGeometry x="360" y="640" width="40" height="60" as="geometry" />
        </mxCell>
        <mxCell id="hLTHhRPW-I134p4f4QWL-369" value="C" style="shape=process;whiteSpace=wrap;html=1;backgroundOutline=1;fillColor=#d5e8d4;strokeColor=#82b366;" vertex="1" parent="1">
          <mxGeometry x="400" y="500" width="40" height="30" as="geometry" />
        </mxCell>
        <mxCell id="hLTHhRPW-I134p4f4QWL-370" value="B" style="shape=process;whiteSpace=wrap;html=1;backgroundOutline=1;fillColor=#fff2cc;strokeColor=#d6b656;" vertex="1" parent="1">
          <mxGeometry x="400" y="530" width="40" height="30" as="geometry" />
        </mxCell>
        <mxCell id="hLTHhRPW-I134p4f4QWL-371" value="E" style="shape=process;whiteSpace=wrap;html=1;backgroundOutline=1;fillColor=#d5e8d4;strokeColor=#82b366;" vertex="1" parent="1">
          <mxGeometry x="400" y="440" width="40" height="30" as="geometry" />
        </mxCell>
        <mxCell id="hLTHhRPW-I134p4f4QWL-376" value="D" style="shape=process;whiteSpace=wrap;html=1;backgroundOutline=1;fillColor=#d5e8d4;strokeColor=#82b366;" vertex="1" parent="1">
          <mxGeometry x="400" y="470" width="40" height="30" as="geometry" />
        </mxCell>
        <mxCell id="hLTHhRPW-I134p4f4QWL-377" value="A" style="shape=process;whiteSpace=wrap;html=1;backgroundOutline=1;fillColor=#d5e8d4;strokeColor=#82b366;" vertex="1" parent="1">
          <mxGeometry x="400" y="640" width="40" height="60" as="geometry" />
        </mxCell>
        <mxCell id="hLTHhRPW-I134p4f4QWL-379" value="B" style="shape=process;whiteSpace=wrap;html=1;backgroundOutline=1;fillColor=#f8cecc;strokeColor=#b85450;" vertex="1" parent="1">
          <mxGeometry x="440" y="920" width="40" height="60" as="geometry" />
        </mxCell>
        <mxCell id="hLTHhRPW-I134p4f4QWL-381" value="A" style="shape=process;whiteSpace=wrap;html=1;backgroundOutline=1;fillColor=#d5e8d4;strokeColor=#82b366;" vertex="1" parent="1">
          <mxGeometry x="440" y="640" width="40" height="60" as="geometry" />
        </mxCell>
        <mxCell id="hLTHhRPW-I134p4f4QWL-391" value="" style="endArrow=none;html=1;rounded=0;" edge="1" parent="1">
          <mxGeometry width="50" height="50" relative="1" as="geometry">
            <mxPoint x="480.5" y="570" as="sourcePoint" />
            <mxPoint x="480.5" y="560" as="targetPoint" />
          </mxGeometry>
        </mxCell>
        <mxCell id="hLTHhRPW-I134p4f4QWL-392" value="" style="endArrow=none;html=1;rounded=0;" edge="1" parent="1">
          <mxGeometry width="50" height="50" relative="1" as="geometry">
            <mxPoint x="440.5" y="570" as="sourcePoint" />
            <mxPoint x="440.5" y="560" as="targetPoint" />
          </mxGeometry>
        </mxCell>
        <mxCell id="hLTHhRPW-I134p4f4QWL-393" value="" style="endArrow=none;html=1;rounded=0;" edge="1" parent="1">
          <mxGeometry width="50" height="50" relative="1" as="geometry">
            <mxPoint x="440.5" y="570" as="sourcePoint" />
            <mxPoint x="440.5" y="560" as="targetPoint" />
          </mxGeometry>
        </mxCell>
        <mxCell id="hLTHhRPW-I134p4f4QWL-394" value="E" style="shape=process;whiteSpace=wrap;html=1;backgroundOutline=1;fillColor=#d5e8d4;strokeColor=#82b366;" vertex="1" parent="1">
          <mxGeometry x="440" y="470" width="40" height="30" as="geometry" />
        </mxCell>
        <mxCell id="hLTHhRPW-I134p4f4QWL-395" value="D" style="shape=process;whiteSpace=wrap;html=1;backgroundOutline=1;fillColor=#d5e8d4;strokeColor=#82b366;" vertex="1" parent="1">
          <mxGeometry x="440" y="500" width="40" height="30" as="geometry" />
        </mxCell>
        <mxCell id="hLTHhRPW-I134p4f4QWL-396" value="C" style="shape=process;whiteSpace=wrap;html=1;backgroundOutline=1;fillColor=#fff2cc;strokeColor=#d6b656;" vertex="1" parent="1">
          <mxGeometry x="440" y="530" width="40" height="30" as="geometry" />
        </mxCell>
        <mxCell id="hLTHhRPW-I134p4f4QWL-397" value="" style="endArrow=none;html=1;rounded=0;" edge="1" parent="1">
          <mxGeometry width="50" height="50" relative="1" as="geometry">
            <mxPoint x="480.5" y="570" as="sourcePoint" />
            <mxPoint x="480.5" y="560" as="targetPoint" />
          </mxGeometry>
        </mxCell>
        <mxCell id="hLTHhRPW-I134p4f4QWL-398" value="" style="endArrow=none;html=1;rounded=0;" edge="1" parent="1">
          <mxGeometry width="50" height="50" relative="1" as="geometry">
            <mxPoint x="480.5" y="570" as="sourcePoint" />
            <mxPoint x="480.5" y="560" as="targetPoint" />
          </mxGeometry>
        </mxCell>
        <mxCell id="hLTHhRPW-I134p4f4QWL-399" value="A" style="shape=process;whiteSpace=wrap;html=1;backgroundOutline=1;fillColor=#d5e8d4;strokeColor=#82b366;" vertex="1" parent="1">
          <mxGeometry x="480" y="640" width="40" height="60" as="geometry" />
        </mxCell>
        <mxCell id="hLTHhRPW-I134p4f4QWL-401" value="C" style="shape=process;whiteSpace=wrap;html=1;backgroundOutline=1;fillColor=#fff2cc;strokeColor=#d6b656;" vertex="1" parent="1">
          <mxGeometry x="480" y="530" width="40" height="30" as="geometry" />
        </mxCell>
        <mxCell id="hLTHhRPW-I134p4f4QWL-402" value="E" style="shape=process;whiteSpace=wrap;html=1;backgroundOutline=1;fillColor=#d5e8d4;strokeColor=#82b366;" vertex="1" parent="1">
          <mxGeometry x="480" y="470" width="40" height="30" as="geometry" />
        </mxCell>
        <mxCell id="hLTHhRPW-I134p4f4QWL-405" value="D" style="shape=process;whiteSpace=wrap;html=1;backgroundOutline=1;fillColor=#fff2cc;strokeColor=#d6b656;" vertex="1" parent="1">
          <mxGeometry x="520" y="530" width="40" height="30" as="geometry" />
        </mxCell>
        <mxCell id="hLTHhRPW-I134p4f4QWL-406" value="E" style="shape=process;whiteSpace=wrap;html=1;backgroundOutline=1;fillColor=#d5e8d4;strokeColor=#82b366;" vertex="1" parent="1">
          <mxGeometry x="520" y="500" width="40" height="30" as="geometry" />
        </mxCell>
        <mxCell id="hLTHhRPW-I134p4f4QWL-407" value="A" style="shape=process;whiteSpace=wrap;html=1;backgroundOutline=1;fillColor=#d5e8d4;strokeColor=#82b366;" vertex="1" parent="1">
          <mxGeometry x="520" y="670" width="40" height="30" as="geometry" />
        </mxCell>
        <mxCell id="hLTHhRPW-I134p4f4QWL-408" value="C" style="shape=process;whiteSpace=wrap;html=1;backgroundOutline=1;fillColor=#d5e8d4;strokeColor=#82b366;" vertex="1" parent="1">
          <mxGeometry x="520" y="640" width="40" height="30" as="geometry" />
        </mxCell>
        <mxCell id="hLTHhRPW-I134p4f4QWL-409" value="C" style="shape=process;whiteSpace=wrap;html=1;backgroundOutline=1;fillColor=#d5e8d4;strokeColor=#82b366;" vertex="1" parent="1">
          <mxGeometry x="560" y="640" width="40" height="30" as="geometry" />
        </mxCell>
        <mxCell id="hLTHhRPW-I134p4f4QWL-410" value="A" style="shape=process;whiteSpace=wrap;html=1;backgroundOutline=1;fillColor=#d5e8d4;strokeColor=#82b366;" vertex="1" parent="1">
          <mxGeometry x="560" y="670" width="40" height="30" as="geometry" />
        </mxCell>
        <mxCell id="hLTHhRPW-I134p4f4QWL-415" value="E" style="shape=process;whiteSpace=wrap;html=1;backgroundOutline=1;fillColor=#d5e8d4;strokeColor=#82b366;" vertex="1" parent="1">
          <mxGeometry x="560" y="500" width="40" height="30" as="geometry" />
        </mxCell>
        <mxCell id="hLTHhRPW-I134p4f4QWL-419" value="E" style="shape=process;whiteSpace=wrap;html=1;backgroundOutline=1;fillColor=#fff2cc;strokeColor=#d6b656;" vertex="1" parent="1">
          <mxGeometry x="600" y="530" width="40" height="30" as="geometry" />
        </mxCell>
        <mxCell id="hLTHhRPW-I134p4f4QWL-421" value="D" style="shape=process;whiteSpace=wrap;html=1;backgroundOutline=1;fillColor=#f8cecc;strokeColor=#b85450;" vertex="1" parent="1">
          <mxGeometry x="600" y="920" width="40" height="60" as="geometry" />
        </mxCell>
        <mxCell id="hLTHhRPW-I134p4f4QWL-422" value="C" style="shape=process;whiteSpace=wrap;html=1;backgroundOutline=1;fillColor=#d5e8d4;strokeColor=#82b366;" vertex="1" parent="1">
          <mxGeometry x="600" y="640" width="40" height="30" as="geometry" />
        </mxCell>
        <mxCell id="hLTHhRPW-I134p4f4QWL-423" value="A" style="shape=process;whiteSpace=wrap;html=1;backgroundOutline=1;fillColor=#d5e8d4;strokeColor=#82b366;" vertex="1" parent="1">
          <mxGeometry x="600" y="670" width="40" height="30" as="geometry" />
        </mxCell>
        <mxCell id="hLTHhRPW-I134p4f4QWL-425" value="C" style="shape=process;whiteSpace=wrap;html=1;backgroundOutline=1;fillColor=#d5e8d4;strokeColor=#82b366;" vertex="1" parent="1">
          <mxGeometry x="640" y="640" width="40" height="30" as="geometry" />
        </mxCell>
        <mxCell id="hLTHhRPW-I134p4f4QWL-426" value="A" style="shape=process;whiteSpace=wrap;html=1;backgroundOutline=1;fillColor=#d5e8d4;strokeColor=#82b366;" vertex="1" parent="1">
          <mxGeometry x="640" y="670" width="40" height="30" as="geometry" />
        </mxCell>
        <mxCell id="hLTHhRPW-I134p4f4QWL-427" value="E" style="shape=process;whiteSpace=wrap;html=1;backgroundOutline=1;fillColor=#d5e8d4;strokeColor=#82b366;" vertex="1" parent="1">
          <mxGeometry x="680" y="610" width="40" height="30" as="geometry" />
        </mxCell>
        <mxCell id="hLTHhRPW-I134p4f4QWL-428" value="C" style="shape=process;whiteSpace=wrap;html=1;backgroundOutline=1;fillColor=#d5e8d4;strokeColor=#82b366;" vertex="1" parent="1">
          <mxGeometry x="680" y="640" width="40" height="30" as="geometry" />
        </mxCell>
        <mxCell id="hLTHhRPW-I134p4f4QWL-429" value="A" style="shape=process;whiteSpace=wrap;html=1;backgroundOutline=1;fillColor=#fff2cc;strokeColor=#d6b656;" vertex="1" parent="1">
          <mxGeometry x="680" y="670" width="40" height="30" as="geometry" />
        </mxCell>
        <mxCell id="hLTHhRPW-I134p4f4QWL-433" value="A" style="shape=process;whiteSpace=wrap;html=1;backgroundOutline=1;fillColor=#fff2cc;strokeColor=#d6b656;" vertex="1" parent="1">
          <mxGeometry x="720" y="670" width="40" height="30" as="geometry" />
        </mxCell>
        <mxCell id="hLTHhRPW-I134p4f4QWL-434" value="E" style="shape=process;whiteSpace=wrap;html=1;backgroundOutline=1;fillColor=#d5e8d4;strokeColor=#82b366;" vertex="1" parent="1">
          <mxGeometry x="720" y="610" width="40" height="30" as="geometry" />
        </mxCell>
        <mxCell id="hLTHhRPW-I134p4f4QWL-437" value="A" style="shape=process;whiteSpace=wrap;html=1;backgroundOutline=1;fillColor=#fff2cc;strokeColor=#d6b656;" vertex="1" parent="1">
          <mxGeometry x="760" y="670" width="40" height="30" as="geometry" />
        </mxCell>
        <mxCell id="hLTHhRPW-I134p4f4QWL-438" value="E" style="shape=process;whiteSpace=wrap;html=1;backgroundOutline=1;fillColor=#d5e8d4;strokeColor=#82b366;" vertex="1" parent="1">
          <mxGeometry x="760" y="610" width="40" height="30" as="geometry" />
        </mxCell>
        <mxCell id="hLTHhRPW-I134p4f4QWL-444" value="A" style="shape=process;whiteSpace=wrap;html=1;backgroundOutline=1;fillColor=#fff2cc;strokeColor=#d6b656;" vertex="1" parent="1">
          <mxGeometry x="800" y="670" width="40" height="30" as="geometry" />
        </mxCell>
        <mxCell id="hLTHhRPW-I134p4f4QWL-447" value="" style="endArrow=none;html=1;rounded=0;" edge="1" parent="1">
          <mxGeometry width="50" height="50" relative="1" as="geometry">
            <mxPoint x="838.82" y="859" as="sourcePoint" />
            <mxPoint x="838.82" y="849" as="targetPoint" />
          </mxGeometry>
        </mxCell>
        <mxCell id="hLTHhRPW-I134p4f4QWL-448" value="" style="endArrow=none;html=1;rounded=0;" edge="1" parent="1">
          <mxGeometry width="50" height="50" relative="1" as="geometry">
            <mxPoint x="878.82" y="859" as="sourcePoint" />
            <mxPoint x="878.82" y="849" as="targetPoint" />
          </mxGeometry>
        </mxCell>
        <mxCell id="hLTHhRPW-I134p4f4QWL-455" value="A" style="shape=process;whiteSpace=wrap;html=1;backgroundOutline=1;fillColor=#f8cecc;strokeColor=#b85450;" vertex="1" parent="1">
          <mxGeometry x="840" y="920" width="40" height="60" as="geometry" />
        </mxCell>
        <mxCell id="FM0KLkbG4T_VL4F6_2oG-1" value="D" style="shape=process;whiteSpace=wrap;html=1;backgroundOutline=1;fillColor=#d5e8d4;strokeColor=#82b366;" vertex="1" parent="1">
          <mxGeometry x="480" y="500" width="40" height="30" as="geometry" />
        </mxCell>
        <mxCell id="FM0KLkbG4T_VL4F6_2oG-2" value="D" style="shape=process;whiteSpace=wrap;html=1;backgroundOutline=1;fillColor=#fff2cc;strokeColor=#d6b656;" vertex="1" parent="1">
          <mxGeometry x="560" y="530" width="40" height="30" as="geometry" />
        </mxCell>
        <mxCell id="FM0KLkbG4T_VL4F6_2oG-3" value="E" style="shape=process;whiteSpace=wrap;html=1;backgroundOutline=1;fillColor=#fff2cc;strokeColor=#d6b656;" vertex="1" parent="1">
          <mxGeometry x="640" y="530" width="40" height="30" as="geometry" />
        </mxCell>
        <mxCell id="FM0KLkbG4T_VL4F6_2oG-4" value="C" style="shape=process;whiteSpace=wrap;html=1;backgroundOutline=1;fillColor=#d5e8d4;strokeColor=#82b366;" vertex="1" parent="1">
          <mxGeometry x="720" y="640" width="40" height="30" as="geometry" />
        </mxCell>
        <mxCell id="FM0KLkbG4T_VL4F6_2oG-5" value="C" style="shape=process;whiteSpace=wrap;html=1;backgroundOutline=1;fillColor=#d5e8d4;strokeColor=#82b366;" vertex="1" parent="1">
          <mxGeometry x="760" y="640" width="40" height="30" as="geometry" />
        </mxCell>
        <mxCell id="FM0KLkbG4T_VL4F6_2oG-6" value="C" style="shape=process;whiteSpace=wrap;html=1;backgroundOutline=1;fillColor=#d5e8d4;strokeColor=#82b366;" vertex="1" parent="1">
          <mxGeometry x="800" y="640" width="40" height="30" as="geometry" />
        </mxCell>
        <mxCell id="FM0KLkbG4T_VL4F6_2oG-7" value="E" style="shape=process;whiteSpace=wrap;html=1;backgroundOutline=1;fillColor=#d5e8d4;strokeColor=#82b366;" vertex="1" parent="1">
          <mxGeometry x="800" y="610" width="40" height="30" as="geometry" />
        </mxCell>
        <mxCell id="FM0KLkbG4T_VL4F6_2oG-8" value="C" style="shape=process;whiteSpace=wrap;html=1;backgroundOutline=1;fillColor=#fff2cc;strokeColor=#d6b656;" vertex="1" parent="1">
          <mxGeometry x="840" y="670" width="40" height="30" as="geometry" />
        </mxCell>
        <mxCell id="FM0KLkbG4T_VL4F6_2oG-9" value="E" style="shape=process;whiteSpace=wrap;html=1;backgroundOutline=1;fillColor=#d5e8d4;strokeColor=#82b366;" vertex="1" parent="1">
          <mxGeometry x="840" y="640" width="40" height="30" as="geometry" />
        </mxCell>
        <mxCell id="FM0KLkbG4T_VL4F6_2oG-10" value="E" style="shape=process;whiteSpace=wrap;html=1;backgroundOutline=1;fillColor=#d5e8d4;strokeColor=#82b366;" vertex="1" parent="1">
          <mxGeometry x="880" y="670" width="40" height="30" as="geometry" />
        </mxCell>
        <mxCell id="FM0KLkbG4T_VL4F6_2oG-12" value="C" style="shape=process;whiteSpace=wrap;html=1;backgroundOutline=1;fillColor=#f8cecc;strokeColor=#b85450;" vertex="1" parent="1">
          <mxGeometry x="880" y="920" width="40" height="60" as="geometry" />
        </mxCell>
        <mxCell id="FM0KLkbG4T_VL4F6_2oG-13" value="E" style="shape=process;whiteSpace=wrap;html=1;backgroundOutline=1;fillColor=#f8cecc;strokeColor=#b85450;" vertex="1" parent="1">
          <mxGeometry x="920" y="920" width="40" height="60" as="geometry" />
        </mxCell>
      </root>
    </mxGraphModel>
  </diagram>
  <diagram id="oF9KnDPuFjy-niesCvtN" name="Ej14">
    <mxGraphModel dx="1091" dy="669" grid="1" gridSize="10" guides="1" tooltips="1" connect="1" arrows="1" fold="1" page="1" pageScale="1" pageWidth="827" pageHeight="1169" math="0" shadow="0">
      <root>
        <mxCell id="0" />
        <mxCell id="1" parent="0" />
        <mxCell id="7wCSULrEcmd0-w9-IKgI-1" value="" style="shape=process;whiteSpace=wrap;html=1;backgroundOutline=1;fillColor=#d5e8d4;strokeColor=#82b366;" vertex="1" parent="1">
          <mxGeometry x="110" y="590" width="40" height="60" as="geometry" />
        </mxCell>
        <mxCell id="7wCSULrEcmd0-w9-IKgI-2" value="" style="shape=process;whiteSpace=wrap;html=1;backgroundOutline=1;fillColor=#f8cecc;strokeColor=#b85450;" vertex="1" parent="1">
          <mxGeometry x="170" y="590" width="40" height="60" as="geometry" />
        </mxCell>
        <mxCell id="7wCSULrEcmd0-w9-IKgI-3" value="" style="shape=process;whiteSpace=wrap;html=1;backgroundOutline=1;fillColor=#fff2cc;strokeColor=#d6b656;" vertex="1" parent="1">
          <mxGeometry x="230" y="590" width="40" height="60" as="geometry" />
        </mxCell>
        <mxCell id="7wCSULrEcmd0-w9-IKgI-4" value="&lt;u&gt;Ready&lt;/u&gt;" style="text;html=1;align=center;verticalAlign=middle;whiteSpace=wrap;rounded=0;" vertex="1" parent="1">
          <mxGeometry x="100" y="660" width="60" height="30" as="geometry" />
        </mxCell>
        <mxCell id="7wCSULrEcmd0-w9-IKgI-5" value="&lt;u&gt;Blocked&lt;/u&gt;" style="text;html=1;align=center;verticalAlign=middle;whiteSpace=wrap;rounded=0;" vertex="1" parent="1">
          <mxGeometry x="160" y="660" width="60" height="30" as="geometry" />
        </mxCell>
        <mxCell id="7wCSULrEcmd0-w9-IKgI-6" value="&lt;u&gt;Running&lt;/u&gt;" style="text;html=1;align=center;verticalAlign=middle;whiteSpace=wrap;rounded=0;" vertex="1" parent="1">
          <mxGeometry x="220" y="660" width="60" height="30" as="geometry" />
        </mxCell>
        <mxCell id="FaKm-3jVRqLbzTWbpwtP-1" value="" style="endArrow=classic;html=1;rounded=0;" edge="1" parent="1">
          <mxGeometry width="50" height="50" relative="1" as="geometry">
            <mxPoint x="60" y="360" as="sourcePoint" />
            <mxPoint x="440" y="360" as="targetPoint" />
          </mxGeometry>
        </mxCell>
        <mxCell id="FaKm-3jVRqLbzTWbpwtP-2" value="" style="endArrow=none;html=1;rounded=0;" edge="1" parent="1">
          <mxGeometry width="50" height="50" relative="1" as="geometry">
            <mxPoint x="120" y="370" as="sourcePoint" />
            <mxPoint x="120" y="360" as="targetPoint" />
          </mxGeometry>
        </mxCell>
        <mxCell id="FaKm-3jVRqLbzTWbpwtP-3" value="" style="endArrow=none;html=1;rounded=0;" edge="1" parent="1" source="FaKm-3jVRqLbzTWbpwtP-19">
          <mxGeometry width="50" height="50" relative="1" as="geometry">
            <mxPoint x="80" y="370" as="sourcePoint" />
            <mxPoint x="80" y="360" as="targetPoint" />
          </mxGeometry>
        </mxCell>
        <mxCell id="FaKm-3jVRqLbzTWbpwtP-4" value="" style="endArrow=none;html=1;rounded=0;" edge="1" parent="1">
          <mxGeometry width="50" height="50" relative="1" as="geometry">
            <mxPoint x="200" y="370" as="sourcePoint" />
            <mxPoint x="200" y="360" as="targetPoint" />
          </mxGeometry>
        </mxCell>
        <mxCell id="FaKm-3jVRqLbzTWbpwtP-5" value="" style="endArrow=none;html=1;rounded=0;" edge="1" parent="1">
          <mxGeometry width="50" height="50" relative="1" as="geometry">
            <mxPoint x="160" y="370" as="sourcePoint" />
            <mxPoint x="160" y="360" as="targetPoint" />
          </mxGeometry>
        </mxCell>
        <mxCell id="FaKm-3jVRqLbzTWbpwtP-6" value="" style="endArrow=none;html=1;rounded=0;" edge="1" parent="1">
          <mxGeometry width="50" height="50" relative="1" as="geometry">
            <mxPoint x="279.5" y="370" as="sourcePoint" />
            <mxPoint x="279.5" y="360" as="targetPoint" />
          </mxGeometry>
        </mxCell>
        <mxCell id="FaKm-3jVRqLbzTWbpwtP-7" value="" style="endArrow=none;html=1;rounded=0;" edge="1" parent="1">
          <mxGeometry width="50" height="50" relative="1" as="geometry">
            <mxPoint x="239.5" y="370" as="sourcePoint" />
            <mxPoint x="239.5" y="360" as="targetPoint" />
          </mxGeometry>
        </mxCell>
        <mxCell id="FaKm-3jVRqLbzTWbpwtP-8" value="" style="endArrow=none;html=1;rounded=0;" edge="1" parent="1">
          <mxGeometry width="50" height="50" relative="1" as="geometry">
            <mxPoint x="359.5" y="370" as="sourcePoint" />
            <mxPoint x="359.5" y="360" as="targetPoint" />
          </mxGeometry>
        </mxCell>
        <mxCell id="FaKm-3jVRqLbzTWbpwtP-9" value="" style="endArrow=none;html=1;rounded=0;" edge="1" parent="1">
          <mxGeometry width="50" height="50" relative="1" as="geometry">
            <mxPoint x="319.5" y="370" as="sourcePoint" />
            <mxPoint x="319.5" y="360" as="targetPoint" />
          </mxGeometry>
        </mxCell>
        <mxCell id="FaKm-3jVRqLbzTWbpwtP-11" value="" style="endArrow=none;html=1;rounded=0;" edge="1" parent="1">
          <mxGeometry width="50" height="50" relative="1" as="geometry">
            <mxPoint x="400" y="370" as="sourcePoint" />
            <mxPoint x="400" y="360" as="targetPoint" />
          </mxGeometry>
        </mxCell>
        <mxCell id="FaKm-3jVRqLbzTWbpwtP-18" value="" style="endArrow=none;html=1;rounded=0;" edge="1" parent="1" target="FaKm-3jVRqLbzTWbpwtP-19">
          <mxGeometry width="50" height="50" relative="1" as="geometry">
            <mxPoint x="80" y="370" as="sourcePoint" />
            <mxPoint x="80" y="360" as="targetPoint" />
          </mxGeometry>
        </mxCell>
        <mxCell id="FaKm-3jVRqLbzTWbpwtP-19" value="0" style="text;html=1;align=center;verticalAlign=middle;whiteSpace=wrap;rounded=0;" vertex="1" parent="1">
          <mxGeometry x="50" y="370" width="60" height="30" as="geometry" />
        </mxCell>
        <mxCell id="FaKm-3jVRqLbzTWbpwtP-20" value="1" style="text;html=1;align=center;verticalAlign=middle;whiteSpace=wrap;rounded=0;" vertex="1" parent="1">
          <mxGeometry x="90" y="370" width="60" height="30" as="geometry" />
        </mxCell>
        <mxCell id="FaKm-3jVRqLbzTWbpwtP-21" value="2" style="text;html=1;align=center;verticalAlign=middle;whiteSpace=wrap;rounded=0;" vertex="1" parent="1">
          <mxGeometry x="130" y="370" width="60" height="30" as="geometry" />
        </mxCell>
        <mxCell id="FaKm-3jVRqLbzTWbpwtP-22" value="3" style="text;html=1;align=center;verticalAlign=middle;whiteSpace=wrap;rounded=0;" vertex="1" parent="1">
          <mxGeometry x="170" y="370" width="60" height="30" as="geometry" />
        </mxCell>
        <mxCell id="FaKm-3jVRqLbzTWbpwtP-23" value="4" style="text;html=1;align=center;verticalAlign=middle;whiteSpace=wrap;rounded=0;" vertex="1" parent="1">
          <mxGeometry x="210" y="370" width="60" height="30" as="geometry" />
        </mxCell>
        <mxCell id="FaKm-3jVRqLbzTWbpwtP-24" value="5" style="text;html=1;align=center;verticalAlign=middle;whiteSpace=wrap;rounded=0;" vertex="1" parent="1">
          <mxGeometry x="250" y="370" width="60" height="30" as="geometry" />
        </mxCell>
        <mxCell id="FaKm-3jVRqLbzTWbpwtP-25" value="6" style="text;html=1;align=center;verticalAlign=middle;whiteSpace=wrap;rounded=0;" vertex="1" parent="1">
          <mxGeometry x="290" y="370" width="60" height="30" as="geometry" />
        </mxCell>
        <mxCell id="FaKm-3jVRqLbzTWbpwtP-26" value="7" style="text;html=1;align=center;verticalAlign=middle;whiteSpace=wrap;rounded=0;" vertex="1" parent="1">
          <mxGeometry x="330" y="370" width="60" height="30" as="geometry" />
        </mxCell>
        <mxCell id="FaKm-3jVRqLbzTWbpwtP-27" value="8" style="text;html=1;align=center;verticalAlign=middle;whiteSpace=wrap;rounded=0;" vertex="1" parent="1">
          <mxGeometry x="370" y="370" width="60" height="30" as="geometry" />
        </mxCell>
        <mxCell id="6NbGMcnQknZFFgH4ZiGc-1" value="B" style="shape=process;whiteSpace=wrap;html=1;backgroundOutline=1;fillColor=#fff2cc;strokeColor=#d6b656;" vertex="1" parent="1">
          <mxGeometry x="80" y="300" width="40" height="60" as="geometry" />
        </mxCell>
        <mxCell id="6NbGMcnQknZFFgH4ZiGc-2" value="B" style="shape=process;whiteSpace=wrap;html=1;backgroundOutline=1;fillColor=#fff2cc;strokeColor=#d6b656;" vertex="1" parent="1">
          <mxGeometry x="120" y="300" width="40" height="60" as="geometry" />
        </mxCell>
        <mxCell id="6NbGMcnQknZFFgH4ZiGc-3" value="B" style="shape=process;whiteSpace=wrap;html=1;backgroundOutline=1;fillColor=#fff2cc;strokeColor=#d6b656;" vertex="1" parent="1">
          <mxGeometry x="160" y="300" width="40" height="60" as="geometry" />
        </mxCell>
        <mxCell id="6NbGMcnQknZFFgH4ZiGc-4" value="A" style="shape=process;whiteSpace=wrap;html=1;backgroundOutline=1;fillColor=#d5e8d4;strokeColor=#82b366;" vertex="1" parent="1">
          <mxGeometry x="160" y="220" width="40" height="60" as="geometry" />
        </mxCell>
        <mxCell id="6NbGMcnQknZFFgH4ZiGc-5" value="A" style="shape=process;whiteSpace=wrap;html=1;backgroundOutline=1;fillColor=#fff2cc;strokeColor=#d6b656;" vertex="1" parent="1">
          <mxGeometry x="200" y="300" width="40" height="60" as="geometry" />
        </mxCell>
        <mxCell id="6NbGMcnQknZFFgH4ZiGc-6" value="A" style="shape=process;whiteSpace=wrap;html=1;backgroundOutline=1;fillColor=#d5e8d4;strokeColor=#82b366;" vertex="1" parent="1">
          <mxGeometry x="240" y="220" width="40" height="60" as="geometry" />
        </mxCell>
        <mxCell id="6NbGMcnQknZFFgH4ZiGc-7" value="C" style="shape=process;whiteSpace=wrap;html=1;backgroundOutline=1;fillColor=#fff2cc;strokeColor=#d6b656;" vertex="1" parent="1">
          <mxGeometry x="240" y="300" width="40" height="60" as="geometry" />
        </mxCell>
        <mxCell id="6NbGMcnQknZFFgH4ZiGc-8" value="B" style="shape=process;whiteSpace=wrap;html=1;backgroundOutline=1;fillColor=#f8cecc;strokeColor=#b85450;" vertex="1" parent="1">
          <mxGeometry x="200" y="430" width="40" height="60" as="geometry" />
        </mxCell>
        <mxCell id="6NbGMcnQknZFFgH4ZiGc-9" value="C" style="shape=process;whiteSpace=wrap;html=1;backgroundOutline=1;fillColor=#f8cecc;strokeColor=#b85450;" vertex="1" parent="1">
          <mxGeometry x="280" y="430" width="40" height="60" as="geometry" />
        </mxCell>
        <mxCell id="6NbGMcnQknZFFgH4ZiGc-11" value="A" style="shape=process;whiteSpace=wrap;html=1;backgroundOutline=1;fillColor=#fff2cc;strokeColor=#d6b656;" vertex="1" parent="1">
          <mxGeometry x="280" y="300" width="40" height="60" as="geometry" />
        </mxCell>
        <mxCell id="6NbGMcnQknZFFgH4ZiGc-12" value="A" style="shape=process;whiteSpace=wrap;html=1;backgroundOutline=1;fillColor=#fff2cc;strokeColor=#d6b656;" vertex="1" parent="1">
          <mxGeometry x="320" y="300" width="40" height="60" as="geometry" />
        </mxCell>
        <mxCell id="6NbGMcnQknZFFgH4ZiGc-13" value="A" style="shape=process;whiteSpace=wrap;html=1;backgroundOutline=1;fillColor=#fff2cc;strokeColor=#d6b656;" vertex="1" parent="1">
          <mxGeometry x="360" y="300" width="40" height="60" as="geometry" />
        </mxCell>
        <mxCell id="6NbGMcnQknZFFgH4ZiGc-14" value="" style="endArrow=classic;html=1;rounded=0;" edge="1" parent="1">
          <mxGeometry width="50" height="50" relative="1" as="geometry">
            <mxPoint x="490" y="360" as="sourcePoint" />
            <mxPoint x="870" y="360" as="targetPoint" />
          </mxGeometry>
        </mxCell>
        <mxCell id="6NbGMcnQknZFFgH4ZiGc-15" value="" style="endArrow=none;html=1;rounded=0;" edge="1" parent="1">
          <mxGeometry width="50" height="50" relative="1" as="geometry">
            <mxPoint x="550" y="370" as="sourcePoint" />
            <mxPoint x="550" y="360" as="targetPoint" />
          </mxGeometry>
        </mxCell>
        <mxCell id="6NbGMcnQknZFFgH4ZiGc-16" value="" style="endArrow=none;html=1;rounded=0;" edge="1" parent="1" source="6NbGMcnQknZFFgH4ZiGc-25">
          <mxGeometry width="50" height="50" relative="1" as="geometry">
            <mxPoint x="510" y="370" as="sourcePoint" />
            <mxPoint x="510" y="360" as="targetPoint" />
          </mxGeometry>
        </mxCell>
        <mxCell id="6NbGMcnQknZFFgH4ZiGc-17" value="" style="endArrow=none;html=1;rounded=0;" edge="1" parent="1">
          <mxGeometry width="50" height="50" relative="1" as="geometry">
            <mxPoint x="630" y="370" as="sourcePoint" />
            <mxPoint x="630" y="360" as="targetPoint" />
          </mxGeometry>
        </mxCell>
        <mxCell id="6NbGMcnQknZFFgH4ZiGc-18" value="" style="endArrow=none;html=1;rounded=0;" edge="1" parent="1">
          <mxGeometry width="50" height="50" relative="1" as="geometry">
            <mxPoint x="590" y="370" as="sourcePoint" />
            <mxPoint x="590" y="360" as="targetPoint" />
          </mxGeometry>
        </mxCell>
        <mxCell id="6NbGMcnQknZFFgH4ZiGc-19" value="" style="endArrow=none;html=1;rounded=0;" edge="1" parent="1">
          <mxGeometry width="50" height="50" relative="1" as="geometry">
            <mxPoint x="709.5" y="370" as="sourcePoint" />
            <mxPoint x="709.5" y="360" as="targetPoint" />
          </mxGeometry>
        </mxCell>
        <mxCell id="6NbGMcnQknZFFgH4ZiGc-20" value="" style="endArrow=none;html=1;rounded=0;" edge="1" parent="1">
          <mxGeometry width="50" height="50" relative="1" as="geometry">
            <mxPoint x="669.5" y="370" as="sourcePoint" />
            <mxPoint x="669.5" y="360" as="targetPoint" />
          </mxGeometry>
        </mxCell>
        <mxCell id="6NbGMcnQknZFFgH4ZiGc-21" value="" style="endArrow=none;html=1;rounded=0;" edge="1" parent="1">
          <mxGeometry width="50" height="50" relative="1" as="geometry">
            <mxPoint x="789.5" y="370" as="sourcePoint" />
            <mxPoint x="789.5" y="360" as="targetPoint" />
          </mxGeometry>
        </mxCell>
        <mxCell id="6NbGMcnQknZFFgH4ZiGc-22" value="" style="endArrow=none;html=1;rounded=0;" edge="1" parent="1">
          <mxGeometry width="50" height="50" relative="1" as="geometry">
            <mxPoint x="749.5" y="370" as="sourcePoint" />
            <mxPoint x="749.5" y="360" as="targetPoint" />
          </mxGeometry>
        </mxCell>
        <mxCell id="6NbGMcnQknZFFgH4ZiGc-23" value="" style="endArrow=none;html=1;rounded=0;" edge="1" parent="1">
          <mxGeometry width="50" height="50" relative="1" as="geometry">
            <mxPoint x="830" y="370" as="sourcePoint" />
            <mxPoint x="830" y="360" as="targetPoint" />
          </mxGeometry>
        </mxCell>
        <mxCell id="6NbGMcnQknZFFgH4ZiGc-24" value="" style="endArrow=none;html=1;rounded=0;" edge="1" parent="1" target="6NbGMcnQknZFFgH4ZiGc-25">
          <mxGeometry width="50" height="50" relative="1" as="geometry">
            <mxPoint x="510" y="370" as="sourcePoint" />
            <mxPoint x="510" y="360" as="targetPoint" />
          </mxGeometry>
        </mxCell>
        <mxCell id="6NbGMcnQknZFFgH4ZiGc-25" value="0" style="text;html=1;align=center;verticalAlign=middle;whiteSpace=wrap;rounded=0;" vertex="1" parent="1">
          <mxGeometry x="480" y="370" width="60" height="30" as="geometry" />
        </mxCell>
        <mxCell id="6NbGMcnQknZFFgH4ZiGc-26" value="1" style="text;html=1;align=center;verticalAlign=middle;whiteSpace=wrap;rounded=0;" vertex="1" parent="1">
          <mxGeometry x="520" y="370" width="60" height="30" as="geometry" />
        </mxCell>
        <mxCell id="6NbGMcnQknZFFgH4ZiGc-27" value="2" style="text;html=1;align=center;verticalAlign=middle;whiteSpace=wrap;rounded=0;" vertex="1" parent="1">
          <mxGeometry x="560" y="370" width="60" height="30" as="geometry" />
        </mxCell>
        <mxCell id="6NbGMcnQknZFFgH4ZiGc-28" value="3" style="text;html=1;align=center;verticalAlign=middle;whiteSpace=wrap;rounded=0;" vertex="1" parent="1">
          <mxGeometry x="600" y="370" width="60" height="30" as="geometry" />
        </mxCell>
        <mxCell id="6NbGMcnQknZFFgH4ZiGc-29" value="4" style="text;html=1;align=center;verticalAlign=middle;whiteSpace=wrap;rounded=0;" vertex="1" parent="1">
          <mxGeometry x="640" y="370" width="60" height="30" as="geometry" />
        </mxCell>
        <mxCell id="6NbGMcnQknZFFgH4ZiGc-30" value="5" style="text;html=1;align=center;verticalAlign=middle;whiteSpace=wrap;rounded=0;" vertex="1" parent="1">
          <mxGeometry x="680" y="370" width="60" height="30" as="geometry" />
        </mxCell>
        <mxCell id="6NbGMcnQknZFFgH4ZiGc-31" value="6" style="text;html=1;align=center;verticalAlign=middle;whiteSpace=wrap;rounded=0;" vertex="1" parent="1">
          <mxGeometry x="720" y="370" width="60" height="30" as="geometry" />
        </mxCell>
        <mxCell id="6NbGMcnQknZFFgH4ZiGc-32" value="7" style="text;html=1;align=center;verticalAlign=middle;whiteSpace=wrap;rounded=0;" vertex="1" parent="1">
          <mxGeometry x="760" y="370" width="60" height="30" as="geometry" />
        </mxCell>
        <mxCell id="6NbGMcnQknZFFgH4ZiGc-33" value="8" style="text;html=1;align=center;verticalAlign=middle;whiteSpace=wrap;rounded=0;" vertex="1" parent="1">
          <mxGeometry x="800" y="370" width="60" height="30" as="geometry" />
        </mxCell>
        <mxCell id="6NbGMcnQknZFFgH4ZiGc-46" value="" style="endArrow=none;html=1;rounded=0;" edge="1" parent="1">
          <mxGeometry width="50" height="50" relative="1" as="geometry">
            <mxPoint x="460" y="560" as="sourcePoint" />
            <mxPoint x="460" y="120" as="targetPoint" />
          </mxGeometry>
        </mxCell>
        <mxCell id="6NbGMcnQknZFFgH4ZiGc-47" value="&lt;b&gt;&lt;u&gt;STCF&lt;/u&gt;&lt;/b&gt;" style="text;html=1;align=center;verticalAlign=middle;resizable=0;points=[];autosize=1;strokeColor=none;fillColor=none;" vertex="1" parent="1">
          <mxGeometry x="195" y="130" width="50" height="30" as="geometry" />
        </mxCell>
        <mxCell id="6NbGMcnQknZFFgH4ZiGc-48" value="&lt;b&gt;&lt;u&gt;RR&lt;/u&gt;&lt;/b&gt;" style="text;html=1;align=center;verticalAlign=middle;resizable=0;points=[];autosize=1;strokeColor=none;fillColor=none;" vertex="1" parent="1">
          <mxGeometry x="650" y="130" width="40" height="30" as="geometry" />
        </mxCell>
        <mxCell id="6NbGMcnQknZFFgH4ZiGc-49" value="A" style="shape=process;whiteSpace=wrap;html=1;backgroundOutline=1;fillColor=#f8cecc;strokeColor=#b85450;" vertex="1" parent="1">
          <mxGeometry x="400" y="430" width="40" height="60" as="geometry" />
        </mxCell>
        <mxCell id="6NbGMcnQknZFFgH4ZiGc-50" value="B" style="shape=process;whiteSpace=wrap;html=1;backgroundOutline=1;fillColor=#fff2cc;strokeColor=#d6b656;" vertex="1" parent="1">
          <mxGeometry x="510" y="300" width="40" height="60" as="geometry" />
        </mxCell>
        <mxCell id="6NbGMcnQknZFFgH4ZiGc-51" value="B" style="shape=process;whiteSpace=wrap;html=1;backgroundOutline=1;fillColor=#fff2cc;strokeColor=#d6b656;" vertex="1" parent="1">
          <mxGeometry x="550" y="300" width="40" height="60" as="geometry" />
        </mxCell>
        <mxCell id="6NbGMcnQknZFFgH4ZiGc-52" value="A" style="shape=process;whiteSpace=wrap;html=1;backgroundOutline=1;fillColor=#fff2cc;strokeColor=#d6b656;" vertex="1" parent="1">
          <mxGeometry x="590" y="300" width="40" height="60" as="geometry" />
        </mxCell>
        <mxCell id="6NbGMcnQknZFFgH4ZiGc-53" value="B" style="shape=process;whiteSpace=wrap;html=1;backgroundOutline=1;fillColor=#d5e8d4;strokeColor=#82b366;" vertex="1" parent="1">
          <mxGeometry x="590" y="220" width="40" height="60" as="geometry" />
        </mxCell>
        <mxCell id="6NbGMcnQknZFFgH4ZiGc-54" value="A" style="shape=process;whiteSpace=wrap;html=1;backgroundOutline=1;fillColor=#fff2cc;strokeColor=#d6b656;" vertex="1" parent="1">
          <mxGeometry x="630" y="300" width="40" height="60" as="geometry" />
        </mxCell>
        <mxCell id="6NbGMcnQknZFFgH4ZiGc-55" value="B" style="shape=process;whiteSpace=wrap;html=1;backgroundOutline=1;fillColor=#fff2cc;strokeColor=#d6b656;" vertex="1" parent="1">
          <mxGeometry x="670" y="300" width="40" height="60" as="geometry" />
        </mxCell>
        <mxCell id="6NbGMcnQknZFFgH4ZiGc-56" value="A" style="shape=process;whiteSpace=wrap;html=1;backgroundOutline=1;fillColor=#d5e8d4;strokeColor=#82b366;" vertex="1" parent="1">
          <mxGeometry x="670" y="250" width="40" height="30" as="geometry" />
        </mxCell>
        <mxCell id="6NbGMcnQknZFFgH4ZiGc-57" value="C" style="shape=process;whiteSpace=wrap;html=1;backgroundOutline=1;fillColor=#d5e8d4;strokeColor=#82b366;" vertex="1" parent="1">
          <mxGeometry x="670" y="220" width="40" height="30" as="geometry" />
        </mxCell>
        <mxCell id="6NbGMcnQknZFFgH4ZiGc-60" value="C" style="shape=process;whiteSpace=wrap;html=1;backgroundOutline=1;fillColor=#d5e8d4;strokeColor=#82b366;" vertex="1" parent="1">
          <mxGeometry x="710" y="220" width="40" height="60" as="geometry" />
        </mxCell>
        <mxCell id="6NbGMcnQknZFFgH4ZiGc-61" value="A" style="shape=process;whiteSpace=wrap;html=1;backgroundOutline=1;fillColor=#fff2cc;strokeColor=#d6b656;" vertex="1" parent="1">
          <mxGeometry x="710" y="300" width="40" height="60" as="geometry" />
        </mxCell>
        <mxCell id="6NbGMcnQknZFFgH4ZiGc-62" value="B" style="shape=process;whiteSpace=wrap;html=1;backgroundOutline=1;fillColor=#f8cecc;strokeColor=#b85450;" vertex="1" parent="1">
          <mxGeometry x="710" y="430" width="40" height="60" as="geometry" />
        </mxCell>
        <mxCell id="6NbGMcnQknZFFgH4ZiGc-63" value="C" style="shape=process;whiteSpace=wrap;html=1;backgroundOutline=1;fillColor=#fff2cc;strokeColor=#d6b656;" vertex="1" parent="1">
          <mxGeometry x="750" y="300" width="40" height="60" as="geometry" />
        </mxCell>
        <mxCell id="6NbGMcnQknZFFgH4ZiGc-64" value="A" style="shape=process;whiteSpace=wrap;html=1;backgroundOutline=1;fillColor=#d5e8d4;strokeColor=#82b366;" vertex="1" parent="1">
          <mxGeometry x="750" y="220" width="40" height="60" as="geometry" />
        </mxCell>
        <mxCell id="6NbGMcnQknZFFgH4ZiGc-65" value="B" style="shape=process;whiteSpace=wrap;html=1;backgroundOutline=1;fillColor=#d5e8d4;strokeColor=#82b366;" vertex="1" parent="1">
          <mxGeometry x="630" y="220" width="40" height="60" as="geometry" />
        </mxCell>
        <mxCell id="6NbGMcnQknZFFgH4ZiGc-66" value="C" style="shape=process;whiteSpace=wrap;html=1;backgroundOutline=1;fillColor=#f8cecc;strokeColor=#b85450;" vertex="1" parent="1">
          <mxGeometry x="790" y="430" width="40" height="60" as="geometry" />
        </mxCell>
        <mxCell id="6NbGMcnQknZFFgH4ZiGc-67" value="A" style="shape=process;whiteSpace=wrap;html=1;backgroundOutline=1;fillColor=#fff2cc;strokeColor=#d6b656;" vertex="1" parent="1">
          <mxGeometry x="790" y="300" width="40" height="60" as="geometry" />
        </mxCell>
      </root>
    </mxGraphModel>
  </diagram>
  <diagram id="R3JPVhc2xmkn273bN68k" name="Ej13">
    <mxGraphModel dx="757" dy="461" grid="1" gridSize="10" guides="1" tooltips="1" connect="1" arrows="1" fold="1" page="1" pageScale="1" pageWidth="827" pageHeight="1169" math="0" shadow="0">
      <root>
        <mxCell id="0" />
        <mxCell id="1" parent="0" />
        <mxCell id="0gLtL6mkT88edu--KhdI-1" value="" style="endArrow=classic;html=1;rounded=0;" edge="1" parent="1">
          <mxGeometry width="50" height="50" relative="1" as="geometry">
            <mxPoint x="150" y="320" as="sourcePoint" />
            <mxPoint x="670" y="320" as="targetPoint" />
          </mxGeometry>
        </mxCell>
        <mxCell id="0gLtL6mkT88edu--KhdI-2" value="" style="endArrow=none;html=1;rounded=0;" edge="1" parent="1">
          <mxGeometry width="50" height="50" relative="1" as="geometry">
            <mxPoint x="160" y="330" as="sourcePoint" />
            <mxPoint x="160" y="310" as="targetPoint" />
          </mxGeometry>
        </mxCell>
        <mxCell id="0gLtL6mkT88edu--KhdI-3" value="" style="endArrow=none;html=1;rounded=0;" edge="1" parent="1">
          <mxGeometry width="50" height="50" relative="1" as="geometry">
            <mxPoint x="200" y="330" as="sourcePoint" />
            <mxPoint x="200" y="310" as="targetPoint" />
          </mxGeometry>
        </mxCell>
        <mxCell id="0gLtL6mkT88edu--KhdI-4" value="" style="endArrow=none;html=1;rounded=0;" edge="1" parent="1">
          <mxGeometry width="50" height="50" relative="1" as="geometry">
            <mxPoint x="240" y="330" as="sourcePoint" />
            <mxPoint x="240" y="310" as="targetPoint" />
          </mxGeometry>
        </mxCell>
        <mxCell id="0gLtL6mkT88edu--KhdI-5" value="" style="endArrow=none;html=1;rounded=0;" edge="1" parent="1">
          <mxGeometry width="50" height="50" relative="1" as="geometry">
            <mxPoint x="280" y="330" as="sourcePoint" />
            <mxPoint x="280" y="310" as="targetPoint" />
          </mxGeometry>
        </mxCell>
        <mxCell id="0gLtL6mkT88edu--KhdI-6" value="" style="endArrow=none;html=1;rounded=0;" edge="1" parent="1">
          <mxGeometry width="50" height="50" relative="1" as="geometry">
            <mxPoint x="320" y="330" as="sourcePoint" />
            <mxPoint x="320" y="310" as="targetPoint" />
          </mxGeometry>
        </mxCell>
        <mxCell id="0gLtL6mkT88edu--KhdI-7" value="" style="endArrow=none;html=1;rounded=0;" edge="1" parent="1">
          <mxGeometry width="50" height="50" relative="1" as="geometry">
            <mxPoint x="360" y="330" as="sourcePoint" />
            <mxPoint x="360" y="310" as="targetPoint" />
          </mxGeometry>
        </mxCell>
        <mxCell id="0gLtL6mkT88edu--KhdI-8" value="" style="endArrow=none;html=1;rounded=0;" edge="1" parent="1">
          <mxGeometry width="50" height="50" relative="1" as="geometry">
            <mxPoint x="400" y="330" as="sourcePoint" />
            <mxPoint x="400" y="310" as="targetPoint" />
          </mxGeometry>
        </mxCell>
        <mxCell id="0gLtL6mkT88edu--KhdI-9" value="" style="endArrow=none;html=1;rounded=0;" edge="1" parent="1">
          <mxGeometry width="50" height="50" relative="1" as="geometry">
            <mxPoint x="440" y="330" as="sourcePoint" />
            <mxPoint x="440" y="310" as="targetPoint" />
          </mxGeometry>
        </mxCell>
        <mxCell id="0gLtL6mkT88edu--KhdI-10" value="" style="endArrow=none;html=1;rounded=0;" edge="1" parent="1" source="0gLtL6mkT88edu--KhdI-50">
          <mxGeometry width="50" height="50" relative="1" as="geometry">
            <mxPoint x="480" y="330" as="sourcePoint" />
            <mxPoint x="480" y="310" as="targetPoint" />
          </mxGeometry>
        </mxCell>
        <mxCell id="0gLtL6mkT88edu--KhdI-11" value="" style="endArrow=none;html=1;rounded=0;" edge="1" parent="1">
          <mxGeometry width="50" height="50" relative="1" as="geometry">
            <mxPoint x="520" y="330" as="sourcePoint" />
            <mxPoint x="520" y="310" as="targetPoint" />
          </mxGeometry>
        </mxCell>
        <mxCell id="0gLtL6mkT88edu--KhdI-12" value="" style="endArrow=none;html=1;rounded=0;" edge="1" parent="1">
          <mxGeometry width="50" height="50" relative="1" as="geometry">
            <mxPoint x="560" y="330" as="sourcePoint" />
            <mxPoint x="560" y="310" as="targetPoint" />
          </mxGeometry>
        </mxCell>
        <mxCell id="0gLtL6mkT88edu--KhdI-13" value="" style="endArrow=none;html=1;rounded=0;" edge="1" parent="1">
          <mxGeometry width="50" height="50" relative="1" as="geometry">
            <mxPoint x="600" y="330" as="sourcePoint" />
            <mxPoint x="600" y="310" as="targetPoint" />
          </mxGeometry>
        </mxCell>
        <mxCell id="0gLtL6mkT88edu--KhdI-14" value="0" style="text;html=1;align=center;verticalAlign=middle;resizable=0;points=[];autosize=1;strokeColor=none;fillColor=none;" vertex="1" parent="1">
          <mxGeometry x="145" y="330" width="30" height="30" as="geometry" />
        </mxCell>
        <mxCell id="0gLtL6mkT88edu--KhdI-15" value="5" style="text;html=1;align=center;verticalAlign=middle;resizable=0;points=[];autosize=1;strokeColor=none;fillColor=none;" vertex="1" parent="1">
          <mxGeometry x="185" y="330" width="30" height="30" as="geometry" />
        </mxCell>
        <mxCell id="0gLtL6mkT88edu--KhdI-16" value="10" style="text;html=1;align=center;verticalAlign=middle;resizable=0;points=[];autosize=1;strokeColor=none;fillColor=none;" vertex="1" parent="1">
          <mxGeometry x="219" y="330" width="40" height="30" as="geometry" />
        </mxCell>
        <mxCell id="0gLtL6mkT88edu--KhdI-17" value="15&lt;span style=&quot;color: rgba(0, 0, 0, 0); font-family: monospace; font-size: 0px; text-align: start;&quot;&gt;%3CmxGraphModel%3E%3Croot%3E%3CmxCell%20id%3D%220%22%2F%3E%3CmxCell%20id%3D%221%22%20parent%3D%220%22%2F%3E%3CmxCell%20id%3D%222%22%20value%3D%2220%22%20style%3D%22text%3Bhtml%3D1%3Balign%3Dcenter%3BverticalAlign%3Dmiddle%3Bresizable%3D0%3Bpoints%3D%5B%5D%3Bautosize%3D1%3BstrokeColor%3Dnone%3BfillColor%3Dnone%3B%22%20vertex%3D%221%22%20parent%3D%221%22%3E%3CmxGeometry%20x%3D%22259%22%20y%3D%22330%22%20width%3D%2240%22%20height%3D%2230%22%20as%3D%22geometry%22%2F%3E%3C%2FmxCell%3E%3C%2Froot%3E%3C%2FmxGraphModel%3E&lt;/span&gt;" style="text;html=1;align=center;verticalAlign=middle;resizable=0;points=[];autosize=1;strokeColor=none;fillColor=none;" vertex="1" parent="1">
          <mxGeometry x="259" y="330" width="40" height="30" as="geometry" />
        </mxCell>
        <mxCell id="0gLtL6mkT88edu--KhdI-18" value="20" style="text;html=1;align=center;verticalAlign=middle;resizable=0;points=[];autosize=1;strokeColor=none;fillColor=none;" vertex="1" parent="1">
          <mxGeometry x="299" y="330" width="40" height="30" as="geometry" />
        </mxCell>
        <mxCell id="0gLtL6mkT88edu--KhdI-19" value="25" style="text;html=1;align=center;verticalAlign=middle;resizable=0;points=[];autosize=1;strokeColor=none;fillColor=none;" vertex="1" parent="1">
          <mxGeometry x="339" y="330" width="40" height="30" as="geometry" />
        </mxCell>
        <mxCell id="0gLtL6mkT88edu--KhdI-20" value="30" style="text;html=1;align=center;verticalAlign=middle;resizable=0;points=[];autosize=1;strokeColor=none;fillColor=none;" vertex="1" parent="1">
          <mxGeometry x="379" y="330" width="40" height="30" as="geometry" />
        </mxCell>
        <mxCell id="0gLtL6mkT88edu--KhdI-21" value="35" style="text;html=1;align=center;verticalAlign=middle;resizable=0;points=[];autosize=1;strokeColor=none;fillColor=none;" vertex="1" parent="1">
          <mxGeometry x="419" y="330" width="40" height="30" as="geometry" />
        </mxCell>
        <mxCell id="0gLtL6mkT88edu--KhdI-22" value="40" style="text;html=1;align=center;verticalAlign=middle;resizable=0;points=[];autosize=1;strokeColor=none;fillColor=none;" vertex="1" parent="1">
          <mxGeometry x="459" y="330" width="40" height="30" as="geometry" />
        </mxCell>
        <mxCell id="0gLtL6mkT88edu--KhdI-23" value="45" style="text;html=1;align=center;verticalAlign=middle;resizable=0;points=[];autosize=1;strokeColor=none;fillColor=none;" vertex="1" parent="1">
          <mxGeometry x="499" y="330" width="40" height="30" as="geometry" />
        </mxCell>
        <mxCell id="0gLtL6mkT88edu--KhdI-24" value="50" style="text;html=1;align=center;verticalAlign=middle;resizable=0;points=[];autosize=1;strokeColor=none;fillColor=none;" vertex="1" parent="1">
          <mxGeometry x="539" y="330" width="40" height="30" as="geometry" />
        </mxCell>
        <mxCell id="0gLtL6mkT88edu--KhdI-25" value="" style="endArrow=classic;html=1;rounded=0;" edge="1" parent="1">
          <mxGeometry width="50" height="50" relative="1" as="geometry">
            <mxPoint x="150" y="480" as="sourcePoint" />
            <mxPoint x="680" y="480" as="targetPoint" />
          </mxGeometry>
        </mxCell>
        <mxCell id="0gLtL6mkT88edu--KhdI-26" value="" style="endArrow=none;html=1;rounded=0;" edge="1" parent="1">
          <mxGeometry width="50" height="50" relative="1" as="geometry">
            <mxPoint x="160" y="490" as="sourcePoint" />
            <mxPoint x="160" y="470" as="targetPoint" />
          </mxGeometry>
        </mxCell>
        <mxCell id="0gLtL6mkT88edu--KhdI-27" value="" style="endArrow=none;html=1;rounded=0;" edge="1" parent="1">
          <mxGeometry width="50" height="50" relative="1" as="geometry">
            <mxPoint x="200" y="490" as="sourcePoint" />
            <mxPoint x="200" y="470" as="targetPoint" />
          </mxGeometry>
        </mxCell>
        <mxCell id="0gLtL6mkT88edu--KhdI-28" value="" style="endArrow=none;html=1;rounded=0;" edge="1" parent="1">
          <mxGeometry width="50" height="50" relative="1" as="geometry">
            <mxPoint x="240" y="490" as="sourcePoint" />
            <mxPoint x="240" y="470" as="targetPoint" />
          </mxGeometry>
        </mxCell>
        <mxCell id="0gLtL6mkT88edu--KhdI-29" value="" style="endArrow=none;html=1;rounded=0;" edge="1" parent="1">
          <mxGeometry width="50" height="50" relative="1" as="geometry">
            <mxPoint x="280" y="490" as="sourcePoint" />
            <mxPoint x="280" y="470" as="targetPoint" />
          </mxGeometry>
        </mxCell>
        <mxCell id="0gLtL6mkT88edu--KhdI-30" value="" style="endArrow=none;html=1;rounded=0;" edge="1" parent="1">
          <mxGeometry width="50" height="50" relative="1" as="geometry">
            <mxPoint x="320" y="490" as="sourcePoint" />
            <mxPoint x="320" y="470" as="targetPoint" />
          </mxGeometry>
        </mxCell>
        <mxCell id="0gLtL6mkT88edu--KhdI-31" value="" style="endArrow=none;html=1;rounded=0;" edge="1" parent="1">
          <mxGeometry width="50" height="50" relative="1" as="geometry">
            <mxPoint x="360" y="490" as="sourcePoint" />
            <mxPoint x="360" y="470" as="targetPoint" />
          </mxGeometry>
        </mxCell>
        <mxCell id="0gLtL6mkT88edu--KhdI-32" value="" style="endArrow=none;html=1;rounded=0;" edge="1" parent="1">
          <mxGeometry width="50" height="50" relative="1" as="geometry">
            <mxPoint x="400" y="490" as="sourcePoint" />
            <mxPoint x="400" y="470" as="targetPoint" />
          </mxGeometry>
        </mxCell>
        <mxCell id="0gLtL6mkT88edu--KhdI-33" value="" style="endArrow=none;html=1;rounded=0;" edge="1" parent="1">
          <mxGeometry width="50" height="50" relative="1" as="geometry">
            <mxPoint x="440" y="490" as="sourcePoint" />
            <mxPoint x="440" y="470" as="targetPoint" />
          </mxGeometry>
        </mxCell>
        <mxCell id="0gLtL6mkT88edu--KhdI-34" value="" style="endArrow=none;html=1;rounded=0;" edge="1" parent="1">
          <mxGeometry width="50" height="50" relative="1" as="geometry">
            <mxPoint x="480" y="490" as="sourcePoint" />
            <mxPoint x="480" y="470" as="targetPoint" />
          </mxGeometry>
        </mxCell>
        <mxCell id="0gLtL6mkT88edu--KhdI-35" value="" style="endArrow=none;html=1;rounded=0;" edge="1" parent="1">
          <mxGeometry width="50" height="50" relative="1" as="geometry">
            <mxPoint x="520" y="490" as="sourcePoint" />
            <mxPoint x="520" y="470" as="targetPoint" />
          </mxGeometry>
        </mxCell>
        <mxCell id="0gLtL6mkT88edu--KhdI-36" value="" style="endArrow=none;html=1;rounded=0;" edge="1" parent="1">
          <mxGeometry width="50" height="50" relative="1" as="geometry">
            <mxPoint x="560" y="490" as="sourcePoint" />
            <mxPoint x="560" y="470" as="targetPoint" />
          </mxGeometry>
        </mxCell>
        <mxCell id="0gLtL6mkT88edu--KhdI-37" value="" style="endArrow=none;html=1;rounded=0;" edge="1" parent="1">
          <mxGeometry width="50" height="50" relative="1" as="geometry">
            <mxPoint x="600" y="490" as="sourcePoint" />
            <mxPoint x="600" y="470" as="targetPoint" />
          </mxGeometry>
        </mxCell>
        <mxCell id="0gLtL6mkT88edu--KhdI-38" value="0" style="text;html=1;align=center;verticalAlign=middle;resizable=0;points=[];autosize=1;strokeColor=none;fillColor=none;" vertex="1" parent="1">
          <mxGeometry x="145" y="490" width="30" height="30" as="geometry" />
        </mxCell>
        <mxCell id="0gLtL6mkT88edu--KhdI-39" value="5" style="text;html=1;align=center;verticalAlign=middle;resizable=0;points=[];autosize=1;strokeColor=none;fillColor=none;" vertex="1" parent="1">
          <mxGeometry x="185" y="490" width="30" height="30" as="geometry" />
        </mxCell>
        <mxCell id="0gLtL6mkT88edu--KhdI-40" value="10" style="text;html=1;align=center;verticalAlign=middle;resizable=0;points=[];autosize=1;strokeColor=none;fillColor=none;" vertex="1" parent="1">
          <mxGeometry x="219" y="490" width="40" height="30" as="geometry" />
        </mxCell>
        <mxCell id="0gLtL6mkT88edu--KhdI-41" value="15&lt;span style=&quot;color: rgba(0, 0, 0, 0); font-family: monospace; font-size: 0px; text-align: start;&quot;&gt;%3CmxGraphModel%3E%3Croot%3E%3CmxCell%20id%3D%220%22%2F%3E%3CmxCell%20id%3D%221%22%20parent%3D%220%22%2F%3E%3CmxCell%20id%3D%222%22%20value%3D%2220%22%20style%3D%22text%3Bhtml%3D1%3Balign%3Dcenter%3BverticalAlign%3Dmiddle%3Bresizable%3D0%3Bpoints%3D%5B%5D%3Bautosize%3D1%3BstrokeColor%3Dnone%3BfillColor%3Dnone%3B%22%20vertex%3D%221%22%20parent%3D%221%22%3E%3CmxGeometry%20x%3D%22259%22%20y%3D%22330%22%20width%3D%2240%22%20height%3D%2230%22%20as%3D%22geometry%22%2F%3E%3C%2FmxCell%3E%3C%2Froot%3E%3C%2FmxGraphModel%3E&lt;/span&gt;" style="text;html=1;align=center;verticalAlign=middle;resizable=0;points=[];autosize=1;strokeColor=none;fillColor=none;" vertex="1" parent="1">
          <mxGeometry x="259" y="490" width="40" height="30" as="geometry" />
        </mxCell>
        <mxCell id="0gLtL6mkT88edu--KhdI-42" value="20" style="text;html=1;align=center;verticalAlign=middle;resizable=0;points=[];autosize=1;strokeColor=none;fillColor=none;" vertex="1" parent="1">
          <mxGeometry x="299" y="490" width="40" height="30" as="geometry" />
        </mxCell>
        <mxCell id="0gLtL6mkT88edu--KhdI-43" value="25" style="text;html=1;align=center;verticalAlign=middle;resizable=0;points=[];autosize=1;strokeColor=none;fillColor=none;" vertex="1" parent="1">
          <mxGeometry x="339" y="490" width="40" height="30" as="geometry" />
        </mxCell>
        <mxCell id="0gLtL6mkT88edu--KhdI-44" value="30" style="text;html=1;align=center;verticalAlign=middle;resizable=0;points=[];autosize=1;strokeColor=none;fillColor=none;" vertex="1" parent="1">
          <mxGeometry x="379" y="490" width="40" height="30" as="geometry" />
        </mxCell>
        <mxCell id="0gLtL6mkT88edu--KhdI-45" value="35" style="text;html=1;align=center;verticalAlign=middle;resizable=0;points=[];autosize=1;strokeColor=none;fillColor=none;" vertex="1" parent="1">
          <mxGeometry x="419" y="490" width="40" height="30" as="geometry" />
        </mxCell>
        <mxCell id="0gLtL6mkT88edu--KhdI-46" value="40" style="text;html=1;align=center;verticalAlign=middle;resizable=0;points=[];autosize=1;strokeColor=none;fillColor=none;" vertex="1" parent="1">
          <mxGeometry x="459" y="490" width="40" height="30" as="geometry" />
        </mxCell>
        <mxCell id="0gLtL6mkT88edu--KhdI-47" value="45" style="text;html=1;align=center;verticalAlign=middle;resizable=0;points=[];autosize=1;strokeColor=none;fillColor=none;" vertex="1" parent="1">
          <mxGeometry x="499" y="490" width="40" height="30" as="geometry" />
        </mxCell>
        <mxCell id="0gLtL6mkT88edu--KhdI-48" value="50" style="text;html=1;align=center;verticalAlign=middle;resizable=0;points=[];autosize=1;strokeColor=none;fillColor=none;" vertex="1" parent="1">
          <mxGeometry x="539" y="490" width="40" height="30" as="geometry" />
        </mxCell>
        <mxCell id="0gLtL6mkT88edu--KhdI-49" value="C" style="shape=process;whiteSpace=wrap;html=1;backgroundOutline=1;fillColor=#dae8fc;strokeColor=#6c8ebf;" vertex="1" parent="1">
          <mxGeometry x="559" y="260" width="80" height="60" as="geometry" />
        </mxCell>
        <mxCell id="0gLtL6mkT88edu--KhdI-51" value="" style="endArrow=none;html=1;rounded=0;" edge="1" parent="1">
          <mxGeometry width="50" height="50" relative="1" as="geometry">
            <mxPoint x="640" y="330" as="sourcePoint" />
            <mxPoint x="640" y="310" as="targetPoint" />
          </mxGeometry>
        </mxCell>
        <mxCell id="0gLtL6mkT88edu--KhdI-52" value="55" style="text;html=1;align=center;verticalAlign=middle;resizable=0;points=[];autosize=1;strokeColor=none;fillColor=none;" vertex="1" parent="1">
          <mxGeometry x="579" y="330" width="40" height="30" as="geometry" />
        </mxCell>
        <mxCell id="0gLtL6mkT88edu--KhdI-53" value="60" style="text;html=1;align=center;verticalAlign=middle;resizable=0;points=[];autosize=1;strokeColor=none;fillColor=none;" vertex="1" parent="1">
          <mxGeometry x="619" y="330" width="40" height="30" as="geometry" />
        </mxCell>
        <mxCell id="0gLtL6mkT88edu--KhdI-54" value="A" style="shape=process;whiteSpace=wrap;html=1;backgroundOutline=1;fillColor=#ffe6cc;strokeColor=#d79b00;" vertex="1" parent="1">
          <mxGeometry x="160" y="260" width="240" height="60" as="geometry" />
        </mxCell>
        <mxCell id="0gLtL6mkT88edu--KhdI-55" value="" style="endArrow=none;html=1;rounded=0;" edge="1" parent="1">
          <mxGeometry width="50" height="50" relative="1" as="geometry">
            <mxPoint x="640" y="490" as="sourcePoint" />
            <mxPoint x="640" y="470" as="targetPoint" />
          </mxGeometry>
        </mxCell>
        <mxCell id="0gLtL6mkT88edu--KhdI-56" value="55" style="text;html=1;align=center;verticalAlign=middle;resizable=0;points=[];autosize=1;strokeColor=none;fillColor=none;" vertex="1" parent="1">
          <mxGeometry x="579" y="490" width="40" height="30" as="geometry" />
        </mxCell>
        <mxCell id="0gLtL6mkT88edu--KhdI-57" value="60" style="text;html=1;align=center;verticalAlign=middle;resizable=0;points=[];autosize=1;strokeColor=none;fillColor=none;" vertex="1" parent="1">
          <mxGeometry x="619" y="490" width="40" height="30" as="geometry" />
        </mxCell>
        <mxCell id="0gLtL6mkT88edu--KhdI-58" value="" style="endArrow=none;html=1;rounded=0;" edge="1" parent="1" target="0gLtL6mkT88edu--KhdI-50">
          <mxGeometry width="50" height="50" relative="1" as="geometry">
            <mxPoint x="480" y="330" as="sourcePoint" />
            <mxPoint x="480" y="310" as="targetPoint" />
          </mxGeometry>
        </mxCell>
        <mxCell id="0gLtL6mkT88edu--KhdI-50" value="B" style="shape=process;whiteSpace=wrap;html=1;backgroundOutline=1;fillColor=#d5e8d4;strokeColor=#82b366;" vertex="1" parent="1">
          <mxGeometry x="400" y="260" width="160" height="60" as="geometry" />
        </mxCell>
        <mxCell id="0gLtL6mkT88edu--KhdI-59" value="C" style="shape=process;whiteSpace=wrap;html=1;backgroundOutline=1;fillColor=#dae8fc;strokeColor=#6c8ebf;" vertex="1" parent="1">
          <mxGeometry x="160" y="420" width="80" height="60" as="geometry" />
        </mxCell>
        <mxCell id="0gLtL6mkT88edu--KhdI-60" value="B" style="shape=process;whiteSpace=wrap;html=1;backgroundOutline=1;fillColor=#d5e8d4;strokeColor=#82b366;" vertex="1" parent="1">
          <mxGeometry x="240" y="420" width="160" height="60" as="geometry" />
        </mxCell>
        <mxCell id="0gLtL6mkT88edu--KhdI-61" value="A" style="shape=process;whiteSpace=wrap;html=1;backgroundOutline=1;fillColor=#ffe6cc;strokeColor=#d79b00;" vertex="1" parent="1">
          <mxGeometry x="400" y="420" width="240" height="60" as="geometry" />
        </mxCell>
        <mxCell id="0gLtL6mkT88edu--KhdI-62" value="&lt;b&gt;&lt;u&gt;FCFS (FIFO)&lt;/u&gt;&lt;/b&gt;" style="text;html=1;align=center;verticalAlign=middle;resizable=0;points=[];autosize=1;strokeColor=none;fillColor=none;" vertex="1" parent="1">
          <mxGeometry x="339" y="200" width="90" height="30" as="geometry" />
        </mxCell>
        <mxCell id="0gLtL6mkT88edu--KhdI-63" value="&lt;b&gt;&lt;u&gt;SJF&lt;/u&gt;&lt;/b&gt;" style="text;html=1;align=center;verticalAlign=middle;resizable=0;points=[];autosize=1;strokeColor=none;fillColor=none;" vertex="1" parent="1">
          <mxGeometry x="359" y="380" width="50" height="30" as="geometry" />
        </mxCell>
      </root>
    </mxGraphModel>
  </diagram>
</mxfile>
